<svg id="Layer_1" data-name="Layer 1" xmlns="http://www.w3.org/2000/svg" xmlns:xlink="http://www.w3.org/1999/xlink" viewBox="0 0 1920 786"><defs><style>.cls-1{fill:#fff;}.cls-2{fill:url(#linear-gradient);}.cls-3{fill:url(#linear-gradient-2);}.cls-4{fill:url(#linear-gradient-3);}.cls-5{fill:url(#linear-gradient-4);}.cls-6{fill:url(#linear-gradient-5);}.cls-7{fill:url(#linear-gradient-6);}.cls-8{fill:url(#linear-gradient-7);}.cls-9{fill:#ffb955;}.cls-10{fill:url(#linear-gradient-8);}.cls-11{fill:#323657;}.cls-12{fill:#a380a8;}.cls-13{fill:#2d3038;}.cls-14{fill:#3f444f;}.cls-15{fill:#c2c2c2;opacity:0.3;}.cls-16{fill:#cac7d1;}.cls-17{fill:#1d2033;}.cls-18{fill:#eea987;}.cls-19{fill:#c78d71;}.cls-20{fill:#a09ea6;}.cls-21{fill:#eae6f2;}.cls-22{fill:#3a4066;}.cls-23{fill:#efaa88;}.cls-24{fill:url(#linear-gradient-9);}.cls-25{fill:#1a598c;}.cls-26{fill:#bfb9b7;}.cls-27{fill:#f2ebe9;}.cls-28{fill:#3d8ed1;}.cls-29{fill:#f5eeec;}.cls-30{fill:#ded7d5;}.cls-31{fill:#eea886;}.cls-32{fill:#ffc355;}.cls-33{fill:#292c47;}.cls-34{fill:#a67f37;}.cls-35{fill:#fccca2;}.cls-36{fill:#918783;}.cls-37{fill:#1d3b54;}.cls-38{fill:#db9c7c;}.cls-39{fill:#152c3d;}.cls-40{fill:#a77860;}.cls-41{fill:url(#linear-gradient-10);}.cls-42{fill:url(#linear-gradient-11);}.cls-43{fill:url(#linear-gradient-12);}.cls-44{fill:#ffd1a1;}.cls-45{fill:#b37952;}.cls-46{fill:#d6985e;}.cls-47{fill:#6e6760;}.cls-48{fill:#918880;}.cls-49{fill:#bc8551;}</style><linearGradient id="linear-gradient" x1="148.16911" y1="-172.67108" x2="402.57528" y2="659.15283" gradientUnits="userSpaceOnUse"><stop offset="0" stop-color="#9a5cff"/><stop offset="0.99482" stop-color="#4059bf"/></linearGradient><linearGradient id="linear-gradient-2" x1="-60.76307" y1="-19.9664" x2="93.00656" y2="304.24692" xlink:href="#linear-gradient"/><linearGradient id="linear-gradient-3" x1="1342.75545" y1="173.47497" x2="1726.71579" y2="871.58449" xlink:href="#linear-gradient"/><linearGradient id="linear-gradient-4" x1="1245.41617" y1="-35.00148" x2="1527.58232" y2="478.02774" xlink:href="#linear-gradient"/><linearGradient id="linear-gradient-5" x1="1559.55282" y1="270.54528" x2="1822.50919" y2="-292.59904" xlink:href="#linear-gradient"/><linearGradient id="linear-gradient-6" x1="1951.47143" y1="937.1529" x2="1751.34564" y2="469.41747" xlink:href="#linear-gradient"/><linearGradient id="linear-gradient-7" x1="1833.95451" y1="350.45406" x2="1924.85104" y2="147.9506" gradientUnits="userSpaceOnUse"><stop offset="0" stop-color="#ff9f55"/><stop offset="1" stop-color="#ffd255"/></linearGradient><linearGradient id="linear-gradient-8" x1="1437.51855" y1="465.76253" x2="1875.2949" y2="465.76253" xlink:href="#linear-gradient-7"/><linearGradient id="linear-gradient-9" x1="1447.08625" y1="694.43624" x2="1642.49771" y2="694.43624" xlink:href="#linear-gradient"/><linearGradient id="linear-gradient-10" x1="1717.85699" y1="770.55719" x2="1748.53923" y2="587.99822" gradientUnits="userSpaceOnUse"><stop offset="0" stop-color="#e36c44"/><stop offset="1" stop-color="#f75a5a"/></linearGradient><linearGradient id="linear-gradient-11" x1="1733.4091" y1="773.17071" x2="1764.09119" y2="590.61263" xlink:href="#linear-gradient-10"/><linearGradient id="linear-gradient-12" x1="1676.04154" y1="763.52941" x2="1706.724" y2="580.96908" xlink:href="#linear-gradient-10"/></defs><title>biz quiz final</title><rect class="cls-1" x="-14.9915" y="-9.37882" width="1941.44914" height="1323.37882"/><path class="cls-2" d="M655-9.37882S338.78188,62.48171,327.12089,487.85083C318.99988,784.00229-14.9915,787.72465-14.9915,787.72465V-9.37882Z"/><path class="cls-3" d="M193,207.31443c0,135.49243-87.20465,245.32562-194.76086,245.32562q-6.67364,0-13.23063-.56336V-9.37882H89.621C151.13159,31.8576,193,113.42483,193,207.31443Z"/><path class="cls-4" d="M1973.93595.4118V790.46188H955.73307s131.33706-37.18159,159.74114-439.09722c12.6696-179.30836,116.489-389.26091,353.2679-439.26211,121.46287-25.66883,277.91273-9.22747,474.98548,75.00923Q1958.67363-6.50882,1973.93595.4118Z"/><path class="cls-5" d="M1468.99751-133.70515c-62.48965,13.19525-119.52428,37.19647-169.50991,71.32659-45.64289,31.16985-85.58949,70.83062-118.72766,117.90123-58.357,82.88392-94.69663,188.14537-102.34636,296.36841-16.17109,228.844-63.13632,348.29323-99.68611,408.19763a293.94239,293.94239,0,0,1-21.13082,30.37317h1.92376a295.41266,295.41266,0,0,0,20.349-29.36635c23.35454-38.21817,43.28328-87.34767,59.22866-146.01955,19.928-73.31048,33.64965-161.81561,40.80342-263.07953C1093.217,163.745,1203.16785-76.04,1469.29822-132.23273c141.96259-30.01233,311.63738-4.88473,504.63773,74.67877v-1.63793C1780.891-138.66482,1611.0946-163.74855,1468.99751-133.70515Z"/><path class="cls-6" d="M1943.72759-12.88821C1919.9224,95.1085,1823.66278,175.88819,1708.51168,175.88819c-133.02025,0-240.85139-107.83175-240.85139-240.86688q0-11.58711,1.08183-22.91876C1590.205-113.56628,1746.65485-97.12492,1943.72759-12.88821Z"/><path class="cls-7" d="M1973.93595,638.08525V790.46188H1738.28412C1778.72607,700.63434,1869.03464,638.08525,1973.93595,638.08525Z"/><path class="cls-8" d="M1958.50116,251.49941a72.82266,72.82266,0,0,0,4.25065-19.88159l13.29893-5.31441-2.80956-15.30173-2.8091-15.30219-14.31908-.24409a72.83448,72.83448,0,0,0-11.03593-17.07472l5.64092-13.15059-12.80669-8.83357-12.80669-8.83361-10.28893,9.94458a72.82766,72.82766,0,0,0-19.88154-4.25152l-5.31441-13.29847-15.30173,2.80956-15.30219,2.8091-.24413,14.319a72.83534,72.83534,0,0,0-17.07468,11.036l-13.15059-5.64138-8.83361,12.8071-8.83357,12.80628,9.94412,10.28934a72.84285,72.84285,0,0,0-4.25106,19.88113l-13.29847,5.31441,2.80951,15.30264,2.8091,15.30173,14.31908.24409a72.83542,72.83542,0,0,0,11.03594,17.07472l-5.64093,13.15059,12.80669,8.83357,12.80669,8.834,10.28893-9.94458a72.82443,72.82443,0,0,0,19.88155,4.25065l5.31441,13.29893,15.30173-2.8091,15.30219-2.80956.24413-14.31949a72.80963,72.80963,0,0,0,17.07468-11.03553l13.15058,5.64092,8.83361-12.80623,8.83356-12.8071Zm-90.49811,6.24766a38.14624,38.14624,0,1,1,53.05987-9.74145A38.14594,38.14594,0,0,1,1868.00305,257.74707Z"/><polygon class="cls-9" points="1765.603 525.269 1834.459 525.269 1834.459 575.176 1776.116 575.176 1765.603 585.688 1765.603 525.269"/><path class="cls-10" d="M1529.90278,636.579c0-72.29728,5.59371-103.103,16.79715-130.39846q16.78114-40.94319,69.2886-71.38761,15.7474-9.449,38.84325-21.52179a315.495,315.495,0,0,0,45.14259-28.87016,165.443,165.443,0,0,0,37.26855-39.36847q15.20616-22.56238,15.22245-51.96624,0-22.04653-8.39839-38.84325a88.9938,88.9938,0,0,0-22.04651-28.34544,91.64228,91.64228,0,0,0-32.01964-17.32191,123.98623,123.98623,0,0,0-37.2685-5.77367q-23.10429,0-41.99315,7.87313a143.3418,143.3418,0,0,0-34.11911,19.94709,167.82369,167.82369,0,0,0-27.29546,27.29546,299.71413,299.71413,0,0,0-20.47135,28.8697l-91.3347-62.98926a203.67835,203.67835,0,0,1,36.219-57.7399,221.76762,221.76762,0,0,1,51.44147-42.51791,240.88208,240.88208,0,0,1,62.464-26.24593,269.159,269.159,0,0,1,69.2886-8.92357A275.171,275.171,0,0,1,1735.66817,99.899a199.92919,199.92919,0,0,1,69.81337,36.74379q30.95363,25.19572,50.39149,64.564,19.41387,39.3689,19.42187,93.95934,0,33.61038-7.87363,59.31465A165.08112,165.08112,0,0,1,1844.85,401.19809a196.86832,196.86832,0,0,1-34.64432,37.79377,394.86669,394.86669,0,0,1-45.14213,32.54482q-21.01279,12.59752-41.99315,24.146a252.63764,252.63764,0,0,0-38.31849,25.72026,125.14908,125.14908,0,0,0-28.34539,32.54482c-7.34841,12.253-11.02307,27.13152-11.02307,82.63119Zm2.09992,206.59532V698.29818h116.53065V843.17427Z"/><path class="cls-11" d="M1738.21891,468.96855s-37.938,33.58408-49.17182,42.554c-5.19234,4.14637-17.52463,4.492-30.75048,4.50811-4.35707.00712-9.27458.21558-13.629,0h0c-17.38208-.87044-32.45705-2.46744-32.45705-2.46744s-45.066,2.28389-42.8618-25.67528c0,0,5.248-8.46029,11.97813-10.39184,6.21377-1.78321,36.333,3.153,41.25677,3.36817,5.424.23656,43.12729,7.56714,44.49708,7.3417,1.73691-.286,17.90059-9.7753,26.54307-15.03086,13.19337-8.02284,25.73235-14.4812,25.73235-14.4812Z"/><polygon class="cls-12" points="1811.957 513.84 1524.393 464.145 1531.246 423.9 1818.81 473.595 1811.957 513.84"/><rect class="cls-13" x="1515.08403" y="423.59098" width="12.82624" height="38.70983" transform="translate(95.93434 -249.09841) rotate(9.66281)"/><path class="cls-14" d="M1372.91449,261.35176a148.58234,148.58234,0,1,0,148.58278,148.58237A148.5825,148.5825,0,0,0,1372.91449,261.35176Zm0,272.76655a124.16054,124.16054,0,0,1-109.69811-65.92887l-.0016-.00178a124.2001,124.2001,0,1,1,109.69971,65.93065Z"/><path class="cls-15" d="M1456.48691,318.07913s-161.15783-19.97469-193.27053,150.11031l-.0016-.00178a124.1971,124.1971,0,0,1,193.27213-150.10853Z"/><path class="cls-16" d="M1462.98226,682.07611s14.67853,4.45779,20.82373,3.32944c6.155-1.12839,3.04028-76.55372,3.28264-92.24879.18661-12.72965,7.15281-46.33868,7.15281-46.33868a.26055.26055,0,0,0,.00935.0557.05683.05683,0,0,1,.00935.0374c0,.01875.00935.03745.00935.05615.69,2.51776,10.09028,37.3955,10.41679,54.15346.34476,17.3923-2.2661,83.92124-2.2661,83.92124l25.90961,2.52177,74.46493,1.82508,15.53291-1.83174s-1.85578-28.44967-2.54581-41.9624c-.429-8.589-2.09814-23.967-1.66917-38.944,0,0-.27041-15.78818,1.29631-22.58642.16791-30.00968,1.98633-59.73025,1.98633-59.73025q1.51079-20.40943,2.10749-38.19779c-3.28264-1.73463-7.22726-3.76772-10.3887-5.269-9.77307-4.6533-23.38875-10.92012-32.12652-14.93019-5.11977-2.3503-10.12768-4.06623-10.12768-4.06623s-34.924-3.34769-37.75942-3.17038c-.89493.0557-5.25962,1.57607-10.98562,3.75841-12.38443,4.69965-36.25734,14.26781-40.06251,17.00028-5.57679,3.99137-17.36424,98.851-17.89571,105.49116C1459.19625,596.91471,1462.98226,682.07611,1462.98226,682.07611Z"/><path class="cls-17" d="M1616.0861,675.67035s-51.11008,4.35173-95.87269,0v14.68788s67.22477,9.70756,98.11424-2.80108Z"/><path class="cls-11" d="M1626.49259,690.18361c-3.20331-17.456-6.633-39.36044-9.09193-59.58282v-.08106c-.2107-1.71506-.42053-3.43007-.61476-5.1282a1.39173,1.39173,0,0,0-.03252-.25923c-.80895-7.16668-1.4883-14.00989-1.97338-20.287a63.81077,63.81077,0,0,1,.61472-14.107c1.95737-32.11316,2.92807-65.95738,2.92807-65.95738,1.01919-13.84819,3.86661-31.85433,4.25462-43.92292-4.75621-.92253-7.87851-1.00318-12.21378-2.50749,0,0-28.0202-10.19227-37.873-14.35023,0,0,8.31592,19.54344,14.56047,63.19107,2.39391,16.76061,6.82675,44.9911,10.06263,73.80337,1.278,11.35716,3.34856,22.86,5.35491,33.699,2.00595,10.83906,3.91474,21.01482,4.85337,29.70273.63077,5.88816,1.666,15.49774,2.76632,25.78713.17818,1.58583.33947,3.17079.51765,4.77272h16.77621C1627.09129,693.40344,1626.78393,691.81756,1626.49259,690.18361Z"/><path class="cls-16" d="M1569.87214,474.19027s.93239,13.36712-10.37487,13.67758c-11.30726.311-20.283-10.54639-20.283-10.54639l18.76747,4.84087,11.424-9.68174Z"/><path class="cls-18" d="M1554.60781,371.80317s25.93146,4.37536,21.53292,44.97418c-4.39808,40.59886-27.28789,37.0173-28.81984,36.95982s-23.02341.49046-24.1576-49.14951C1523.16329,404.58765,1522.83235,367.8866,1554.60781,371.80317Z"/><path class="cls-18" d="M1565.96944,441.96841s-.00269,16.72549.68378,20.34486c.739,3.89471-20.82241,15.14363-34.74185,2.03669,0,0,2.81444-18.26456,1.94044-24.71357S1565.96944,441.96841,1565.96944,441.96841Z"/><path class="cls-18" d="M1576.24186,407.3219s2.87725-3.00776,3.88714.07974-3.64661,16.137-4.24664,17.39143c0,0-.53234,1.1876-1.20768.52344C1573.99894,424.65229,1576.24186,407.3219,1576.24186,407.3219Z"/><path class="cls-18" d="M1523.46089,404.20721s-2.75163-3.12271-3.8876-.07974c-1.13546,3.043,3.01182,16.70719,3.5281,17.55177,0,0,.89315,1.40191,1.59523.76621C1525.3991,421.80934,1523.46089,404.20721,1523.46089,404.20721Z"/><path class="cls-11" d="M1578.32618,401.85158c-.894,5.5554-1.73773,9.68352-1.73773,9.68352l-3.774,4.92909s.22274-10.89831-.35325-12.61022c-.21873-.64907-.47531-1.79835-.73948-3.04252-.43344-2.05362-.8771-4.37226-1.18094-5.14381-.486-1.23395-22.22605-7.58315-41.58863,1.33061,0,0,.1639,1.67715.15236,3.54812-.00671,2.17477-.24591,4.61234-1.24376,4.97854-1.85669.67885-1.08114,12.75546-1.08114,12.75546l-3.018-3.484s-.87359-6.30824-1.732-13.55866c0,0-.004-.01738-.008-.05168-.19423-1.691-.39243-3.43007-.58224-5.15489-.43253-7.29363.28911-20.53462,9.78511-28.31469,6.40713-2.74319,16.639-5.07429,33.69456.147,0,0,3.91118.261,5.00751,1.31679C1580.5473,380.86928,1578.32618,401.85158,1578.32618,401.85158Z"/><path class="cls-19" d="M1535.63055,448.31009s4.13926,5.74785,13.75554,5.53c9.61583-.21736,13.79026-5.22975,13.79026-5.22975s-4.55222,9.52136-13.83614,9.41982C1540.05669,457.929,1535.63055,448.31009,1535.63055,448.31009Z"/><path class="cls-20" d="M1567.65731,475.00638l-9.67554,7.156s8.08743-17.231,8.25539-24.13133Z"/><polygon class="cls-21" points="1566.237 458.031 1572.858 464.151 1579.781 484.798 1567.657 475.006 1566.237 458.031"/><path class="cls-18" d="M1565.03218,464.18826a114.05555,114.05555,0,0,1-7.0504,17.97408s-10.15391-8.89638-13.34924-12.06544C1541.43766,466.927,1565.03218,464.18826,1565.03218,464.18826Z"/><path class="cls-20" d="M1547.35875,472.21821l10.623,9.94412s-12.559-.83436-14.9057-2.92625Z"/><path class="cls-21" d="M1533.26556,453.89623s8.49815,13.81475,14.09319,18.322l-9.42693,15.64964L1522.819,460.41338Z"/><path class="cls-11" d="M1548.98427,553.52906c-2.05448-39.58765-23.68452-90.35378-26.15949-93.12015-1.92576.72789-8.704,3.57531-10.8391,4.41637-11.69659,4.62748-35.55928,13.07172-38.77911,15.38548-5.58121,3.9958-16.129,103.45757-16.79227,110.09054-.90606,9.108,1.92489,96.0317,1.92489,96.0317s14.36624,3.15524,23.31253,3.8506a29.45259,29.45259,0,0,0,4.5295.09712c-.5332,1.60189-1.0513,3.17079-1.569,4.67561H1535.476c.14524-1.55289.3074-3.15478.46911-4.77272.61472-6.38975,1.29407-13.217,2.0059-20.33551,1.86025-18.55632,4.40077-35.86623,6.69757-58.04594C1546.78367,591.01318,1549.615,565.58154,1548.98427,553.52906Zm-60.82877,40.34756c1.37472-18.52334,7.1181-41.98156,7.1181-41.98156,3.20336,11.11439,7.26375,61.70231,7.26375,61.70231-.016,15.88712-6.26057,43.3082-12.9746,65.84426C1490.87328,656.79285,1487.314,605.23332,1488.1555,593.87662Z"/><path class="cls-11" d="M1489.10969,634.61269l-.32342,55.57092-.03248,4.77272h-20.02861c-3.2029-.8896-6.6811-2.00641-10.386-3.36507l-.01606-1.40765-1.197-88.91361Z"/><rect class="cls-22" x="1555.61902" y="676.57107" width="24.09036" height="17.91081"/><path class="cls-23" d="M1718.56407,456.29369s-2.34715,10.41324-.09219,13.30162c2.25492,2.88884,3.31293-.8183,3.31293-.8183s-1.10878,3.64789,1.73951,4.87157c2.84833,1.22414,3.85375-3.18552,3.85375-3.18552a3.08627,3.08627,0,0,0,3.12581,3.16281c3.21449.16308,3.20737-3.69469,3.20737-3.69469s2.24155,4.32815,4.8489,1.33193c4.40118-5.05869,2.6505-12.72736,2.6505-12.72736s-.59871-1.80725-3.7-1.75023c0,0-1.1658-4.53931-6.15456-2.69684,0,0-4.01185-3.64127-6.46547.02805C1724.8906,454.11673,1720.39317,450.48664,1718.56407,456.29369Z"/><rect class="cls-24" x="1447.08625" y="690.18361" width="195.41146" height="8.50527"/><path class="cls-18" d="M1334.01755,537.26328s14.34531,2.42023,11.91217,24.87929c-2.43314,22.45947-15.09568,20.478-15.94318,20.44595s-12.73653.27173-13.36375-27.1894C1316.62279,555.39912,1316.43969,535.09654,1334.01755,537.26328Z"/><path class="cls-18" d="M1340.30285,576.45134s-.55081,9.31112.322,11.32286c.87313,2.0117-11.46249,8.30926-19.16278,1.05842,0,0,1.55686-10.1036,1.07334-13.67134S1340.30285,576.45134,1340.30285,576.45134Z"/><path class="cls-18" d="M1346.22107,555.79465s1.59185-1.66379,2.15051.0437c.55861,1.7079-2.01329,9.07186-2.34921,9.62112,0,0-.29445.65664-.66818.28957C1344.98069,565.38151,1346.22107,555.79465,1346.22107,555.79465Z"/><path class="cls-18" d="M1316.78738,555.18928s-1.52215-1.728-2.15051-.04411c-.62831,1.683,1.66584,9.2421,1.95162,9.70939,0,0,.494.7751.88243.42363S1316.78738,555.18928,1316.78738,555.18928Z"/><path class="cls-19" d="M1323.5197,579.58655s2.28968,3.17973,7.6092,3.059c5.31979-.12024,7.62886-2.89285,7.62886-2.89285s-2.51821,5.2672-7.654,5.21109S1323.5197,579.58655,1323.5197,579.58655Z"/><polygon class="cls-25" points="1550.918 878.638 1549.411 878.578 1556.996 688.153 1425.805 688.153 1418.218 878.638 1416.711 878.578 1424.356 686.645 1558.565 686.645 1550.918 878.638"/><polygon class="cls-25" points="1563.205 878.638 1555.618 688.153 1424.427 688.153 1432.012 878.578 1430.506 878.638 1422.858 686.645 1557.067 686.645 1564.712 878.578 1563.205 878.638"/><polygon class="cls-26" points="1431.259 816.685 1563.959 816.685 1556.342 625.476 1423.643 625.476 1431.259 816.685"/><polygon class="cls-27" points="1546.421 816.685 1413.721 816.685 1421.338 625.476 1554.038 625.476 1546.421 816.685"/><polygon class="cls-28" points="1456.249 759.082 1454.804 758.566 1467.381 723.283 1494.657 716.068 1504.459 677.342 1525.507 668.052 1530.221 637.939 1531.737 638.177 1526.894 669.118 1505.763 678.444 1495.923 717.32 1468.555 724.56 1456.249 759.082"/><circle class="cls-29" cx="1495.28964" cy="716.69436" r="4.09304" transform="translate(-116.01991 1108.13202) rotate(-39.2629)"/><path class="cls-28" d="M1498.36556,720.45745a4.86043,4.86043,0,1,1,.68738-6.83879A4.86578,4.86578,0,0,1,1498.36556,720.45745Zm-5.18075-6.33811a3.32581,3.32581,0,1,0,4.68008.47043A3.32961,3.32961,0,0,0,1493.18481,714.11934Z"/><circle class="cls-29" cx="1505.22117" cy="678.12674" r="4.09305" transform="translate(-89.40457 1105.57894) rotate(-39.25816)"/><path class="cls-28" d="M1508.29723,681.88991a4.86043,4.86043,0,1,1,.68734-6.8392A4.86571,4.86571,0,0,1,1508.29723,681.88991Zm-5.18075-6.33807a3.32549,3.32549,0,1,0,4.67962.47043A3.32966,3.32966,0,0,0,1503.11648,675.55184Z"/><circle class="cls-29" cx="1525.94524" cy="668.57229" r="4.09302" transform="translate(-78.64587 1116.66285) rotate(-39.26265)"/><circle class="cls-29" cx="1468.12104" cy="724.26906" r="4.0932" transform="translate(-126.96167 1092.58442) rotate(-39.26063)"/><path class="cls-28" d="M1471.1971,728.03212a4.86044,4.86044,0,1,1,.68734-6.8392A4.86634,4.86634,0,0,1,1471.1971,728.03212Zm-5.1808-6.33807a3.32567,3.32567,0,1,0,4.67962.47043A3.3297,3.3297,0,0,0,1466.0163,721.694Z"/><path class="cls-30" d="M1440.00855,666.88933h36.43937a2.2686,2.2686,0,0,1,2.2686,2.2686v3.95157a2.2695,2.2695,0,0,1-2.2695,2.2695h-36.43847a2.2695,2.2695,0,0,1-2.2695-2.2695v-3.95067A2.2695,2.2695,0,0,1,1440.00855,666.88933Z"/><path class="cls-30" d="M1440.00755,652.04909h36.44037a2.2686,2.2686,0,0,1,2.2686,2.2686v3.95166a2.2685,2.2685,0,0,1-2.2685,2.2685h-36.43947a2.2695,2.2695,0,0,1-2.2695-2.2695v-3.95076A2.2685,2.2685,0,0,1,1440.00755,652.04909Z"/><path class="cls-28" d="M1529.02116,672.33557a4.86043,4.86043,0,1,1,.68738-6.8392A4.86573,4.86573,0,0,1,1529.02116,672.33557Zm-5.1803-6.33807a3.32549,3.32549,0,1,0,4.67962.47039A3.32925,3.32925,0,0,0,1523.84086,665.9975Z"/><polygon class="cls-28" points="1445.117 793.158 1444.194 792.495 1460.365 769.976 1481.242 770.429 1496.143 744.892 1513.016 742.595 1522.535 722.143 1523.565 722.622 1513.784 743.637 1496.846 745.943 1481.886 771.58 1460.938 771.125 1445.117 793.158"/><circle class="cls-29" cx="1481.56394" cy="771.00463" r="3.02965" transform="translate(-183.9302 646.06814) rotate(-23.20244)"/><path class="cls-28" d="M1482.981,774.31108a3.5973,3.5973,0,1,1,1.88968-4.72368A3.602,3.602,0,0,1,1482.981,774.31108Zm-2.38679-5.56876a2.4614,2.4614,0,1,0,3.23228,1.29275A2.46413,2.46413,0,0,0,1480.5942,768.74232Z"/><circle class="cls-29" cx="1496.52504" cy="745.60708" r="3.02936" transform="translate(-172.71085 649.85389) rotate(-23.20057)"/><path class="cls-28" d="M1497.94239,748.91378a3.59762,3.59762,0,1,1,1.88922-4.72373A3.60163,3.60163,0,0,1,1497.94239,748.91378Zm-2.38679-5.56922a2.46151,2.46151,0,1,0,3.23182,1.29275A2.46383,2.46383,0,0,0,1495.55559,743.34457Z"/><circle class="cls-29" cx="1513.22151" cy="743.055" r="3.02935" transform="translate(-170.35463 656.21345) rotate(-23.20018)"/><circle class="cls-29" cx="1460.68909" cy="770.82858" r="3.02935" transform="translate(-185.54396 637.76451) rotate(-23.20018)"/><path class="cls-28" d="M1462.10649,774.13514a3.59741,3.59741,0,1,1,1.88922-4.72373A3.60143,3.60143,0,0,1,1462.10649,774.13514Zm-2.38684-5.56876a2.4613,2.4613,0,1,0,3.23187,1.29275A2.46363,2.46363,0,0,0,1459.71965,768.56638Z"/><path class="cls-28" d="M1514.63886,746.36127a3.59741,3.59741,0,1,1,1.88922-4.72373A3.60124,3.60124,0,0,1,1514.63886,746.36127Zm-2.38679-5.56876a2.4613,2.4613,0,1,0,3.23187,1.29316A2.464,2.464,0,0,0,1512.25207,740.79251Z"/><path class="cls-31" d="M1417.28193,632.71767s4.32551-1.35688,4.67428-3.921c.29623-2.18011,2.2536-4.78344,2.855-5.58573.80407-1.07356,2.04468-5.28809,3.40827-4.2876,1.364,1.00053-1.71059,7.04639-2.10215,8.44291-.39111,1.39652,5.52511-1.26109,6.98932-.89539,1.46381.36575,5.31,10.41456,1.0384,11.76875s-9.729-.01916-10.43281.368a27.47162,27.47162,0,0,1-3.06879,1.10832Z"/><path class="cls-31" d="M1432.03445,626.55153s13.3528-3.27685,14.4255-2.75031,1.20722,1.26068-.02851,1.61881c-1.23527.35858-12.80938,3.53968-12.80938,3.53968s16.45549-1.22282,17.42883-.98361c.56978.1399.915,1.54578.27132,1.79881s-16.8845,2.39747-16.8845,2.39747,15.36632-1.11366,16.12094-.67087a1.06039,1.06039,0,0,1-.48065,1.91732c-1.13369.16125-15.33781,2.001-15.33781,2.001s11.23555-.10692,11.65248.64323c.25527.4593.61029,1.66027-2.28968,1.59746-2.90043-.06327-9.75706.50693-9.75706.50693Z"/><path class="cls-32" d="M1353.85521,618.32288s3.46775,6.12071,8.10435,13.004c.42856.633.86465,1.274,1.30835,1.91508l.00269.00757q.90675,1.305,1.84689,2.60908c.74883,1.03484,1.51325,2.06206,2.28566,3.063,4.30055,5.5777,8.82691,10.31922,12.26058,11.16516,7.43481,1.82864,44.78665-6.45211,44.78665-6.45211l-2.88706-14.68569s-13.09626,4.45825-21.847,5.18878c-5.36741.44639-12.061,2.20953-12.85436,1.71059-.796-.49712-16.11469-22.59312-17.20742-24.97636-1.09542-2.385-5.99239-11.73755-10.16687-16.206-4.172-4.47157-8.71154-2.769-8.71154-2.769C1338.26081,600.04367,1353.85521,618.32288,1353.85521,618.32288Z"/><path class="cls-33" d="M1356.87059,693.521s6.06766,44.07345,8.54536,58.97248c2.89728,17.4204,3.88,31.81428,4.68765,40.83095,1.01654,11.3411,2.36494,69.3781,3.07637,72.69418s-17.67338,1.59208-17.67338,1.59208-9.63034-75.66052-12.65748-87.73886c-2.81868-11.24581-11.02526-59.82157-13.59716-56.751-2.57167,3.07107-13.56843,58.4963-15.473,67.36554-1.90459,8.86965-12.557,80.00295-12.557,80.00295s-11.40506,2.06872-18.31889-1.42015c0,0,5.36162-62.2164,6.57527-78.84563.46241-6.3372,1.59121-75.96254,12.30733-104.00195C1307.44907,671.40368,1356.87059,693.521,1356.87059,693.521Z"/><path class="cls-32" d="M1339.06844,587.81918s16.05571,3.32,17.96071,5.007c2.06808,1.79612,5.71532,19.38087,5.93318,24.27921s-1.93556,25.36035-4.00364,32.98c-2.06831,7.61969-1.31747,45.10336-.01136,55.6627,0,0-23.78962,10.65463-63.94947.98448,0,0,6.99224-34.75613,5.72-45.19737-1.62976-13.376-4.83553-46.20238-4.83553-46.20238s-.09912-20.0807,2.73092-22.47552c2.83027-2.39482,23.6598-5.0382,23.6598-5.0382Z"/><path class="cls-32" d="M1307.68294,591.89521s10.05752,2.76987,4.52416,21.23c-4.33417,14.45848-4.91928,17.5629-4.91928,17.5629l-23.20807-5.79684s5.93825-30.54334,17.05018-33.1698C1301.12993,591.72146,1305.52491,590.92054,1307.68294,591.89521Z"/><path class="cls-34" d="M1361.95957,631.3269c.42856.633.86465,1.274,1.30835,1.91508l.00269.00757q.90675,1.305,1.84689,2.60908c.47308-8.59614-1.78631-20.52573-1.78631-20.52573C1363.76463,619.32875,1361.95957,631.3269,1361.95957,631.3269Z"/><path class="cls-32" d="M1340.22822,585.48051s-9.92474,2.91867-18.2387-.51673l-.57421,4.06531s11.15025,4.23546,19.86353,2.29593Z"/><path class="cls-31" d="M1283.318,705.17173s.84754,5.195,1.54893,6.1697a45.12129,45.12129,0,0,1,2.71354,6.51538c.18064.68154,1.25489,5.56566,1.44328,6.18485s-1.21812,1.54-2.12774.21781a40.857,40.857,0,0,1-1.89971-5.01636c-.39088-1.02457-1.5903-4.26671-1.95381-3.69113-.36369.57508-.39667,4.87873-.48444,5.98259a36.03653,36.03653,0,0,0,.813,5.94249c.29107,1.41751,2.00212,7.37158,1.24262,7.66913s-1.39256.19291-2.318-1.41833c0,0-1.55955.81784-2.4024-1.1502,0,0-1.38781.45971-2.16962-2.09636a3.40848,3.40848,0,0,1-1.31569-1.48164c-.3537-.919-2.36786-8.74448-2.26208-11.91176.10583-3.16637.90921-5.35314.83527-7.5925a59.71953,59.71953,0,0,0-1.08916-7.05173Z"/><path class="cls-32" d="M1286.05829,710.65542a62.1319,62.1319,0,0,1-13.49649.2076s4.50633-51.20181,4.27492-54.0938c-.21385-2.67677,10.337-50.24849,16.13253-57.457l8.81641,27.82556c-.67087-.21471-9.596,28.37573-9.71938,31.32027C1291.90033,662.40435,1286.05829,710.65542,1286.05829,710.65542Z"/><path class="cls-35" d="M1347.24318,551.66119a46.43151,46.43151,0,0,0-.77889-13.93992c-.95442-3.75353-7.02787-2.72357-7.02787-2.72357l.00041.00178c-9.26276-2.77526-14.84644-1.49857-18.35451.00356-5.25337,4.3032-5.65251,11.62844-5.4133,15.663.10492.95464.21453,1.91595.32209,2.85144a.273.273,0,0,0,.00447.02892c.47486,4.01053.958,7.50031.958,7.50031l1.66958,1.92754s-.429-6.68064.59807-7.05615c.55213-.20272.68464-1.5507.688-2.75432.00643-1.03438-.08421-1.96275-.08421-1.96275,10.71143-4.93128,22.73791-1.41833,23.00672-.73587.16818.42673.41364,1.70922.65326,2.8456.14615.68825.28825,1.32395.40917,1.683.31853.94707.19533,6.976.19533,6.976l2.08769-2.72718s.26594-1.30164.609-3.26033h0l.00023-.00046c.11135-.637.231-1.3422.35211-2.0959C1347.13849,553.88586,1347.22872,553.0328,1347.24318,551.66119Z"/><path class="cls-31" d="M1807.98528,675.05549a46,46,0,0,0,5.25561.76931c1.69987.05392,9.56415-3.5125,12.08058-3.17262s18.9296,7.31278,19.67442,7.821c.74482.50875-.35014,1.63-.35014,1.63l-37.68017.44635Z"/><rect class="cls-36" x="1719.22271" y="751.42032" width="6.29665" height="79.47773"/><path class="cls-31" d="M1770.91365,629.18146s1.75643-6.23028,1.9284-7.04192c.172-.8121,1.834-2.42511,3.90406-4.11166,2.07009-1.68564,5.62131-3.03718,6.06146-2.90043a2.33071,2.33071,0,0,1,1.67227,1.00364,4.49094,4.49094,0,0,1,.825,2.12044,2.73035,2.73035,0,0,1,1.44643,2.20283,2.37673,2.37673,0,0,1,1.05888,2.42374,1.99041,1.99041,0,0,1,.97554,1.96631,18.066,18.066,0,0,0-2.10612,2.3966c-.44238.77734-4.13351,3.9094-8.13555,6.3679C1778.544,633.60891,1773.43588,637.38069,1770.91365,629.18146Z"/><path class="cls-37" d="M1709.332,639.89357c2.483-4.0212,5.79415-5.83114,16.31426,1.44465,10.52011,7.27533,8.0487,5.85076,10.56733,8.15645s13.556,8.07543,13.556,8.07543,6.44723-6.41028,9.53965-10.96382c3.48531-5.13176,10.76069-18.84228,10.76069-18.84228l10.20071,7.59428s-19.81832,35.93037-23.95671,38.5862c-4.1388,2.65588-16.61095-1.78585-23.10361-4.52234-6.49312-2.73607-13.36708-6.27485-16.33169-7.01076C1713.91364,661.6755,1702.85631,650.37938,1709.332,639.89357Z"/><path class="cls-38" d="M1782.24759,615.54885s-5.14244,4.40168-4.5357,5.31756a1.72181,1.72181,0,0,0,1.38494.88467l-1.295,2.7717s.17909,2.3191,2.65278,1.44688c0,0-.05748,2.18276,2.23088,1.05619,0,0,.605,1.45756,1.75693,1.12256s4.34325-3.304,4.34325-3.304.392-.92969-.97554-1.96631a2.33685,2.33685,0,0,0-1.05888-2.42374,2.56832,2.56832,0,0,0-1.44643-2.20283s-.06058-2.94723-2.49728-3.12408C1782.80757,615.12745,1782.46276,615.36224,1782.24759,615.54885Z"/><path class="cls-39" d="M1758.36934,661.71647s2.07273-7.50743-.368-13.31854c0,0,.92837,6.016-1.70657,10.29381C1754.38641,661.79132,1758.36934,661.71647,1758.36934,661.71647Z"/><path class="cls-31" d="M1837.19532,745.21184s-9.4091,21.16676-16.124,36.27381c-1.12748,2.54316-2.181,4.91217-3.10091,6.98-1.07667,2.42333-1.97073,4.4306-2.58591,5.81778-4.27423,9.6167-14.789,30.58654-14.789,30.58654s-7.911.302-8.36943-6.41557c0,0,7.59031-14.55427,7.59031-24.78035,0-10.22922,1.37248-40.35472,11.14286-46.86745C1822.874,738.864,1830.61138,737.36052,1837.19532,745.21184Z"/><path class="cls-31" d="M1750.20126,704.97832a10.9333,10.9333,0,0,0,3.66353,2.4429c1.67939.45794,29.76824,2.5953,42.74416,6.86954s30.22617,7.0223,33.43223,10.68625c3.20555,3.66353,8.54892,23.81462,8.39611,27.63046-.15281,3.81675,11.403,68.13216,12.84323,73.15079.76306,2.66122-10.45152,1.642-10.45152,1.642s-15.9334-38.00355-19.33679-45.02408c-6.253-12.89934-6.56437-28.69955-8.854-31.1425-2.29013-2.442-27.78368-7.93818-42.439-7.93818-14.65494,0-47.47638,1.22145-50.98755-.7631s-25.49355-16.48714-16.33433-35.87467C1712.03692,687.27014,1750.20126,704.97832,1750.20126,704.97832Z"/><path class="cls-32" d="M1813.45916,719.16817l-23.11743,44.43162s-7.00274-16.60205-19.22139-19.45974c-12.21911-2.85723-60.98158-1.3239-60.98158-1.3239s-22.37617-28.30621-3.21444-43.15493c19.16168-14.84827,41.53877,2.33689,41.53877,2.33689s4.623,5.01061,6.85927,5.122S1775.39858,706.97757,1813.45916,719.16817Z"/><path class="cls-31" d="M1737.64272,608.21161s-.43613,1.41523-.93147,3.5156c-.25349,1.07356-.52212,2.32444-.75553,3.6555-.64282,3.68442-1.02056,7.98986-.06592,10.85689,0,0-7.83663,2.71555-14.0286-8.36053,0,0,2.659-11.93356-.79649-19.16925C1717.60969,591.47637,1737.64272,608.21161,1737.64272,608.21161Z"/><path class="cls-40" d="M1736.8939,611.21139c-.25349,1.07356-.70476,2.84026-.93818,4.17132a25.24,25.24,0,0,1-9.73119-12.40176A124.99322,124.99322,0,0,0,1736.8939,611.21139Z"/><path class="cls-37" d="M1757.95684,654.058c-1.65,7.64509-5.9902,8.046-5.72691,13.69319s1.9498,6.13271-.97111,15.0367a43.7464,43.7464,0,0,0-1.33376,5.27518c-.04051.21649-.08416.4339-.12161.65217-.19022,1.02813-.35188,2.063-.49356,3.08576-.25969,1.89054-.44681,3.73611-.57686,5.42-.34435,4.39407,2.8924,7.78764,2.8924,7.78764s-28.57393,17.11924-48.1909,14.71639c0,0,5.07917-21.34763,7.87582-28.67907,2.79665-7.33235,1.95249-41.21713-.10555-48.488-3.03677-10.73081,3.03-26.81882,11.32414-28.9134l12.85974,5.9559s12.95412,15.46923,15.85988,17.80348C1754.15254,639.74167,1759.63135,646.30517,1757.95684,654.058Z"/><path class="cls-37" d="M1715.44961,622.73377c3.63146-3.02382,8.88662-8.201,16.5526,2.03847,7.66558,10.23944,13.24282,16.83857,14.899,19.825,1.65626,2.986,16.06616,23.78784,16.06616,23.78784s14.10655,1.511,19.57866,2.1053c6.90831.74969,31.37906,3.12627,31.37906,3.12627l.68378,10.4016s-43.17272.22452-47.94056,1.429-18.12151-10.81009-23.40919-15.46654c-5.28813-4.656-20.12659-21.61266-22.70452-23.25195C1717.97676,645.08992,1705.97993,630.62118,1715.44961,622.73377Z"/><path class="cls-40" d="M1821.07127,781.48565c-1.12748,2.54316-2.181,4.91217-3.10091,6.98-3.4599-11.12594-3.17526-29.72148-3.17526-29.72148A105.694,105.694,0,0,0,1821.07127,781.48565Z"/><rect class="cls-41" x="1672.08667" y="742.81615" width="99.03367" height="10.89872"/><path class="cls-42" d="M1723.619,708.05291s-2.49641,10.09694,9.259,12.3915c11.75584,2.2946,26.21209,5.22354,26.21209,23.358h-40.77033Z"/><path class="cls-43" d="M1672.08667,753.71488l-34.622-145.51038s62.59145-9.77886,70.04856,18.32911,19.72431,111.598,34.63849,116.76006C1757.06633,748.45662,1672.08667,753.71488,1672.08667,753.71488Z"/><path class="cls-39" d="M1752.59344,677.92964s-.63748,2.67057-1.31816,4.8796L1736.04659,663.06Z"/><polygon class="cls-37" points="1736.13 620.482 1736.13 617.335 1722.769 610.829 1718.146 616.169 1736.13 620.482"/><polygon class="cls-44" points="1787.753 607.31 1790.983 620.88 1792.967 629.217 1783.451 633.022 1779.141 625.614 1772.124 613.559 1787.753 607.31"/><polygon class="cls-45" points="1790.983 620.88 1792.967 629.217 1783.451 633.022 1779.141 625.614 1790.983 620.88"/><rect class="cls-45" x="1771.46465" y="607.18566" width="15.57752" height="3.06846" transform="translate(-98.82985 704.03962) rotate(-21.79237)"/><rect class="cls-45" x="1771.20491" y="609.25925" width="17.49887" height="2.42752" transform="translate(-99.43134 704.41037) rotate(-21.79192)"/><path class="cls-31" d="M1772.91376,622.20637s3.44481-3.11605,6.07259-3.99137c.59428-.19825,1.20676-.28154,1.61484.19555.40758.47709.23474,1.67451-1.189,3.10045a16.99227,16.99227,0,0,0-2.61,3.92053S1774.9099,626.46856,1772.91376,622.20637Z"/><path class="cls-11" d="M1729.586,565.18409c-5.89756,1.31236-2.38191,16.12053-6.335,36.82443-3.95264,20.70386-16.43058,23.93974-16.43058,23.93974s5.54116-9.18015,4.93489-18.77906c-.47354-7.50031-9.55968-27.96277-.57822-41.33829,6.93855-10.33391,19.16529-.95241,19.16529-.95241Z"/><path class="cls-31" d="M1739.39026,566.38775c5.30775.35416,16.70719,4.36109,16.89563,18.55764a43.81233,43.81233,0,0,1-2.11552,6.57951c-1.25712,2.85677.38842,11.89971-.35416,12.25077a19.35539,19.35539,0,0,1-3.66887.5702s-4.18154,9.18818-7.52257,8.71953-15.7218-4.55267-20.32392-17.11568C1717.69878,583.38624,1717.958,564.95692,1739.39026,566.38775Z"/><path class="cls-11" d="M1756.28589,584.94539s-9.243,4.85155-17.88276,5.04847c-8.63984.19779-15.72094,14.04821-15.72094,14.04821s-10.46132-23.46894,1.519-35.3771C1736.14507,556.79286,1760.018,568.86632,1756.28589,584.94539Z"/><path class="cls-31" d="M1736.38337,589.91011c.14346-1.65179-1.40277-4.33349-4.35976-2.39573-2.95745,1.9378-.23433,10.18425,2.06516,9.67285C1736.38784,596.675,1736.23457,591.61714,1736.38337,589.91011Z"/><path class="cls-46" d="M1814.34921,687.49735v3.2706h155.9107v-3.2706c0-3.0479-2.0496-5.51931-4.57717-5.51931h-146.7555C1816.39922,681.978,1814.34921,684.44945,1814.34921,687.49735Z"/><rect class="cls-47" x="1895.51121" y="590.2473" width="3.66444" height="81.22353"/><path class="cls-48" d="M1904.49581,681.978h27.418V680.316h-27.418a3.95758,3.95758,0,0,1-3.05675-1.00984,2.69334,2.69334,0,0,1-.60942-1.9066l.00671-.05259-.00046-.04676v-35.4301h-1.66205v35.38955a4.35463,4.35463,0,0,0,1.00541,3.13074A5.48067,5.48067,0,0,0,1904.49581,681.978Z"/><path class="cls-47" d="M1865.21246,679.06826h30.86183a0,0,0,0,1,0,0v.81386a2.09591,2.09591,0,0,1-2.09591,2.09591h-28.76591a0,0,0,0,1,0,0v-2.90978A0,0,0,0,1,1865.21246,679.06826Z" transform="translate(3761.28674 1361.0463) rotate(-180)"/><path class="cls-49" d="M1880.50215,690.76795h89.75777v-3.2706c0-3.0479-2.10931-5.51931-4.71082-5.51931h-70.99385Z"/></svg>