<svg id="Layer_1" data-name="Layer 1" xmlns="http://www.w3.org/2000/svg" xmlns:xlink="http://www.w3.org/1999/xlink" viewBox="0 0 1024 325"><defs><style>.cls-1,.cls-29,.cls-72{fill:none;}.cls-1{clip-rule:evenodd;}.cls-2,.cls-3{fill:#e81f64;}.cls-2{opacity:0.07;}.cls-3{opacity:0.29;}.cls-4{fill:url(#linear-gradient);}.cls-5{fill:#fff;}.cls-6{fill:url(#linear-gradient-2);}.cls-7{fill:url(#linear-gradient-3);}.cls-8{fill:#bcd0e9;}.cls-9{fill:url(#linear-gradient-4);}.cls-10{fill:url(#linear-gradient-5);}.cls-11{fill:url(#linear-gradient-6);}.cls-12{fill:url(#linear-gradient-7);}.cls-13{fill:url(#linear-gradient-8);}.cls-14{fill:url(#linear-gradient-9);}.cls-15{fill:url(#linear-gradient-10);}.cls-16{fill:url(#linear-gradient-11);}.cls-17{fill:url(#linear-gradient-12);}.cls-18{fill:#afc2dc;}.cls-19{fill:url(#linear-gradient-13);}.cls-20{fill:url(#linear-gradient-14);}.cls-21{fill:url(#linear-gradient-15);}.cls-22{fill:url(#linear-gradient-16);}.cls-23{fill:url(#linear-gradient-17);}.cls-24{fill:url(#linear-gradient-18);}.cls-25{fill:url(#linear-gradient-19);}.cls-26{fill:url(#linear-gradient-20);}.cls-27{fill:url(#linear-gradient-21);}.cls-28{fill:url(#linear-gradient-22);}.cls-29{stroke:#6a7eb7;stroke-width:1.48px;}.cls-29,.cls-72{stroke-miterlimit:10;}.cls-30{fill:url(#linear-gradient-23);}.cls-31{opacity:0.5;fill:url(#linear-gradient-24);}.cls-32{fill:#f2f5f7;}.cls-33{fill:#c6d2db;}.cls-34{fill:#dde3e8;}.cls-35{fill:url(#linear-gradient-25);}.cls-36{fill:#274170;}.cls-37{fill:url(#linear-gradient-26);}.cls-38{fill:url(#linear-gradient-27);}.cls-39{fill:url(#linear-gradient-28);}.cls-40{fill:#596367;}.cls-41{fill:url(#linear-gradient-29);}.cls-42{fill:url(#linear-gradient-30);}.cls-43{fill:#e26b47;}.cls-44{fill:url(#linear-gradient-31);}.cls-45{fill:url(#linear-gradient-32);}.cls-46{fill:url(#linear-gradient-33);}.cls-47{fill:url(#linear-gradient-34);}.cls-48{fill:url(#linear-gradient-35);}.cls-49{fill:#35406b;}.cls-50{fill:url(#linear-gradient-36);}.cls-51{fill:url(#linear-gradient-37);}.cls-52{fill:url(#linear-gradient-38);}.cls-53{fill:url(#linear-gradient-39);}.cls-54{fill:url(#linear-gradient-40);}.cls-55{fill:url(#linear-gradient-41);}.cls-56{fill:url(#linear-gradient-42);}.cls-57{fill:url(#linear-gradient-43);}.cls-58{fill:url(#linear-gradient-44);}.cls-59{fill:url(#linear-gradient-45);}.cls-60{fill:url(#linear-gradient-46);}.cls-61{fill:url(#linear-gradient-47);}.cls-62{fill:url(#linear-gradient-48);}.cls-63{fill:url(#linear-gradient-49);}.cls-64{fill:url(#linear-gradient-50);}.cls-65{fill:url(#linear-gradient-51);}.cls-66{fill:url(#linear-gradient-52);}.cls-67{fill:url(#linear-gradient-53);}.cls-68{fill:#f2b64b;}.cls-69{fill:url(#linear-gradient-54);}.cls-70{fill:url(#linear-gradient-55);}.cls-71{fill:url(#linear-gradient-56);}.cls-72{stroke:#3d52a3;stroke-width:0.49px;}.cls-73{fill:#bfc9d8;}.cls-74{fill:url(#linear-gradient-57);}.cls-75{fill:url(#linear-gradient-58);}.cls-76{fill:url(#linear-gradient-59);}.cls-77{fill:url(#linear-gradient-60);}.cls-78{fill:#733c39;}.cls-79{fill:url(#linear-gradient-61);}.cls-80{fill:url(#linear-gradient-62);}.cls-81{fill:url(#linear-gradient-63);}.cls-82{fill:url(#linear-gradient-64);}.cls-83{fill:url(#linear-gradient-65);}.cls-84{fill:url(#linear-gradient-66);}.cls-85{fill:#849dba;}.cls-86{fill:url(#linear-gradient-67);}.cls-87{fill:url(#linear-gradient-68);}.cls-88{fill:url(#linear-gradient-69);}.cls-89{fill:#2b3351;}.cls-90{fill:url(#linear-gradient-70);}.cls-91{fill:#35538c;}.cls-92{fill:url(#linear-gradient-71);}.cls-93{opacity:0.82;fill:url(#linear-gradient-72);}.cls-94{opacity:0.74;fill:url(#linear-gradient-73);}.cls-95{fill:url(#linear-gradient-74);}.cls-96{fill:url(#linear-gradient-75);}.cls-97{fill:url(#linear-gradient-76);}.cls-98{fill:#5467a3;}.cls-99{fill:#edeef8;}.cls-100,.cls-101,.cls-103,.cls-104,.cls-105,.cls-106,.cls-107,.cls-108,.cls-109,.cls-113,.cls-114,.cls-120,.cls-121,.cls-122,.cls-123,.cls-124,.cls-99{fill-rule:evenodd;}.cls-100{fill:#d7d7ec;}.cls-101,.cls-102{fill:#3d3d6d;}.cls-103,.cls-117{fill:#57558d;}.cls-104{fill:#48477d;}.cls-105,.cls-115{fill:#f9fcfd;}.cls-106,.cls-118{fill:#fbd15b;}.cls-107{fill:#eabc4e;}.cls-108,.cls-119{fill:#fbc7b0;}.cls-109{fill:#eb827d;}.cls-110{fill:#8dc6ec;}.cls-111{fill:#8689c3;}.cls-112{fill:#acafd8;}.cls-113{fill:#bee1f3;}.cls-114{fill:#112c46;}.cls-116{fill:#a5b8c6;}.cls-120{fill:#dce6ea;}.cls-121{fill:#de7070;}.cls-122{fill:#d66565;}.cls-123{fill:#5f6ab1;}.cls-124{fill:#3e4ca0;}.cls-125{clip-path:url(#clip-path);}.cls-126{fill:#b4b1d8;}</style><linearGradient id="linear-gradient" x1="219.09" y1="181.31" x2="274.58" y2="95.22" gradientUnits="userSpaceOnUse"><stop offset="0" stop-color="#c5d3ec"/><stop offset="1" stop-color="#ebf0f9"/></linearGradient><linearGradient id="linear-gradient-2" x1="258.46" y1="133.3" x2="268" y2="133.3" gradientUnits="userSpaceOnUse"><stop offset="0" stop-color="#94aacc"/><stop offset="1" stop-color="#afc2dc"/></linearGradient><linearGradient id="linear-gradient-3" x1="271.01" y1="131.13" x2="305.29" y2="131.13" xlink:href="#linear-gradient-2"/><linearGradient id="linear-gradient-4" x1="258.46" y1="148.61" x2="268" y2="148.61" xlink:href="#linear-gradient-2"/><linearGradient id="linear-gradient-5" x1="271.01" y1="146.46" x2="305.29" y2="146.46" xlink:href="#linear-gradient-2"/><linearGradient id="linear-gradient-6" x1="258.46" y1="164.17" x2="268" y2="164.17" xlink:href="#linear-gradient-2"/><linearGradient id="linear-gradient-7" x1="271.01" y1="161.93" x2="302.58" y2="161.93" xlink:href="#linear-gradient-2"/><linearGradient id="linear-gradient-8" x1="251.96" y1="78.74" x2="251.96" y2="71.2" gradientUnits="userSpaceOnUse"><stop offset="0" stop-color="#293054"/><stop offset="1" stop-color="#5467a3"/></linearGradient><linearGradient id="linear-gradient-9" x1="246.67" y1="111.53" x2="264.15" y2="95.38" xlink:href="#linear-gradient-2"/><linearGradient id="linear-gradient-10" x1="275.02" y1="83.55" x2="262.97" y2="96.81" gradientUnits="userSpaceOnUse"><stop offset="0" stop-color="#f6905d"/><stop offset="1" stop-color="#f5ce65"/></linearGradient><linearGradient id="linear-gradient-11" x1="280.74" y1="90.1" x2="302.99" y2="90.1" xlink:href="#linear-gradient-2"/><linearGradient id="linear-gradient-12" x1="280.74" y1="100.03" x2="306.57" y2="100.03" xlink:href="#linear-gradient-2"/><linearGradient id="linear-gradient-13" x1="202.1" y1="141.2" x2="227.7" y2="141.2" xlink:href="#linear-gradient-2"/><linearGradient id="linear-gradient-14" x1="206.78" y1="141.46" x2="206.78" y2="134.9" xlink:href="#linear-gradient-10"/><linearGradient id="linear-gradient-15" x1="212.35" y1="140.87" x2="212.45" y2="132.44" xlink:href="#linear-gradient-10"/><linearGradient id="linear-gradient-16" x1="217.98" y1="140.94" x2="218.08" y2="132.51" xlink:href="#linear-gradient-10"/><linearGradient id="linear-gradient-17" x1="223.55" y1="141.01" x2="223.66" y2="132.58" xlink:href="#linear-gradient-10"/><linearGradient id="linear-gradient-18" x1="202.1" y1="170.73" x2="227.7" y2="170.73" xlink:href="#linear-gradient-2"/><linearGradient id="linear-gradient-19" x1="206.73" y1="170.67" x2="206.84" y2="162.24" xlink:href="#linear-gradient-10"/><linearGradient id="linear-gradient-20" x1="212.36" y1="170.74" x2="212.47" y2="162.31" xlink:href="#linear-gradient-10"/><linearGradient id="linear-gradient-21" x1="217.95" y1="170.81" x2="218.05" y2="162.38" xlink:href="#linear-gradient-10"/><linearGradient id="linear-gradient-22" x1="223.55" y1="170.88" x2="223.66" y2="162.44" xlink:href="#linear-gradient-10"/><linearGradient id="linear-gradient-23" x1="253.41" y1="57.76" x2="252.14" y2="54.16" xlink:href="#linear-gradient-8"/><linearGradient id="linear-gradient-24" x1="72.48" y1="173.86" x2="142.91" y2="108.4" gradientUnits="userSpaceOnUse"><stop offset="0" stop-color="#94aacc"/><stop offset="1" stop-color="#c2d3e9"/></linearGradient><linearGradient id="linear-gradient-25" x1="157.39" y1="149.33" x2="182.98" y2="149.33" gradientUnits="userSpaceOnUse"><stop offset="0" stop-color="#8a463f"/><stop offset="1" stop-color="#9b503f"/></linearGradient><linearGradient id="linear-gradient-26" x1="191.84" y1="218.17" x2="179.94" y2="253.73" gradientUnits="userSpaceOnUse"><stop offset="0" stop-color="#f27643"/><stop offset="1" stop-color="#f9b35c"/></linearGradient><linearGradient id="linear-gradient-27" x1="143.44" y1="255.32" x2="194.76" y2="255.32" gradientUnits="userSpaceOnUse"><stop offset="0" stop-color="#5b768e"/><stop offset="1" stop-color="#849eba"/></linearGradient><linearGradient id="linear-gradient-28" x1="166.38" y1="236.3" x2="171.82" y2="236.3" gradientUnits="userSpaceOnUse"><stop offset="0" stop-color="#536a7a"/><stop offset="1" stop-color="#668193"/></linearGradient><linearGradient id="linear-gradient-29" x1="169.92" y1="237.77" x2="163.51" y2="174.09" xlink:href="#linear-gradient-27"/><linearGradient id="linear-gradient-30" x1="191.54" y1="236.41" x2="211.67" y2="234.56" xlink:href="#linear-gradient-26"/><linearGradient id="linear-gradient-31" x1="167.51" y1="219.99" x2="174.29" y2="201.46" gradientUnits="userSpaceOnUse"><stop offset="0" stop-color="#9ab2dd"/><stop offset="1" stop-color="#c7d5ed"/></linearGradient><linearGradient id="linear-gradient-32" x1="185.43" y1="193.47" x2="193.9" y2="175.06" xlink:href="#linear-gradient-26"/><linearGradient id="linear-gradient-33" x1="159.52" y1="197.03" x2="180.09" y2="172.17" xlink:href="#linear-gradient-8"/><linearGradient id="linear-gradient-34" x1="159.62" y1="208.71" x2="174.76" y2="170.3" gradientUnits="userSpaceOnUse"><stop offset="0" stop-color="#293054"/><stop offset="1" stop-color="#293054" stop-opacity="0"/></linearGradient><linearGradient id="linear-gradient-35" x1="146.78" y1="194.27" x2="180.45" y2="179.36" xlink:href="#linear-gradient-26"/><linearGradient id="linear-gradient-36" x1="203.07" y1="197.42" x2="212.37" y2="197.42" xlink:href="#linear-gradient-26"/><linearGradient id="linear-gradient-37" x1="160.29" y1="227.23" x2="177.91" y2="227.23" xlink:href="#linear-gradient-28"/><linearGradient id="linear-gradient-38" x1="162.62" y1="229.69" x2="175.58" y2="229.69" xlink:href="#linear-gradient-27"/><linearGradient id="linear-gradient-39" x1="192.56" y1="267.67" x2="196.7" y2="267.67" xlink:href="#linear-gradient-28"/><linearGradient id="linear-gradient-40" x1="141.36" y1="267.67" x2="145.51" y2="267.67" xlink:href="#linear-gradient-28"/><linearGradient id="linear-gradient-41" x1="158.52" y1="158.89" x2="178.44" y2="152.99" xlink:href="#linear-gradient-26"/><linearGradient id="linear-gradient-42" x1="69.12" y1="254.49" x2="120.44" y2="254.49" xlink:href="#linear-gradient-27"/><linearGradient id="linear-gradient-43" x1="92.06" y1="235.99" x2="97.5" y2="235.99" xlink:href="#linear-gradient-28"/><linearGradient id="linear-gradient-44" x1="96.2" y1="231.24" x2="89.06" y2="179.8" xlink:href="#linear-gradient-27"/><linearGradient id="linear-gradient-45" x1="85.97" y1="226.92" x2="101.46" y2="226.92" xlink:href="#linear-gradient-28"/><linearGradient id="linear-gradient-46" x1="88.3" y1="229.38" x2="101.26" y2="229.38" xlink:href="#linear-gradient-27"/><linearGradient id="linear-gradient-47" x1="117.33" y1="266.58" x2="121.74" y2="266.58" xlink:href="#linear-gradient-28"/><linearGradient id="linear-gradient-48" x1="67.56" y1="266.58" x2="71.97" y2="266.58" xlink:href="#linear-gradient-28"/><linearGradient id="linear-gradient-49" x1="326.18" y1="237.15" x2="340.1" y2="237.15" xlink:href="#linear-gradient-26"/><linearGradient id="linear-gradient-50" x1="344.94" y1="237.11" x2="355.2" y2="237.11" xlink:href="#linear-gradient-26"/><linearGradient id="linear-gradient-51" x1="359.06" y1="184.69" x2="330.56" y2="194.82" xlink:href="#linear-gradient-8"/><linearGradient id="linear-gradient-52" x1="345.42" y1="175.53" x2="335.62" y2="138.53" gradientUnits="userSpaceOnUse"><stop offset="0" stop-color="#c7d5ed"/><stop offset="1" stop-color="#e6ebf3"/></linearGradient><linearGradient id="linear-gradient-53" x1="346.98" y1="99.36" x2="356.44" y2="99.36" gradientUnits="userSpaceOnUse"><stop offset="0" stop-color="#2a3a68"/><stop offset="1" stop-color="#3e659e"/></linearGradient><linearGradient id="linear-gradient-54" x1="340.49" y1="109.67" x2="345.4" y2="97.2" xlink:href="#linear-gradient-53"/><linearGradient id="linear-gradient-55" x1="347.55" y1="127.97" x2="335.8" y2="111.25" xlink:href="#linear-gradient-26"/><linearGradient id="linear-gradient-56" x1="316.55" y1="151.58" x2="296.1" y2="126.39" xlink:href="#linear-gradient-26"/><linearGradient id="linear-gradient-57" x1="521.86" y1="151.41" x2="500.17" y2="129.04" gradientTransform="matrix(1.08, -0.01, -0.01, 1, -214.88, 24.71)" gradientUnits="userSpaceOnUse"><stop offset="0" stop-color="#849ecd"/><stop offset="1" stop-color="#aabfe3"/></linearGradient><linearGradient id="linear-gradient-58" x1="358.14" y1="155.72" x2="332.57" y2="162.07" xlink:href="#linear-gradient-26"/><linearGradient id="linear-gradient-59" x1="114.82" y1="262.24" x2="120.57" y2="262.24" xlink:href="#linear-gradient-26"/><linearGradient id="linear-gradient-60" x1="127.45" y1="207.13" x2="121.57" y2="264.98" xlink:href="#linear-gradient-8"/><linearGradient id="linear-gradient-61" x1="137.29" y1="262.37" x2="143.25" y2="262.37" xlink:href="#linear-gradient-26"/><linearGradient id="linear-gradient-62" x1="88.81" y1="231.2" x2="143.25" y2="231.2" xlink:href="#linear-gradient-8"/><linearGradient id="linear-gradient-63" x1="75.95" y1="193.56" x2="99.13" y2="181.71" xlink:href="#linear-gradient-2"/><linearGradient id="linear-gradient-64" x1="79.41" y1="148.21" x2="93.01" y2="148.21" xlink:href="#linear-gradient-26"/><linearGradient id="linear-gradient-65" x1="78.14" y1="157.45" x2="86.88" y2="160.31" xlink:href="#linear-gradient-31"/><linearGradient id="linear-gradient-66" x1="73.65" y1="142" x2="95.07" y2="142" xlink:href="#linear-gradient-53"/><linearGradient id="linear-gradient-67" x1="113.94" y1="200.75" x2="123.11" y2="200.75" xlink:href="#linear-gradient-26"/><linearGradient id="linear-gradient-68" x1="79.75" y1="189.86" x2="93.79" y2="184.28" xlink:href="#linear-gradient-31"/><linearGradient id="linear-gradient-69" x1="83.43" y1="202.37" x2="121.81" y2="202.37" xlink:href="#linear-gradient-27"/><linearGradient id="linear-gradient-70" x1="46.69" y1="270.31" x2="369.24" y2="270.31" gradientUnits="userSpaceOnUse"><stop offset="0" stop-color="#ebf0f9"/><stop offset="1" stop-color="#c5d3ec"/></linearGradient><linearGradient id="linear-gradient-71" x1="192.54" y1="199.24" x2="192.87" y2="211.16" xlink:href="#linear-gradient-31"/><linearGradient id="linear-gradient-72" x1="109.23" y1="88.61" x2="131.65" y2="67.92" xlink:href="#linear-gradient-2"/><linearGradient id="linear-gradient-73" x1="117.7" y1="77.91" x2="134.88" y2="66.61" xlink:href="#linear-gradient"/><linearGradient id="linear-gradient-74" x1="127.67" y1="67.36" x2="129.03" y2="67.36" xlink:href="#linear-gradient-2"/><linearGradient id="linear-gradient-75" x1="1005.16" y1="-1292.51" x2="1006.06" y2="-1292.51" gradientTransform="matrix(1.38, 0, 0, 1, -1251.57, 1366.24)" xlink:href="#linear-gradient-2"/><linearGradient id="linear-gradient-76" x1="240.49" y1="197.14" x2="250.2" y2="173.41" xlink:href="#linear-gradient-31"/><clipPath id="clip-path"><path id="_Clipping_Path_" data-name="&lt;Clipping Path&gt;" class="cls-1" d="M931.17,260.66c-26.87,15.51-60.06,24.48-92.14,26.47-.47,0-.93.06-1.4.07q-3.56.21-7.09.29l-1.36,0h-2.86c-28.2.12-54.73-5.33-74.36-16.67-44.6-25.75-36.67-72.08,17.71-103.47s134.61-36,179.21-10.22S985.54,229.27,931.17,260.66Z"/></clipPath></defs><title>attendees</title><rect class="cls-2" y="0.23" width="1024" height="324.54"/><path class="cls-3" d="M287.14,325H-13.28a16.72,16.72,0,0,1-16.47-13.85,16.76,16.76,0,0,1-.25-2.87V-58s56.54,19.2,54.58,86.56S20.64,172.09,177.49,191.75,287.14,325,287.14,325Z"/><path class="cls-3" d="M706.86,0h300.42A16.7,16.7,0,0,1,1024,16.72V383s-56.54-19.2-54.58-86.56,3.93-143.57-152.91-163.24S706.86,0,706.86,0Z"/><rect class="cls-4" x="186.43" y="73.92" width="131.52" height="112.09"/><rect class="cls-5" x="196.82" y="120.92" width="36.16" height="25.88" rx="0.48" ry="0.48"/><rect class="cls-5" x="196.82" y="151.82" width="36.16" height="25.88" rx="0.48" ry="0.48"/><circle class="cls-6" cx="263.23" cy="133.3" r="4.77"/><path class="cls-7" d="M304.13,132.29h-32a1.17,1.17,0,0,1-1.17-1.17h0a1.17,1.17,0,0,1,1.17-1.17h32a1.17,1.17,0,0,1,1.17,1.17h0A1.17,1.17,0,0,1,304.13,132.29Z"/><path class="cls-8" d="M299.73,136.56H272a1,1,0,0,1-1-1h0a1,1,0,0,1,1-1h27.68a1,1,0,0,1,1,1h0A1,1,0,0,1,299.73,136.56Z"/><circle class="cls-9" cx="263.23" cy="148.61" r="4.77"/><path class="cls-10" d="M304.16,147.6h-32a1.14,1.14,0,0,1-1.14-1.14h0a1.14,1.14,0,0,1,1.14-1.14h32a1.14,1.14,0,0,1,1.14,1.14h0A1.14,1.14,0,0,1,304.16,147.6Z"/><rect class="cls-8" x="271.01" y="149.39" width="23.44" height="2.48" rx="1.22" ry="1.22"/><circle class="cls-11" cx="263.23" cy="164.17" r="4.77"/><path class="cls-12" d="M301.35,163.16H272.24a1.23,1.23,0,0,1-1.23-1.23h0a1.23,1.23,0,0,1,1.23-1.23h29.11a1.23,1.23,0,0,1,1.23,1.23h0A1.23,1.23,0,0,1,301.35,163.16Z"/><path class="cls-8" d="M306.45,167.43H272.12a1.11,1.11,0,0,1-1.11-1.11h0a1.11,1.11,0,0,1,1.11-1.11h34.33a1.11,1.11,0,0,1,1.11,1.11h0A1.11,1.11,0,0,1,306.45,167.43Z"/><path class="cls-13" d="M318.4,76.18H185.52a2.71,2.71,0,0,1-2.71-2.71h0a2.71,2.71,0,0,1,2.71-2.71H318.4a2.71,2.71,0,0,1,2.71,2.71h0A2.71,2.71,0,0,1,318.4,76.18Z"/><path class="cls-14" d="M274,97.9a11.91,11.91,0,0,1-22,5.72A11.67,11.67,0,0,1,250.29,99q-.06-.36-.09-.72A12.23,12.23,0,0,1,260,85.5a12,12,0,0,1,5.38.3l-3.32,11.45,11.16-3.94.08,0,0,.13A11.85,11.85,0,0,1,274,97.9Z"/><path class="cls-15" d="M275.7,90.9l-11.24,4,3.32-11.45A11.92,11.92,0,0,1,275.7,90.9Z"/><path class="cls-16" d="M301.8,91.29H281.94a1.19,1.19,0,0,1-1.19-1.19h0a1.19,1.19,0,0,1,1.19-1.19H301.8A1.19,1.19,0,0,1,303,90.1h0A1.19,1.19,0,0,1,301.8,91.29Z"/><path class="cls-8" d="M308.55,95.26H281.94a1.19,1.19,0,0,1-1.19-1.19h0a1.19,1.19,0,0,1,1.19-1.19h26.62a1.19,1.19,0,0,1,1.19,1.19h0A1.19,1.19,0,0,1,308.55,95.26Z"/><path class="cls-17" d="M305.37,101.22H281.94a1.19,1.19,0,0,1-1.19-1.19h0a1.19,1.19,0,0,1,1.19-1.19h23.44a1.19,1.19,0,0,1,1.19,1.19h0A1.19,1.19,0,0,1,305.37,101.22Z"/><path class="cls-8" d="M311.33,105.2h-29.4a1.19,1.19,0,0,1-1.19-1.19h0a1.19,1.19,0,0,1,1.19-1.19h29.4a1.19,1.19,0,0,1,1.19,1.19h0A1.19,1.19,0,0,1,311.33,105.2Z"/><rect class="cls-18" x="192.76" y="85.22" width="9.49" height="9.49"/><rect class="cls-18" x="208.57" y="85.22" width="9.49" height="9.49"/><rect class="cls-18" x="224.39" y="92.9" width="9.49" height="9.49"/><rect class="cls-18" x="192.76" y="101.03" width="9.49" height="9.49"/><rect class="cls-18" x="208.57" y="101.03" width="9.49" height="9.49"/><path class="cls-19" d="M227.24,141.67H202.57a.47.47,0,0,1-.47-.47h0a.47.47,0,0,1,.47-.47h24.67a.47.47,0,0,1,.47.47h0A.47.47,0,0,1,227.24,141.67Z"/><rect class="cls-20" x="204.91" y="135.11" width="3.75" height="5.62"/><rect class="cls-21" x="210.53" y="131.99" width="3.75" height="8.74"/><rect class="cls-22" x="216.15" y="133.55" width="3.75" height="7.18"/><rect class="cls-23" x="221.77" y="126.06" width="3.75" height="14.68"/><path class="cls-24" d="M227.24,171.19H202.57a.47.47,0,0,1-.47-.47h0a.47.47,0,0,1,.47-.47h24.67a.47.47,0,0,1,.47.47h0A.47.47,0,0,1,227.24,171.19Z"/><rect class="cls-25" x="204.91" y="162.76" width="3.75" height="7.49"/><rect class="cls-26" x="210.53" y="164.64" width="3.75" height="5.62"/><rect class="cls-27" x="216.15" y="159.33" width="3.75" height="10.93"/><rect class="cls-28" x="221.77" y="156.52" width="3.75" height="13.74"/><polyline class="cls-29" points="199.08 71.66 252.41 54.93 305.44 71.67"/><circle class="cls-30" cx="252.41" cy="54.93" r="1.81"/><rect class="cls-31" x="84.29" y="97.42" width="82.26" height="54.5" rx="1.67" ry="1.67"/><rect class="cls-32" x="90.16" y="105.1" width="13.11" height="18.08"/><rect class="cls-33" x="142.59" y="106.46" width="13.11" height="18.08"/><rect class="cls-32" x="149.37" y="104.65" width="9.49" height="9.49" transform="translate(-17.68 188.16) rotate(-60)"/><rect class="cls-34" x="140.45" y="105.76" width="5.22" height="5.22" transform="translate(-29.01 57.34) rotate(-20.63)"/><rect class="cls-33" x="108.24" y="105.1" width="26.67" height="14.46"/><rect class="cls-32" x="102.82" y="128.15" width="13.56" height="19.43"/><rect class="cls-32" x="119.54" y="128.15" width="13.56" height="19.43"/><rect class="cls-32" x="135.81" y="128.15" width="13.56" height="19.43"/><path class="cls-35" d="M174.11,134.83c-1.16.29-2.33-2.46-6.22-1-4.43,1.62-5.44,8.42-5.31,12.57s.26,5.7-2.59,8.42-4,7.78,0,10.49h21.9s1.81-.39.78-4.15-1.81-5.31-1.3-9.07,1.68-10.76-.13-14.52-3.63-3.63-4.67-3.5A18,18,0,0,0,174.11,134.83Z"/><path class="cls-36" d="M189.7,265.56l2.68,1.07c1.3.52,3,1.68,0,2.59a12.21,12.21,0,0,1-8.81-.91c-2.72-1.3-4.15-1.3-4.67-2.07s1.5-4.11,1.5-4.11Z"/><path class="cls-37" d="M186.16,202.09s16.85,3.76,20.35,6.22,3,5.05.52,12.31-21.51,40.3-21.9,41.73a33.62,33.62,0,0,1,3.11,2.2,10.24,10.24,0,0,0,3.24,1.81s-2.31,2.5-5.7-.39-5.57-3.5-5.57-3.5,3.5-5.57,9.72-21.77c5.8-15.11,6.48-18.27,7.39-23.07.61-3.25-16.85-8.94-16.85-8.94S177.61,202.35,186.16,202.09Z"/><polygon class="cls-38" points="170.52 258.33 170.52 242.13 167.67 242.13 167.67 258.33 143.44 266.76 143.44 268.51 169.1 260.67 194.76 268.51 194.76 266.76 170.52 258.33"/><path class="cls-39" d="M166.38,229.82h5.44a0,0,0,0,1,0,0v12.4a.56.56,0,0,1-.56.56h-4.32a.56.56,0,0,1-.56-.56v-12.4A0,0,0,0,1,166.38,229.82Z"/><path class="cls-40" d="M161.41,164.25S152.85,163,151,167.1s-1.94,8.68-1.56,20.74,3.24,34,3.76,34.08,17.37.52,17.37.52l-1.43-9.59L167.37,179Z"/><path class="cls-41" d="M188.24,219.59H157.19a3.79,3.79,0,0,1-3.78-3.54c-.45-6.74-1.24-19-1.85-30.42-.91-17-.39-21.38,7.13-21.38,0,0-9.59-2.46-11.53,4.92s.52,22.42.65,36.16c.06,6.24.06,11,.05,14.35a6,6,0,0,0,6,6h30.8C187.23,225.68,189,219.59,188.24,219.59Z"/><path class="cls-36" d="M212.71,265.17s4.55.56,4.81,1.2-1.17,3.24-6.61,2.85-8.16,0-9.07-.39.28-5.2.28-5.2S203.88,262.28,212.71,265.17Z"/><path class="cls-42" d="M213.24,265.33c-.78,1.68-3.11,1.3-6.48-.39-3.67-1.83-4.67-1-4.67-1,.72-7.54.21-30.31-.88-39.63-.28-2.38-.59-3.88-.93-4-1.79-.83-19.25-.75-19.25-.75a13.2,13.2,0,0,1-1.36-4.7,11.3,11.3,0,0,1,4.2-9.51s23.14,4.46,24.7,7.57.52,14.9-.65,30.07S206.76,262,206.76,262C207.54,263.65,213.24,265.33,213.24,265.33Z"/><path class="cls-43" d="M201.22,224.27h0c-.28-2.38-.59-3.88-.93-4-1.79-.83-19.25-.75-19.25-.75a13.2,13.2,0,0,1-1.36-4.7c3.37.37,13.09,1.47,17.23,2.2C201.32,217.77,201.22,224.27,201.22,224.27Z"/><path class="cls-44" d="M159.76,204.23s-.82,13.15,4.75,14.57,17,.65,17,.65-1.81-3.37,0-9.33a14.63,14.63,0,0,1,6-8.29H160.37Z"/><path class="cls-45" d="M204.56,199.11h-7.65s-8.81-6.87-10.37-8.55-6.09-12.05-6.09-12.05l-.05-.31-2.54-15.5s3.5-.13,5.05,2.33,6.61,18.66,7.78,20.87S204.56,199.11,204.56,199.11Z"/><path class="cls-43" d="M199.18,199.11h-2.26s-8.81-6.87-10.37-8.55-6.09-12.05-6.09-12.05l-.05-.31,2-4.09s5.05,13.35,5.7,15.42C188.62,191.17,196.16,196.88,199.18,199.11Z"/><path class="cls-46" d="M184.73,199.89a30,30,0,0,0-6.26,2.4c-.8.39-1.65.84-2.55,1.36a17.4,17.4,0,0,1-17.24,0s4.8-14.26,4.67-16.46-3.24-8.55-3.24-8.55L159.34,168l-.27-3.74a7.39,7.39,0,0,1,6.09-1.3l8.81-.26a10.44,10.44,0,0,1,3.89,0,35.61,35.61,0,0,0,3.11,6c2,3.23,2.63,5,1.9,9.35h0c-.06.36-.13.75-.21,1.15-.21,1.07-.47,2.25-.7,3.52C181.08,187.57,180.62,193.81,184.73,199.89Z"/><path class="cls-47" d="M178.48,202.28c-.8.39-1.65.84-2.55,1.36a17.4,17.4,0,0,1-17.24,0s4.8-14.26,4.67-16.46-3.24-8.55-3.24-8.55L159.34,168l.77-.89s3.63,11.15,5.31,14.77.26,5.31-.39,10.24.13,7,5.58,9.71C173.32,203.18,174.68,203.63,178.48,202.28Z"/><path class="cls-48" d="M192.12,199s-30.33.65-34.34,0-6-.65-6.61-2.59a10.49,10.49,0,0,1,0-3.54c0-.4.09-.82.15-1.26.48-3.53,1.4-8.2,2-11.92,1-6.09,3.76-15.68,5.7-15.55s2.59,11.66,1.49,15.35-1.88,12.78-1.88,12.78c4.15.26,17.75,4.15,21.25,4.8s6.22-1.3,7.91-.65,3.21,1.24,4.14,1.63l.13.06C193,198.46,192.12,199,192.12,199Z"/><path class="cls-43" d="M192.12,199s-30.33.65-34.34,0-6-.65-6.61-2.59a10.49,10.49,0,0,1,0-3.54c-.1,1.55.1,4,2.31,3.8,3.24-.26,4.41-.13,9.2.91,4.18.9,13.74.78,19.44.65,5.07-.12,9.63.79,9.85-.19l.13.06C193,198.46,192.12,199,192.12,199Z"/><path class="cls-49" d="M182.87,178c-.06.36-.13.75-.21,1.15-.21,1.07-.47,2.25-.7,3.52a6.16,6.16,0,0,1-5.26-.15c-3.76-1.81-7.52.65-7.52,0s3.5-2.72,8.16-1.81S182.85,178.1,182.87,178Z"/><path class="cls-50" d="M212.34,199.11s.39-1.3-1.68-1.68-1.55-1.81-3.37-1.81c-1,0-1.94,1.94-3.11,2.33a1.37,1.37,0,0,0-1.1,1.3Z"/><path class="cls-51" d="M160.29,225.68h17.63a0,0,0,0,1,0,0v1.06a2.05,2.05,0,0,1-2.05,2.05H162.34a2.05,2.05,0,0,1-2.05-2.05v-1.06A0,0,0,0,1,160.29,225.68Z"/><path class="cls-52" d="M174.67,230.6H163.53a.91.91,0,0,1-.91-.91h0a.91.91,0,0,1,.91-.91h11.15a.91.91,0,0,1,.91.91h0A.91.91,0,0,1,174.67,230.6Z"/><circle class="cls-53" cx="194.63" cy="267.67" r="2.07"/><circle class="cls-54" cx="143.44" cy="267.67" r="2.07"/><path class="cls-55" d="M178.4,155a2.36,2.36,0,0,1-2.43,1.43h-.09a10.77,10.77,0,0,1-1.38-.3s-.14,1-.24,2.17c-.14,1.63-.2,3.73.24,4.7.78,1.68,2.72,3.5.78,4.92s-5.44-.26-7.91-2.59-3.5-2.33-3.5-2.33a5.55,5.55,0,0,0,4.28-4.28,32.48,32.48,0,0,0,.65-8.16s-.25.91-1,.65-1.88-4.17.13-4.92c1-.39,1.17,3.24,1.17,3.24a5.91,5.91,0,0,0,.91-4.15,7.32,7.32,0,0,0,5.57-5.57s.91,3.24,3.63,3.89C179.16,143.64,180.42,150.17,178.4,155Z"/><path class="cls-43" d="M176,156.39h-.09a10.77,10.77,0,0,1-1.38-.3s-.14,1-.24,2.17a9.55,9.55,0,0,1-3-3.47,20.49,20.49,0,0,0,4.67,1.56Z"/><polygon class="cls-56" points="96.2 257.5 96.2 241.31 93.35 241.31 93.35 257.5 69.12 265.93 69.12 267.68 94.78 259.85 120.44 267.68 120.44 265.93 96.2 257.5"/><path class="cls-57" d="M92.06,229.51H97.5a0,0,0,0,1,0,0v12.4a.56.56,0,0,1-.56.56H92.62a.56.56,0,0,1-.56-.56v-12.4A0,0,0,0,1,92.06,229.51Z"/><path class="cls-58" d="M114.72,221.56a1.86,1.86,0,0,0-1.81-2.29H84c-2,0-3.31-1.6-3.78-3.54-1.32-5.52-3.83-36-4.75-47.44a4.85,4.85,0,0,0-4.73-4.46h0a1.5,1.5,0,0,0-1.52,1.66c1,9,5.45,51.19,5.44,53.87a6,6,0,0,0,6,6h29.69a4.48,4.48,0,0,0,4.37-3.46Z"/><path class="cls-59" d="M86,225.37h17.63a0,0,0,0,1,0,0v1.06a2.05,2.05,0,0,1-2.05,2.05H88A2.05,2.05,0,0,1,86,226.42v-1.06a0,0,0,0,1,0,0Z"/><path class="cls-60" d="M100.35,230.29H89.21a.91.91,0,0,1-.91-.91h0a.91.91,0,0,1,.91-.91h11.15a.91.91,0,0,1,.91.91h0A.91.91,0,0,1,100.35,230.29Z"/><circle class="cls-61" cx="119.53" cy="266.58" r="2.2"/><circle class="cls-62" cx="69.77" cy="266.58" r="2.2"/><path class="cls-36" d="M336.32,264s.5,4.23-.18,5.19c-.29.41-3.76.18-7.77.43-6.53.39-9-.65-8.21-2.27.4-.79,7.88-2.34,7.88-2.34S335.51,261.77,336.32,264Z"/><path class="cls-63" d="M329.41,207.55s2.64,51.18,1.91,54.16-5.13,3.83-5.13,3.83.32,1.82,3.66,1c5.13-1.28,6.45-.43,6.45-.43a8.83,8.83,0,0,0-.73-4.4s2.05-20.42,2.34-30.48,2.2-23,2.2-23Z"/><path class="cls-64" d="M344.94,205.71s1.52,13.34,2.2,24c.9,14.13,1.76,28.07,1.76,31.47,0,2.55-.17,8.08-.44,8.08l6.3-.14c-.23,0-1.77-6.6-1.47-8.36s1-29.77,1.17-33.74.73-22,.73-22Z"/><path class="cls-36" d="M336.24,261.71h-5.46a.5.5,0,0,1-.5-.5h0a.5.5,0,0,1,.5-.5h5.46a.5.5,0,0,1,.5.5h0A.5.5,0,0,1,336.24,261.71Z"/><path class="cls-36" d="M354,261.71h-5.46a.5.5,0,0,1-.5-.5h0a.5.5,0,0,1,.5-.5H354a.5.5,0,0,1,.5.5h0A.5.5,0,0,1,354,261.71Z"/><path class="cls-36" d="M348.93,269.65l6.45-.06a.47.47,0,0,0,.39-.75,4.38,4.38,0,0,0-3.55-1.87,5,5,0,0,0-3.7,1.82A.52.52,0,0,0,348.93,269.65Z"/><path class="cls-65" d="M357.35,214.43q-3.68.67-6.85,1.08c-20.53,2.69-26-2.07-26-2.07s.13-16.83,1-30c.8-12,2-16.69,2-16.69s2.28-.56,5.53-1.19c2.49-.49,5.54-1,8.56-1.38,5.06-.6,10-.73,12.06.64a2.36,2.36,0,0,1,.67.65c3,4.53,3.38,17.11,2.88,25.6S357.35,214.43,357.35,214.43Z"/><path class="cls-66" d="M362.66,154.84c0,2.72-4.53,4.37-6.48,4.8a30.87,30.87,0,0,0-2.2-5.57c.65-.34,1.35-.59,2.07-.91L354,145.39h-.06s-.09.43-.22,1.16h0a62.14,62.14,0,0,0-.85,7.12c-.24,4.28,1.43,10.88,1.55,12.18s-1.91,4.14-12.78,5.18a33.87,33.87,0,0,1-8.66-.12h0a15.37,15.37,0,0,1-2.86-.72c-2.19-.8-3.16-1.9-3.4-2.66-.47-1.55,1.67-5.83,2.27-11.66a20.51,20.51,0,0,0-1.22-9.32c-.19-.51-.33-.78-.33-.78l0,.08c-.42.85-4.23,8.54-6.68,9.76-1,.49-2,1.16-6.94-3.32a18.46,18.46,0,0,0,1.25-1.83,24.17,24.17,0,0,0,2-4.37c1.35.68,2.25-.28,4.5-6.15,2.63-6.87,4.3-11.15,6.45-12s7.89-.78,7.89-.78c6.45,4.8,11.11-.65,11.11-.65s8.24.39,10.75,2.21c1.65,1.19,2.87,8.06,3.52,12.61A121.89,121.89,0,0,1,362.66,154.84Z"/><path class="cls-67" d="M347.22,98.36l-.24-.65a4.37,4.37,0,0,1,2.15-3.89,4.22,4.22,0,0,1,5.62,1.68c.84,1.68.48,2.72,1.08,4.15.67,1.6,1.19,3.5-.6,5.05a2.51,2.51,0,0,1-3.46-.13Z"/><path class="cls-68" d="M345.54,98.87s1.08-1.17,1.43-1.17a8.11,8.11,0,0,1,3.7,2.85,10.33,10.33,0,0,1,2,4.41c.12.52-1.79,1.81-1.79,1.81Z"/><path class="cls-69" d="M334,110.15s.6,5.83-2,7.77a7,7,0,0,0,.48-3.89c-.36-2.2-.84-2.85-.48-4.79a25.54,25.54,0,0,0,.24-5.31c0-2.2.84-4.28,3-4s3-1.3,4.9-2.33,4.66-1.17,6,.91,2.75,2.07,3.7,2.46,2.75,3.5,1.79,8.42-5.05,8.11-5.45,11.83l-4.94-6.39Z"/><path class="cls-70" d="M348.77,126.86s-3.11,4.27-5.91,6.2a4.09,4.09,0,0,1-2.46.93c-3-.26-6.45-6.74-6.45-6.74a9.69,9.69,0,0,0,1.91-.09,7.55,7.55,0,0,0,1.32-.3c.75-.25,1.38-1.7,1.84-3.13a30,30,0,0,0,.77-3v-.08a4.19,4.19,0,0,1-.32.29,4.65,4.65,0,0,1-.83.54h0a2.14,2.14,0,0,1-3-.84c-2.63-4-2.15-13.35-2.15-13.35s.72-2.46,2.39-3.24,3,2.07,3.58,4.41,2.75,2.07,4.18,3.37,1.19,4.54,1.19,4.54c1.19-4.15-.12-4.66,0-5.7s1.19-2.59,2-2.33,1,2.07.6,3.5a2.18,2.18,0,0,1-1.43,1.68s-.24,8,.36,10.5A3.56,3.56,0,0,0,348.77,126.86Z"/><path class="cls-43" d="M342.08,119s-.08,3.54-3.06,4.77a30,30,0,0,0,.77-3A19.92,19.92,0,0,0,342.08,119Z"/><path class="cls-43" d="M342.86,133.06a4.09,4.09,0,0,1-2.46.93c-3-.26-6.45-6.74-6.45-6.74a9.69,9.69,0,0,0,1.91-.09S339.58,134.6,342.86,133.06Z"/><path class="cls-71" d="M317,146.1a24.17,24.17,0,0,1-2,4.38c-5.47-5.21-14.07-17.37-16.89-17.86h0a13.71,13.71,0,0,0-2.44-1.49c-3.76-1.82-2-5.06-2.33-6s-2.15-3.76-1.55-3.76,1.79,1.82,3,3.24a17.38,17.38,0,0,0,4.27,3c-.15-.2-2.8-3.63-2.45-3.88s1.83,1.43,3.5,2.85,1.55,2.21,3.06,4.94c2.36,4.29,11.71,13.09,13.38,14.25A4.32,4.32,0,0,0,317,146.1Z"/><path class="cls-72" d="M330.1,170.23l.71.28A4.69,4.69,0,0,1,330.1,170.23Z"/><path class="cls-73" d="M354.38,165.87c.12,1.3-1.91,4.14-12.78,5.18a33.87,33.87,0,0,1-8.66-.12,23.76,23.76,0,0,0,9-1c8.14-2.26,7.83-13,8.59-18.53,1.36-9.94,4.07-13.56,4.07-13.56l-.86,8.69h0a62.14,62.14,0,0,0-.85,7.12C352.59,158,354.27,164.57,354.38,165.87Z"/><path class="cls-74" d="M347.27,172.56l-15,1.84a1,1,0,0,1-1.17-.93l-2.49-24a1.09,1.09,0,0,1,1-1.19l15-1.84a1,1,0,0,1,1.17.93l2.49,24A1.09,1.09,0,0,1,347.27,172.56Z"/><path class="cls-75" d="M357.09,159.41c-6.78,1.9-18.37,3.72-21.9,4.7-4.69,1.31-4.36,1.06-5.79.8a1.2,1.2,0,0,1-.89-.62h0c-.39-.7-.35-1.84-.91-2.83-.82-1.45,1-1.46,1-1.46l.15,1.11a13.5,13.5,0,0,0,4.07.16s-3.15-2.12-2.38-2.11,2.35,1,4.56,1,2.91-.1,9.55-2.37a97.8,97.8,0,0,0,10.19-4.08c.46,1.1,1,2.31,1.79,4.29C356.71,158.45,356.89,158.91,357.09,159.41Z"/><path class="cls-43" d="M357.09,159.41c-6.78,1.9-18.37,3.72-21.9,4.7-4.69,1.31-4.36,1.06-5.79.8a1.2,1.2,0,0,1-.89-.62c2.66.83,9-1.86,16.54-3.37A89.28,89.28,0,0,0,356.54,158C356.71,158.45,356.89,158.91,357.09,159.41Z"/><path class="cls-43" d="M315,150.48a18.46,18.46,0,0,1-1.25,1.83l-.06,0c-5-4.54-10.39-13.22-12.18-15.94a14.71,14.71,0,0,0-3.39-3.7C300.92,133.1,309.51,145.27,315,150.48Z"/><path class="cls-73" d="M327.35,145.86c-.42.85-4.23,8.54-6.68,9.76-1,.49-2,1.16-6.94-3.32a18.46,18.46,0,0,0,1.25-1.83c1.65,1.58,3,2.51,3.86,2.31,3.62-.9,5.42-4.07,5.88-8.59a14.3,14.3,0,0,1,2.71-7.22C326.14,141.82,326.85,144.65,327.35,145.86Z"/><path class="cls-76" d="M120.57,259.84s-.78,4.67-.39,5.31-3.89.91-3.89.91l-1.47-1.67,1-6Z"/><path class="cls-77" d="M121.48,260.87l-6.61-1.68s8-37.45,8.16-41.86,10.24,4.28,10.24,4.28Z"/><path class="cls-78" d="M113.57,269h4.67v-.52l1.43.52h10.89s1.75-2-.39-1.94a12.2,12.2,0,0,1-9.85-4.15s-2.85,3.24-5.05.91C114.22,262.76,113.05,264.63,113.57,269Z"/><polygon class="cls-79" points="137.29 260.1 138.19 266.06 143.25 265.28 142.6 258.67 137.29 260.1"/><path class="cls-80" d="M100.61,201.52s29.15,5,32.66,7c5.57,3.24,10,52.36,10,52.36h-6.61s-8.16-39.53-9.59-41.21c-.7-.82-9.67,0-18.27.13-9,.11-20-.35-20-.35Z"/><path class="cls-78" d="M136.25,269h4.67v-.52l1.43.52h10.89s1.75-2-.39-1.94a12.2,12.2,0,0,1-9.85-4.15s-2.85,3.24-5.05.91C136.9,262.76,135.73,264.63,136.25,269Z"/><path class="cls-81" d="M101.32,202.88s-.78,3-4.8,9.33c-3.54,5.59-10,10.93-14.51,9.33-3.63-1.3-6.48-42.24-6.48-52.49,0-5.18,3.33-10.17,3.33-10.17l9.94,1.81C94.68,167,96,188.71,101.32,202.88Z"/><path class="cls-82" d="M93,149.13a9.3,9.3,0,0,1-1.46,5.06,1.51,1.51,0,0,1-1.07.69c-.92,0-2.53-.92-2.76-.23a4.66,4.66,0,0,0,0,1.31c.07,1.16.27,2.6.27,2.6l-7.37-1.2h0l-1.14-.18.2-5.34,0-.86.27-1.22,1.47-6.63.09-.43s6.44-7.36,10.58-3.91A57.77,57.77,0,0,1,93,149.13Z"/><path class="cls-43" d="M91.52,154.19a1.51,1.51,0,0,1-1.07.69c-.92,0-2.53-.92-2.76-.23a4.66,4.66,0,0,0,0,1.31,20.23,20.23,0,0,1-1.45-4C88.52,153.87,90.31,154.26,91.52,154.19Z"/><path class="cls-43" d="M81.82,157.3l-1.27.07h0l-1.14-.18.2-5.34c1.15-.52,2.23-.6,1.76,1.32C80.45,156.84,81.82,157.3,81.82,157.3Z"/><path class="cls-83" d="M87.33,158.31a1.22,1.22,0,0,1,.75.68c.72,1.25,2.08,3.51,2.08,3.51l-11.82-2.83a.4.4,0,0,1-.25-.48c.14-.86.53-2.76,1.36-2.58Z"/><path class="cls-84" d="M90.22,140.12c-2.2.12-3.23.89-3.71,1.9l-.07.16,0,0-.05.14c0,.08-.05.14-.07.21a5.06,5.06,0,0,0-.13.62v0a11.94,11.94,0,0,0-.09,1.74c0,2.07-1.61,0-3-.69a.48.48,0,0,0-.4,0c-.9.31-1.17,3.42.95,4.9a1.53,1.53,0,0,1,.35,2.21c-1.27,1.57-3.33,3.71-4.81,3.26A4.79,4.79,0,0,1,77,152.84c-1.67-2.17-3.17-6.07-3.33-10.87-.23-6.9,3.68-6,3.68-6a5.62,5.62,0,0,1,3.22-6.21c3.86-1.71,10.9,2,13.34,4.15a6.12,6.12,0,0,1,.46.45C96.19,136.44,94.36,139.89,90.22,140.12Z"/><path class="cls-85" d="M85.64,201.82s-2.26.9-4.07-3.62-4.07-14.46-4.52-23,3-9.47,3.75-10.16Z"/><path class="cls-86" d="M122.45,205.73c-.8.22-.81-4.66-2.33-5.31s-6.18.45-6.18.45l1.7-4.09-.84-1s6.69.55,7.65,2.07S123.25,205.51,122.45,205.73Z"/><path class="cls-87" d="M86.09,167c-2.27-2.88-6.19-3.37-8.14.9s4.49,30.81,7,32.23,30.21.08,30.21.08l.68-5.27-6.87-.39c-5.2-.31-11.88-.66-15.16-2.07C88.1,190,88.94,170.65,86.09,167Z"/><path class="cls-88" d="M121.8,204.58H86.37a2.26,2.26,0,0,1-2.12-1.33l-.76-1.85a.94.94,0,0,1,1-1.24h33.11A4,4,0,0,1,121.8,204.58Z"/><path class="cls-89" d="M91.29,204.58l9.26,15.19h2.71l9.49-15.19-1.81,0-8.35,13.63a.8.8,0,0,1-.69.38h0a.8.8,0,0,1-.69-.39L93,204.58Z"/><path class="cls-90" d="M367.68,271.87H48.25a1.56,1.56,0,0,1-1.56-1.56h0a1.56,1.56,0,0,1,1.56-1.56H367.68a1.56,1.56,0,0,1,1.56,1.56h0A1.56,1.56,0,0,1,367.68,271.87Z"/><path class="cls-91" d="M258.29,201.83H130.07a1.36,1.36,0,0,1-1.36-1.36h0a1.36,1.36,0,0,1,1.36-1.36H258.29a1.36,1.36,0,0,1,1.36,1.36h0A1.36,1.36,0,0,1,258.29,201.83Z"/><rect class="cls-89" x="138.97" y="201.82" width="2.26" height="67.79"/><rect class="cls-89" x="244.28" y="201.82" width="2.26" height="67.79"/><rect class="cls-92" x="141.23" y="201.82" width="103.05" height="10.4"/><circle class="cls-93" cx="128.58" cy="70.75" r="12.2"/><circle class="cls-94" cx="128.58" cy="70.75" r="9.86"/><rect class="cls-95" x="127.67" y="63.52" width="1.36" height="7.68" rx="0.54" ry="0.54"/><rect class="cls-96" x="130.54" y="69.06" width="1.24" height="9.49" rx="0.54" ry="0.54" transform="translate(-15.44 107.84) rotate(-42.44)"/><path class="cls-97" d="M241.4,197.53l-2.09-.16,9.19-22.29a.51.51,0,0,1,.66-.28l.67.27a.51.51,0,0,1,.29.67Z"/><path class="cls-98" d="M217.23,197.37H241.4a0,0,0,0,1,0,0v.52a1.22,1.22,0,0,1-1.22,1.22H217.23a.52.52,0,0,1-.52-.52v-.7A.52.52,0,0,1,217.23,197.37Z"/><path id="_Path_" data-name="&lt;Path&gt;" class="cls-99" d="M740,220.88a65.15,65.15,0,0,1-7.89-37.75A63.82,63.82,0,0,1,737,163.2c2.59-5.88,6.09-11.36,5.81-18.06s-4.16-13.16-2.07-19.39c3.88-11.56,21.37-11.84,30.67-16.28,13.23-6.33,16.37-19.06,23.34-30.68S812.35,57.61,825.06,53s27.47-4,39.26,2.59A28.48,28.48,0,0,1,876.7,68.77c2.19,4.46,4.38,9.25,8.5,12,5.13,3.48,11.46,2.45,17.29,2.94,13.16,1.1,26.4,5.76,36.31,14.69A45.28,45.28,0,0,1,950,113.93c2.55,5.84,3.77,12.42,7.58,17.65,3.68,5,9.5,8.07,13,13.29,4.52,6.78.69,14.19,1.7,21.59,1.6,11.76,11.25,28.21,2.85,39.42-3.36,4.49-8.28,4.06-13.41,4-6.67,0-13.91-.53-20.31-2.58-5.51-1.76-10.88-4-16.67-4.22-4.25-.2-8.6-.51-12.85-.57-2.77,0-5.62.75-8.42,1L886,205.45l-38.85,4.1L773,217.39l-24,2.54C748.33,220,740.28,221.41,740,220.88Z"/><path id="_Path_2" data-name="&lt;Path&gt;" class="cls-100" d="M930.48,258.77c-7.35,3-14.91,5.56-21.89,9.39-8.78,4.83-16.13,11-26.12,13.56-6.73,1.71-13.9,1.67-20.77,2.63-7.54,1-15.07,2.32-22.68,2.79-.47,0-.93.06-1.4.07q-3.56.21-7.09.29l-1.36,0h-2.86c-29.14.13-60-5.25-83.89-23-3.52-2.61-7-5.57-8.87-9.51-1.62-3.34-2-7.12-2.77-10.76-.88-4.18-2.56-7.94-5.89-10.73-4.45-3.73-6.58-5.6-4.23-11.7,7.41-19.21,21.45-35.45,38.18-47.46,23.28-16.72,51.78-26.24,79.87-30.87a221.52,221.52,0,0,1,47.46-2.76q5.7.3,11.38.93c3.56.4,7.23,1.31,10.79,1.21a88,88,0,0,1,27.25,4c5.74,1.72,14.34,3.51,16.81,9.8a20.49,20.49,0,0,0,3.05,5.55c2,2.55,5.28,2.89,7.93,4.4a24.25,24.25,0,0,1,7.52,6.72,32.26,32.26,0,0,1,5.34,13.39c1.35,7.52,2,16.06.13,23.51A59.91,59.91,0,0,1,966.17,231a80.83,80.83,0,0,1-30.73,25.57C933.81,257.38,932.15,258.09,930.48,258.77Z"/><g id="_Group_" data-name="&lt;Group&gt;"><path id="_Path_3" data-name="&lt;Path&gt;" class="cls-101" d="M911.8,209.7c-.72-.67-2.73-.1-6.7-1.23s-8.07-.35-8.75.62,4.39,4.71,6.33,5,3.07,3,5.67,2.95a4.91,4.91,0,0,0,3.93-2.08Z"/><path id="_Path_4" data-name="&lt;Path&gt;" class="cls-101" d="M799.43,246.82s7.74,1.76,10.23,1.81,4.61,1.8,3.06,3.49a11.92,11.92,0,0,1-7.92,3.27c-3.49.22-8.42.59-10.45.31-1.28-2.3-1.4-7.08-1.4-7.08Z"/><path id="_Path_5" data-name="&lt;Path&gt;" class="cls-101" d="M890.92,219.22S883.19,221,880.69,221s-4.61,1.8-3.06,3.49a11.92,11.92,0,0,0,7.92,3.27c3.49.22,8.42.59,10.45.31,1.28-2.3,1.4-7.08,1.4-7.08Z"/><path id="_Path_6" data-name="&lt;Path&gt;" class="cls-101" d="M778,241c.72-.67,2.73-.1,6.7-1.23s8.07-.35,8.75.62-4.39,4.71-6.33,5-3.07,3-5.67,2.95a4.91,4.91,0,0,1-3.93-2.08Z"/><g id="_Group_2" data-name="&lt;Group&gt;"><g id="_Group_3" data-name="&lt;Group&gt;"><path id="_Path_7" data-name="&lt;Path&gt;" class="cls-101" d="M776.53,255.62a1,1,0,0,1-.27.65,2.26,2.26,0,0,1-1.1.62,4,4,0,0,1-2.14,0l-8.75-2.32c-1.46-.38-3.14.11-3.46,1L758.92,261a2.52,2.52,0,0,1-2.42,1.14l-.39,0a2.91,2.91,0,0,1-1.77-.7,1.08,1.08,0,0,1-.33-.57v0a.79.79,0,0,1,0-.28l.73-3.83.32-1.67c.17-.92-1.17-1.69-2.76-1.59l-9.66.61h-.27a4.06,4.06,0,0,1-1.15-.16,1.81,1.81,0,0,1-1.32-1.05c-.21-.76.65-1.47,1.95-1.62l9.46-1.1a3.53,3.53,0,0,0,1.08-.29c.83-.4,1.16-1.09.67-1.7l-3.35-4.23-.67-.85a1,1,0,0,1-.22-.48.89.89,0,0,1,0-.12c0-.52.49-1,1.35-1.27a3.6,3.6,0,0,1,3.29.58l4.79,4.86a3.68,3.68,0,0,0,3.84.36l7.11-3.76a3.9,3.9,0,0,1,3.43,0,1.2,1.2,0,0,1,.73,1.09,1.22,1.22,0,0,1-.64.9l-.57.35-5.93,3.75c-1.06.67-.78,1.73.57,2.2l.05,0,8.42,2.77C776.07,254.63,776.53,255.12,776.53,255.62Z"/><path id="_Path_8" data-name="&lt;Path&gt;" class="cls-101" d="M752.4,249.85,749,245.62a1,1,0,0,1-.22-.49v-2.54a1,1,0,0,0,.22.48l.67.85,3.35,4.23C753.56,248.77,753.23,249.46,752.4,249.85Z"/><path id="_Path_9" data-name="&lt;Path&gt;" class="cls-101" d="M769,250a.33.33,0,0,1,0-.1,1.06,1.06,0,0,1,0-.13Z"/><path id="_Path_10" data-name="&lt;Path&gt;" class="cls-101" d="M755.07,255.06l-.32,1.67a3.28,3.28,0,0,0-2.43-.71l-9.66.61h-.27c-1.21,0-2.27-.51-2.47-1.22v-2.55a1.81,1.81,0,0,0,1.32,1.05,4.06,4.06,0,0,0,1.15.16h.27l9.66-.61C753.9,253.37,755.24,254.14,755.07,255.06Z"/><path id="_Path_11" data-name="&lt;Path&gt;" class="cls-101" d="M760.09,259.88v.45A.8.8,0,0,1,760.09,259.88Z"/><path id="_Path_12" data-name="&lt;Path&gt;" class="cls-101" d="M776.53,255.62v2.57a1,1,0,0,1-.27.63,3.47,3.47,0,0,1-3.24.65l-8.75-2.32c-1.46-.38-3.14.11-3.46,1l-1.89,5.41a2.5,2.5,0,0,1-2.41,1.14l-.41,0c-1.15-.1-2-.65-2.09-1.3v-2.52a1.08,1.08,0,0,0,.33.57,2.91,2.91,0,0,0,1.77.7l.39,0a2.52,2.52,0,0,0,2.42-1.14l1.89-5.41c.32-.9,2-1.4,3.46-1l8.75,2.32a4,4,0,0,0,2.14,0,2.26,2.26,0,0,0,1.1-.62A1,1,0,0,0,776.53,255.62Z"/><path id="_Path_13" data-name="&lt;Path&gt;" class="cls-101" d="M773.36,244.38v2.47a1.18,1.18,0,0,1-.64,1l-5.93,3.74c-1.34-.46-1.62-1.53-.57-2.2l5.93-3.75.57-.35A1.22,1.22,0,0,0,773.36,244.38Z"/></g><ellipse id="_Path_14" data-name="&lt;Path&gt;" class="cls-102" cx="774.15" cy="260.16" rx="2.2" ry="2.21" transform="translate(462.76 1015.16) rotate(-86.16)"/><ellipse id="_Path_15" data-name="&lt;Path&gt;" class="cls-102" cx="756.52" cy="265.65" rx="2.2" ry="2.21" transform="translate(440.84 1002.69) rotate(-86.16)"/><ellipse id="_Path_16" data-name="&lt;Path&gt;" class="cls-102" cx="742.1" cy="257.68" rx="2.2" ry="2.21" transform="translate(435.33 980.87) rotate(-86.16)"/><ellipse id="_Path_17" data-name="&lt;Path&gt;" class="cls-102" cx="750.18" cy="248.42" rx="2.2" ry="2.21" transform="translate(452.09 980.28) rotate(-86.16)"/><ellipse id="_Path_18" data-name="&lt;Path&gt;" class="cls-102" cx="771.94" cy="249.4" rx="2.2" ry="2.21" transform="matrix(0.07, -1, 1, 0.07, 471.42, 1002.9)"/></g><path id="_Path_19" data-name="&lt;Path&gt;" class="cls-103" d="M761.81,252.87c0,2.91-6.21,2.34-6.21,0V232.56h6.21Z"/><path id="_Path_20" data-name="&lt;Path&gt;" class="cls-101" d="M754.2,214.21S772,208.1,779.55,209s5.85,33.52,5.85,33.52a26.88,26.88,0,0,1-8,0c-1.69-9.06-4.41-19-4.41-19s-16.4,4.74-18.84,2.37S754.2,214.21,754.2,214.21Z"/><path id="_Path_21" data-name="&lt;Path&gt;" class="cls-101" d="M754.2,214.21S772,208.1,779.55,209s5.85,33.52,5.85,33.52c-.61,1.22-5.52,3.75-8,0-1.69-9.06-4.41-19-4.41-19s-16.4,4.74-18.84,2.37S754.2,214.21,754.2,214.21Z"/><g id="_Group_4" data-name="&lt;Group&gt;"><path id="_Path_22" data-name="&lt;Path&gt;" class="cls-103" d="M783.33,232.44c-1.58,1.48-20.53,12-24.07,13.91a1.37,1.37,0,0,1-1.39,0h0c-2-1.26-3-5.71.85-8.54,1.12-.84,21.31-14.41,24.52-13.48h0l.1,0a1.14,1.14,0,0,1,.29.19C785.17,225.82,785,230.89,783.33,232.44Z"/><path id="_Path_23" data-name="&lt;Path&gt;" class="cls-101" d="M783.22,224.31c-3.21-.93-23.4,12.65-24.52,13.48-3.81,2.83-2.83,7.28-.85,8.54l-22.42-13-.77-.45h0c-1.76-1.5-2.45-5.64,1.16-8.32,1.13-.84,21.79-14.73,24.63-13.43l.19.11Z"/></g><g id="_Group_5" data-name="&lt;Group&gt;"><path id="_Path_24" data-name="&lt;Path&gt;" class="cls-101" d="M833,132.12c-.6-4.79-2.85-33.69-7.06-37,0,0-2.87-3.05-4.17-1.77h0l-21,12.13,1,13.08,9.13,29.9,20.37-11.76h0C832.5,136.36,833.3,134.64,833,132.12Z"/><path id="_Path_25" data-name="&lt;Path&gt;" class="cls-104" d="M804.65,107.45c4.21,3.3,6.45,32.21,7.06,37s-2.82,6.69-5.93,1.84-5.92-32.42-5.92-38.18S804.65,107.45,804.65,107.45Z"/></g><path id="_Path_26" data-name="&lt;Path&gt;" class="cls-105" d="M838.73,91.58c-5.88-.29-15.86,6.66-20.38,12.36s-1.72,11.88-.2,18-.84,21.4-.84,22.87c6.94,4.66,23.72,5.33,25.64-1.55.82-7.49-4.66-15.4-4.73-19.79C838.5,114,846.5,94.41,838.73,91.58Z"/><path id="_Path_27" data-name="&lt;Path&gt;" class="cls-106" d="M833.59,92.94c3.06,13.29,2.1,27.66,1.42,33.29s-.81,24.38-.81,24.38c4.53-2.29,6.7-6.53,6.81-8.46s-1.65-18.18-1.52-19.51,2.43-13.88,2.19-20.68-2.8-7.83-2.8-7.83l-5.82-2.6Z"/><path class="cls-106" d="M834.11,96.27l.79.35a8.3,8.3,0,0,0-.2,1.29,2,2,0,0,0,0-.24Z"/><path id="_Path_28" data-name="&lt;Path&gt;" class="cls-106" d="M825.08,94.34c4.52,9.68,2.35,18.55,2.15,26.51s-4.33,30.31-4.33,30.31c-7.93-2-8.88-7.29-10.41-10-3.66-18.61,1-33.73,4.4-39.32C819.59,97.45,825.08,94.34,825.08,94.34Z"/><path class="cls-107" d="M820.11,106.64c-7.34-1.83-3.63,15.45,0,22.33,1.82,3.47,3.26,5.49,5.45,6.6.71-4.68,1.36-9.45,1.6-12.83C825.27,116.52,823.84,108.47,820.11,106.64Z"/><polygon id="_Path_29" data-name="&lt;Path&gt;" class="cls-102" points="789.86 169.59 794 166.69 795.38 166.69 794.79 167.56 790.37 170.61 789.86 169.59"/><g id="_Group_6" data-name="&lt;Group&gt;"><path id="_Path_30" data-name="&lt;Path&gt;" class="cls-101" d="M783.38,156c-.6-4.79-2.85-33.69-7.06-37,0,0-2.87-3.05-4.17-1.77h0l-21,12.13,1,13.08,9.13,29.9,20.37-11.76h0C782.89,160.28,783.69,158.56,783.38,156Z"/><path id="_Path_31" data-name="&lt;Path&gt;" class="cls-104" d="M755,131.37c4.21,3.3,6.45,32.21,7.06,37s-2.82,6.69-5.93,1.84-5.92-32.42-5.92-38.18S755,131.37,755,131.37Z"/></g><path id="_Path_32" data-name="&lt;Path&gt;" class="cls-101" d="M915.3,59.05c-4.88,2.43-13.88,22.21-12.35,26.85s5.69,2.09,8.55-2c3.94-5.62,7.89-17.84,7.4-20.9A5.3,5.3,0,0,0,915.3,59.05Z"/><g id="_Group_7" data-name="&lt;Group&gt;"><g id="_Group_8" data-name="&lt;Group&gt;"><g id="_Group_9" data-name="&lt;Group&gt;"><path id="_Path_33" data-name="&lt;Path&gt;" class="cls-103" d="M916.5,161.66s-7.57,8.84-9.59,9.44-.2,2.67,1.35,2.83,6.48-.05,7.91-1.46,5.49-2.92,5.49-2.92a22.88,22.88,0,0,0-1.1-7.47Z"/><path id="_Path_34" data-name="&lt;Path&gt;" class="cls-101" d="M913.85,99.2s-1,19.57-.62,26,1.92,38.27,1.92,38.27a13.84,13.84,0,0,0,6.78,0c1.36-24.43,1.32-31.45,1.71-35.09s.87-14.17.87-14.17c2.92-6-.13-13.91-1.58-15.8S913.85,99.2,913.85,99.2Z"/><path id="_Path_35" data-name="&lt;Path&gt;" class="cls-103" d="M928.87,170.06c-.25,3.58-1.55,7.79-1.87,9.93a5.08,5.08,0,0,0,.94,4.05c.49.69,6.54-1.31,7.37-3.64s-.87-4.37-1-8.74C932.35,168.16,928.87,170.06,928.87,170.06Z"/><path id="_Path_36" data-name="&lt;Path&gt;" class="cls-101" d="M920.14,100.72s1,17.81,2.68,23.74,3.12,23.33,3.82,26.37,1.55,21.78,1.55,21.78a13.36,13.36,0,0,0,6.72,0c-.08-17.55.35-31.82,0-36.64s.14-19.08.14-19.08c1.56-6.64,1.65-7.49,0-11.9S926.3,97.08,920.14,100.72Z"/><path id="_Path_37" data-name="&lt;Path&gt;" class="cls-105" d="M916.71,58.45c5.46-.24,18.12,2.6,22.28,7.91s-1.88,14.71-3.33,20.37.67,19.87.67,21.24c-6.47,4.29-22,4.83-23.8-1.57-.72-7,.87-15.23,1-19.3C913.27,78.35,909.48,61,916.71,58.45Z"/><path id="_Path_38" data-name="&lt;Path&gt;" class="cls-101" d="M921.39,59.75c-3.52,12.34-4.34,26.19-4,31.43s.48,22.17.48,22.17c-4.09-2.15-5.88-6.1-5.88-7.89s1.54-17.12,1.49-18.35S911.42,71.8,912,65.49s4.71-7,4.71-7H922Z"/><path id="_Path_39" data-name="&lt;Path&gt;" class="cls-101" d="M918,44.85c-2.4.76,0,6.23,0,6.23Z"/><path id="_Path_40" data-name="&lt;Path&gt;" class="cls-108" d="M917.88,45.57a16.83,16.83,0,0,0-.57,5.69c.34,2.49.57,7.44,2.77,9s5.36-.26,7.46-2a12.43,12.43,0,0,0,4.36-9c0-4-1.5-8.82-7.22-8.57S917.88,45.57,917.88,45.57Z"/><path id="_Path_41" data-name="&lt;Path&gt;" class="cls-108" d="M929,54.73s-.45,5.1.89,7c.1,1.25-3.5,6.58-7.09,5.65-2.09-.54-1.84-3-1.84-3a57.39,57.39,0,0,0,0-6.34Z"/><path id="_Path_42" data-name="&lt;Path&gt;" class="cls-101" d="M916.48,41.29c-.81,2.94.11,4,2.59,4.84s9.07-1.07,9.07-1.07a7.66,7.66,0,0,0,.55,4.78c1.09-3.09,2.08-1.52,2.18,1s-1.29,2.42-1.29,2.42a4.56,4.56,0,0,0,.77,2.79c2.65-1.83,6.26-14.08,1.48-14.36C931.75,37.36,918.22,35,916.48,41.29Z"/><path id="_Path_43" data-name="&lt;Path&gt;" class="cls-101" d="M930.09,60.9c-4.25,9-6.47,17.14-6.33,24.53s1.67,28.92,1.67,28.92c7.37-1.79,12.4-3.87,13.83-6.39C936.11,99.65,935,94,935.6,91.68s6.21-20.42,3.32-25.78C936.18,62.9,930.09,60.9,930.09,60.9Z"/></g><path id="_Path_44" data-name="&lt;Path&gt;" class="cls-105" d="M929.15,59.71a10.44,10.44,0,0,0,.95,1.19s-1.84,4-2.51,5.81A9.43,9.43,0,0,1,925.17,70l-2.39-2.61C926.08,65.62,929.15,59.71,929.15,59.71Z"/></g><path id="_Path_45" data-name="&lt;Path&gt;" class="cls-105" d="M921.25,61c.22-.27.74,5,1.54,6.37a9.75,9.75,0,0,1-2.44,1.83S919.43,63.26,921.25,61Z"/><path id="_Path_46" data-name="&lt;Path&gt;" class="cls-109" d="M923,67.26l-2,1.25a12.21,12.21,0,0,1,.5,2.71h1.91l1.42-2Z"/><path id="_Path_47" data-name="&lt;Path&gt;" class="cls-109" d="M921.45,71.22C918.61,85.94,918.9,95,918.9,95l1.44,4,3.11-4.53s-2.25-17.29-.1-23.34A1.44,1.44,0,0,0,921.45,71.22Z"/></g><path id="_Path_48" data-name="&lt;Path&gt;" class="cls-105" d="M789.12,115.49c-5.88-.29-18.75,3.75-23.27,9.45s1.16,14.79,2.69,20.9-.84,21.4-.84,22.87c6.94,4.66,23.72,5.33,25.64-1.55.82-7.49-4.66-15.4-4.73-19.79C788.89,138,796.89,118.32,789.12,115.49Z"/><path id="_Path_49" data-name="&lt;Path&gt;" class="cls-103" d="M784,116.86c3.06,13.29,2.1,27.66,1.42,33.29s-.81,24.38-.81,24.38c4.53-2.29,6.7-6.53,6.81-8.46s-1.65-18.18-1.52-19.51,4.13-16.68,3.89-23.48-4.66-7.6-4.66-7.6l-5.67,0Z"/><path id="_Path_50" data-name="&lt;Path&gt;" class="cls-108" d="M789.3,101.69a57.07,57.07,0,0,1,.58,6.13c.09,4.39-.65,8-3,9.71s-6.75.58-9-1.34-3.64-6.36-3.67-10.63,1.67-9.49,7.82-9.19S789.3,101.69,789.3,101.69Z"/><path id="_Path_51" data-name="&lt;Path&gt;" class="cls-108" d="M775.92,111.42s.45,5.5-1,7.52c-.11,1.35,3.73,7.11,7.6,6.12,2.25-.57,2-3.19,2-3.19a61.81,61.81,0,0,1,0-6.83Z"/><path id="_Path_52" data-name="&lt;Path&gt;" class="cls-101" d="M788.81,97.33c-3.42-4.76-16.11-.82-15,3.66-4.91,1.57-1.73,14.25,4.07,15.2,0,0,2.71-2.71,2.47-3.39-.55.25-1.3.25-1.62-1.3-.56-2.61,1.08-4.3,3-1.36a11.74,11.74,0,0,0-1-5.47s6.57-.61,8.7-2.46C790.55,101.23,790.73,100,788.81,97.33Z"/><path id="_Path_53" data-name="&lt;Path&gt;" class="cls-103" d="M774.69,118.06c4.52,9.68,3.13,18.74,2.93,26.7s-4.33,30.31-4.33,30.31c-7.93-2-8.88-7.29-10.41-10-3.66-18.61-1.26-35.6,2.18-41.19C767.77,119.5,774.69,118.06,774.69,118.06Z"/><path class="cls-101" d="M777.51,146.84c-2.32-6.56-4.28-15.67-8.18-17.58-7.34-1.83-5.14,16.5-1.54,23.38,2.18,4.17,4.38,6.48,8,7.52C776.56,155.36,777.24,150.38,777.51,146.84Z"/><path id="_Path_54" data-name="&lt;Path&gt;" class="cls-105" d="M775.71,116.78a11.23,11.23,0,0,1-1,1.28s2,4.35,2.67,6.27a10.15,10.15,0,0,0,2.58,3.53l2.59-2.79C779,123.17,775.71,116.78,775.71,116.78Z"/><path id="_Path_55" data-name="&lt;Path&gt;" class="cls-105" d="M784.21,118.21c-.23-.29-.83,5.41-1.69,6.85a10.5,10.5,0,0,0,2.62,2S786.16,120.66,784.21,118.21Z"/><g id="_Group_10" data-name="&lt;Group&gt;"><polygon id="_Path_56" data-name="&lt;Path&gt;" class="cls-110" points="774.33 168.29 839.55 205.94 920.31 159.31 855.09 121.66 774.33 168.29"/><g id="_Group_11" data-name="&lt;Group&gt;"><path id="_Path_57" data-name="&lt;Path&gt;" class="cls-110" d="M779.16,169.44a4.41,4.41,0,0,1-4,0,1.22,1.22,0,0,1,0-2.3,4.41,4.41,0,0,1,4,0A1.22,1.22,0,0,1,779.16,169.44Z"/></g><g id="_Group_12" data-name="&lt;Group&gt;"><path id="_Path_58" data-name="&lt;Path&gt;" class="cls-110" d="M919.49,160.47a4.41,4.41,0,0,1-4,0,1.22,1.22,0,0,1,0-2.3,4.41,4.41,0,0,1,4,0A1.22,1.22,0,0,1,919.49,160.47Z"/><path id="_Path_59" data-name="&lt;Path&gt;" class="cls-111" d="M918.95,221.77a3.22,3.22,0,0,1-2.91,0,.89.89,0,0,1,0-1.68,3.22,3.22,0,0,1,2.91,0A.89.89,0,0,1,918.95,221.77Z"/><polygon id="_Path_60" data-name="&lt;Path&gt;" class="cls-111" points="914.67 159.31 915.43 220.92 919.55 220.92 920.31 159.31 914.67 159.31"/></g><g id="_Group_13" data-name="&lt;Group&gt;"><path id="_Path_61" data-name="&lt;Path&gt;" class="cls-110" d="M841.34,205.32a4.41,4.41,0,0,1-4,0,1.22,1.22,0,0,1,0-2.3,4.41,4.41,0,0,1,4,0A1.22,1.22,0,0,1,841.34,205.32Z"/><path id="_Path_62" data-name="&lt;Path&gt;" class="cls-111" d="M840.8,266.61a3.22,3.22,0,0,1-2.91,0,.89.89,0,0,1,0-1.68,3.22,3.22,0,0,1,2.91,0A.89.89,0,0,1,840.8,266.61Z"/><polygon id="_Path_63" data-name="&lt;Path&gt;" class="cls-111" points="836.52 204.16 837.28 265.77 841.4 265.77 842.16 204.16 836.52 204.16"/></g><g id="_Group_14" data-name="&lt;Group&gt;"><path id="_Path_64" data-name="&lt;Path&gt;" class="cls-110" d="M857,124.44a4.41,4.41,0,0,1-4,0,1.22,1.22,0,0,1,0-2.3,4.41,4.41,0,0,1,4,0A1.22,1.22,0,0,1,857,124.44Z"/><path id="_Path_65" data-name="&lt;Path&gt;" class="cls-110" d="M856.43,185.74a3.22,3.22,0,0,1-2.91,0,.89.89,0,0,1,0-1.68,3.22,3.22,0,0,1,2.91,0A.89.89,0,0,1,856.43,185.74Z"/><polygon id="_Path_66" data-name="&lt;Path&gt;" class="cls-110" points="852.15 123.29 852.91 184.9 857.03 184.9 857.79 123.29 852.15 123.29"/></g><g id="_Group_15" data-name="&lt;Group&gt;"><path id="_Path_67" data-name="&lt;Path&gt;" class="cls-112" d="M941.36,145.13c0,7.05-4.3,13.79-13,18.82l-80.76,46.63c-19.3,11.14-53,9.75-75.3-3.12h0c-11.94-6.89-18.17-15.67-18.42-24.06l0,0v3.7h0c.24,8.39,6.47,17.19,18.42,24.09h0c22.29,12.87,56,14.26,75.3,3.12l80.76-46.63c8.73-5,13-11.78,13-18.85h0v-3.7Z"/><path id="_Path_68" data-name="&lt;Path&gt;" class="cls-111" d="M772.35,207.51h0c22.29,12.87,56,14.26,75.3,3.12L928.41,164c8.72-5,13-11.76,13-18.82,0-8.56-6.2-17.6-18.42-24.66h0c-22.29-12.87-56-14.26-75.3-3.12L766.94,164c-9,5.18-13.24,12.15-13,19.42C754.18,191.84,760.41,200.62,772.35,207.51Z"/><g id="_Group_16" data-name="&lt;Group&gt;"><path id="_Path_69" data-name="&lt;Path&gt;" class="cls-101" d="M916.72,158.73l-12.16-7L884,163.57l-1.58.23v.41a.44.44,0,0,0,.22.4L895,171.77a1.63,1.63,0,0,0,1.47-.06l20.55-11.87c.27-.15.38-.35.35-.54v-.68Z"/><g id="_Group_17" data-name="&lt;Group&gt;"><path id="_Path_70" data-name="&lt;Path&gt;" class="cls-103" d="M904.56,151l-22.13,12.77-5.18-16.36a1.14,1.14,0,0,1,.41-1.28l20.9-12.07c.38-.22.8,0,1,.49Z"/><polygon id="_Path_71" data-name="&lt;Path&gt;" class="cls-113" points="903.39 150.36 882.97 162.15 878.29 147.69 898.92 135.78 903.39 150.36"/></g><g id="_Group_18" data-name="&lt;Group&gt;"><path id="_Path_72" data-name="&lt;Path&gt;" class="cls-103" d="M917.07,159.16,896.52,171a1.63,1.63,0,0,1-1.47.06l-12.61-7.28L904.56,151l12.61,7.28C917.55,158.53,917.5,158.91,917.07,159.16Z"/><path id="_Path_73" data-name="&lt;Path&gt;" class="cls-103" d="M917.07,159.16,896.52,171a1.63,1.63,0,0,1-1.47.06l-12.61-7.28L904.56,151l12.61,7.28C917.55,158.53,917.5,158.91,917.07,159.16Z"/><polygon id="_Path_74" data-name="&lt;Path&gt;" class="cls-114" points="910.65 155.77 890.64 167.32 884.67 163.88 904.68 152.32 910.65 155.77"/><path id="_Path_75" data-name="&lt;Path&gt;" class="cls-101" d="M907.87,163l-4.77,2.75a1,1,0,0,1-.91,0l-2.29-1.32c-.23-.14-.2-.37.07-.53l4.77-2.75a1,1,0,0,1,.91,0l2.29,1.32C908.17,162.57,908.14,162.81,907.87,163Z"/></g></g><path id="_Path_76" data-name="&lt;Path&gt;" class="cls-115" d="M768.11,194.55c.51-1,10-18.75,10-18.75l14.06,4.59s-8.28,21.9-9.39,21.43S768.11,194.55,768.11,194.55Z"/></g><polygon id="_Path_77" data-name="&lt;Path&gt;" class="cls-115" points="797.82 156.92 809.35 148.1 830.39 149.97 818.32 159.02 797.82 156.92"/><g id="_Group_19" data-name="&lt;Group&gt;"><path id="_Path_78" data-name="&lt;Path&gt;" class="cls-116" d="M811.93,191h-.17l-.09-.07L802,185.37a1.66,1.66,0,0,0-1.49.06L787.46,193a1,1,0,0,0-.18.14l-.18,0v.35h0a.44.44,0,0,0,.25.36L797,199.4a1.66,1.66,0,0,0,1.49-.06l13.06-7.54a.61.61,0,0,0,.36-.48h0Z"/><path id="_Path_79" data-name="&lt;Path&gt;" class="cls-117" d="M797,199.08l-9.65-5.57c-.38-.22-.33-.61.11-.86l13.06-7.54A1.66,1.66,0,0,1,802,185l9.65,5.57c.38.22.33.61-.11.86L798.5,199A1.66,1.66,0,0,1,797,199.08Z"/><polygon id="_Path_80" data-name="&lt;Path&gt;" class="cls-118" points="797.98 198.46 788.43 192.95 801.38 185.48 810.92 190.99 797.98 198.46"/></g></g><g id="_Group_20" data-name="&lt;Group&gt;"><path id="_Path_81" data-name="&lt;Path&gt;" class="cls-103" d="M790.82,116.22c5.49,2.46,4.24,17.13,8.44,20.8,2.38,2.09,14.07,4.76,17.32,4.82,1.27,2.61-1,5.54-1,5.54-19.95-1.6-21.37-2.09-26-10.15C786,130.95,783.48,114.55,790.82,116.22Z"/><path id="_Path_82" data-name="&lt;Path&gt;" class="cls-119" d="M815.93,142.66s5.4-.65,6.4-.19a20.74,20.74,0,0,1,4,2.53c.64.65,2.68,2.39,1,2.81a15.91,15.91,0,0,1-4.3-1.13c-.82-.37-2.3-.8-2.3-.43s3.77,1.36,3.25,2.2-1.43.2-4.09-.7a39.28,39.28,0,0,0-5.28-1.34C814.11,144.49,814.7,143.34,815.93,142.66Z"/></g><g id="_Group_21" data-name="&lt;Group&gt;"><path id="_Path_83" data-name="&lt;Path&gt;" class="cls-102" d="M807.34,145.79l-3.85,4.91a.33.33,0,0,0,.52.41l3.85-4.91a.33.33,0,0,0-.52-.41"/><path id="_Path_84" data-name="&lt;Path&gt;" class="cls-108" d="M800.14,148.26c1.72.87,4.59.33,4.59.66a1.73,1.73,0,0,1-1.76,1.32C801.76,150.24,800.14,148.26,800.14,148.26Z"/><path id="_Path_85" data-name="&lt;Path&gt;" class="cls-108" d="M795.38,150.9c1-1.1,3.53-3.63,5.56-2.31a10.63,10.63,0,0,0,4,1.54c.66-1,1.65-.22,2.31,1.21s-3.63,3.19-4.29,3.74-7.59-.57-7.59-.57Z"/></g><g id="_Group_22" data-name="&lt;Group&gt;"><path id="_Path_86" data-name="&lt;Path&gt;" class="cls-103" d="M769.33,125.07c5.49,2.69,7.15,19.65,11.34,23.67,2.38,2.28,11.9.46,15.14.52,1.27,2.86-.45,6.32-.45,6.32-18.3,2.17-23,1.68-27.58-7.13C764.18,141.57,762,123.24,769.33,125.07Z"/></g><path id="_Path_87" data-name="&lt;Path&gt;" class="cls-108" d="M923.26,83.23a8.16,8.16,0,0,0-3.1-4.46,6.65,6.65,0,0,0-1.31-.66,2.06,2.06,0,0,0-.64-.16c-.17,0-.52-.1-.66,0a.3.3,0,0,0,0,.34,2.28,2.28,0,0,0,1,.91,2.74,2.74,0,0,1,1.19,1.67,12.94,12.94,0,0,0-2.08-2,12.69,12.69,0,0,0-2.56-1.19,2.44,2.44,0,0,0-1.2-.22c-.47.07-.67.45-.35.83a3.77,3.77,0,0,0,1.11.67A8,8,0,0,1,916,80a3.67,3.67,0,0,1,.56.57c.11.15.24.49.42.56a15.62,15.62,0,0,1-1.47-.72c-.42-.23-.85-.35-1.28-.56s-.72-.46-1.09-.66a.7.7,0,0,0-.64-.1.46.46,0,0,0-.21.42,1,1,0,0,0,.16.46,2.37,2.37,0,0,0,.9.85,9.66,9.66,0,0,1,.89.62c.39.27.77.54,1.13.84.18.15.36.3.53.46s.3.39.46.47q-1.14-.62-2.23-1.33a5.83,5.83,0,0,1-.8-.57,2,2,0,0,0-1-.53.41.41,0,0,0-.28,0,.31.31,0,0,0-.12.33.88.88,0,0,0,.18.33,11.3,11.3,0,0,0,1.48,1.65,5.06,5.06,0,0,0,1.82,1.25A5.39,5.39,0,0,1,913,83.17a2.14,2.14,0,0,0-1.12-.65.35.35,0,0,0-.36.11c-.07.12,0,.27.07.39a5.52,5.52,0,0,0,2.07,2.19c.48.23.9.6,1.36.87s1,.57,1.5.87a16.52,16.52,0,0,0,3.9,1.78,4,4,0,0,0,1.15.15,1.29,1.29,0,0,0,.94-.36,3.36,3.36,0,0,0,1.05-1.82,5.88,5.88,0,0,0-.05-2.5C923.45,83.88,923.37,83.55,923.26,83.23Z"/><path id="_Path_88" data-name="&lt;Path&gt;" class="cls-108" d="M911.11,84c-.38-2.21-.91-4.81-2.29-6.63a.44.44,0,0,0-.22-.18c-.22-.06-.37.22-.4.44a4.63,4.63,0,0,0,.42,1.88,5.47,5.47,0,0,1,.11,2.24l-.14-.2c-1.11-1.46-1.66-3.46-2.4-5.15-.09-.2-.21-.42-.43-.43s-.42.38-.42.68a8.22,8.22,0,0,0,.89,3.77,14.6,14.6,0,0,1-1.5-2.86c-.1-.24-.24-.53-.5-.55-1.07-.08.28,4,.48,4.56A6.51,6.51,0,0,1,903.58,79a1.56,1.56,0,0,0-.16-.52c-.11-.18-.4-.35-.57-.17a1.65,1.65,0,0,0-.19.79,4,4,0,0,0,.32,1.78c.32.82.79,1.57,1.06,2.41l-1.4-1.74c-.1-.12-.23-.25-.38-.23s-.27.31-.2.5a10.28,10.28,0,0,0,2,3.6c.45.51,1,.91,1.45,1.42A4.4,4.4,0,0,0,907.21,88a4.54,4.54,0,0,0,2.09.35,1.41,1.41,0,0,0,1.2-.6,3,3,0,0,0,.62-1.29A8,8,0,0,0,911.11,84Z"/><path id="_Path_89" data-name="&lt;Path&gt;" class="cls-101" d="M923.68,82.81l9.08,3.09c-.91-11.89,1.19-24.53,6.17-20,2.87,2.61,3,24.84.83,28.12s-11.68-1.43-18.3-4.76C921.28,86.39,923.68,82.81,923.68,82.81Z"/><g id="_Group_23" data-name="&lt;Group&gt;"><path id="_Path_90" data-name="&lt;Path&gt;" class="cls-108" d="M762.26,149.39a18.72,18.72,0,0,1,7.5.2,8.91,8.91,0,0,1,6.54,6.89c.89,3.5,1.15,9.33-.85,12.58-1.25,2-4,1.65-6,1.12a23.53,23.53,0,0,1-7.53-3.17c-2.75-2.08-4.21-6.63-4.37-9.92-.15-2.83,1.32-7.15,4.75-7.71"/><path id="_Path_91" data-name="&lt;Path&gt;" class="cls-103" d="M759.42,150c-2.19,1.45-2,4.77-1.91,7.06.17,3.29,1.62,7.84,4.37,9.92a8.19,8.19,0,0,0,3.63,1.91,11.74,11.74,0,0,0,1.17-.8,3.33,3.33,0,0,0,1.26-3.64c-.41-1.33-.45-2.92.3-3.32,1.23-.67,2,1.71,2,1.71a1.82,1.82,0,0,0,1.19-2.49,4.22,4.22,0,0,1,0-2.9c2.17,0,3.18-2.92,3.87-3.3,1.47-.82,2-1.15,1.72-2.55a4.3,4.3,0,0,0-1.21-2.45,14.67,14.67,0,0,0-4.36-1.95C765.46,145.73,760.8,146.81,759.42,150Z"/></g><path id="_Path_92" data-name="&lt;Path&gt;" class="cls-103" d="M772.87,171.85c-5.42-2-11.69-5.59-20.46,1.44s-6.38,35.49-4.21,42,16.73,7,21.08,6.47.06-8.08,1.51-13.05S783.65,175.86,772.87,171.85Z"/><path id="_Path_93" data-name="&lt;Path&gt;" class="cls-103" d="M775.76,173c2.29,1.39,8.21,18.71,8.21,18.71l2.15-13.59s4.85-2.31,7.67.76c-1.94,13.17-3,26.69-7.67,27.45s-12.42-11.73-16.59-17.83S768.8,168.8,775.76,173Z"/><polygon id="_Path_94" data-name="&lt;Path&gt;" class="cls-102" points="790.06 169.98 794.48 166.69 795.62 166.35 795.09 167.12 790.37 170.61 790.06 169.98"/><path id="_Path_95" data-name="&lt;Path&gt;" class="cls-108" d="M787.11,178.93c0-.42-1.7-4.58-1-6.12a11.57,11.57,0,0,1,1.53-2.53c.73-2.37,2.73-2.12,4.3-.57s3.78,5.38.94,8.61A4.65,4.65,0,0,1,787.11,178.93Z"/><g id="_Group_24" data-name="&lt;Group&gt;"><path id="_Path_96" data-name="&lt;Path&gt;" class="cls-104" d="M731.07,183v.22c-1.73-.15-3.69,1.31-4.48,3.36-1.43,3.68.48,43.75,3.92,42.89,1.09,1.14,25,14.44,25,14.44l1.38-46S740,183.23,731.07,183Z"/><path id="_Path_97" data-name="&lt;Path&gt;" class="cls-109" d="M755.52,243.91c-3.44.85-5.35-39.21-3.92-42.89s6.6-5.47,7.49.58S764.61,241.66,755.52,243.91Z"/></g><g id="_Group_25" data-name="&lt;Group&gt;"><path id="_Path_98" data-name="&lt;Path&gt;" class="cls-108" d="M849.75,124.35c1.72.87,4.59.33,4.59.66a1.73,1.73,0,0,1-1.76,1.32C851.37,126.33,849.75,124.35,849.75,124.35Z"/><path id="_Path_99" data-name="&lt;Path&gt;" class="cls-108" d="M845,127c1-1.1,3.53-3.63,5.56-2.31a10.63,10.63,0,0,0,4,1.54c.66-1,1.65-.22,2.31,1.21s-3.63,3.19-4.29,3.74-7.59-.57-7.59-.57Z"/></g><g id="_Group_26" data-name="&lt;Group&gt;"><path id="_Path_100" data-name="&lt;Path&gt;" class="cls-101" d="M934.77,183.88s-17.82-6.12-25.35-5.21-5.85,33.52-5.85,33.52a26.89,26.89,0,0,0,8,0c1.69-9.06,4.41-19,4.41-19s16.4,4.74,18.84,2.37S934.77,183.88,934.77,183.88Z"/><g id="_Group_27" data-name="&lt;Group&gt;"><g id="_Group_28" data-name="&lt;Group&gt;"><path id="_Path_101" data-name="&lt;Path&gt;" class="cls-101" d="M912.44,225.28a1,1,0,0,0,.27.65,2.26,2.26,0,0,0,1.1.62,4,4,0,0,0,2.14,0l8.75-2.31c1.46-.38,3.14.11,3.46,1l1.89,5.41a2.52,2.52,0,0,0,2.42,1.14l.39,0a2.91,2.91,0,0,0,1.77-.7,1.08,1.08,0,0,0,.33-.57v0a.79.79,0,0,0,0-.28l-.73-3.83-.32-1.67c-.17-.92,1.17-1.69,2.76-1.59l9.66.61h.27a4.06,4.06,0,0,0,1.15-.16,1.81,1.81,0,0,0,1.32-1.05c.21-.76-.65-1.47-1.95-1.62l-9.46-1.1a3.53,3.53,0,0,1-1.08-.29c-.83-.4-1.16-1.09-.67-1.7l3.35-4.23.67-.85a1,1,0,0,0,.22-.48.89.89,0,0,0,0-.12c0-.52-.49-1-1.35-1.27a3.6,3.6,0,0,0-3.29.58l-4.79,4.86a3.68,3.68,0,0,1-3.84.36l-7.11-3.76a3.9,3.9,0,0,0-3.43,0,1.2,1.2,0,0,0-.73,1.09,1.22,1.22,0,0,0,.64.9l.57.35,5.93,3.75c1.06.67.78,1.73-.57,2.2l-.05,0L913.71,224C912.9,224.29,912.44,224.78,912.44,225.28Z"/><path id="_Path_102" data-name="&lt;Path&gt;" class="cls-101" d="M936.57,219.52l3.35-4.23a1,1,0,0,0,.22-.49v-2.54a1,1,0,0,1-.22.48l-.67.85-3.35,4.23C935.4,218.44,935.73,219.13,936.57,219.52Z"/><path id="_Path_103" data-name="&lt;Path&gt;" class="cls-101" d="M920,219.7a.33.33,0,0,0,0-.1,1.06,1.06,0,0,0,0-.13Z"/><path id="_Path_104" data-name="&lt;Path&gt;" class="cls-101" d="M933.9,224.72l.32,1.67a3.28,3.28,0,0,1,2.43-.71l9.66.61h.27c1.21,0,2.27-.51,2.47-1.22v-2.55a1.81,1.81,0,0,1-1.32,1.05,4.06,4.06,0,0,1-1.15.16h-.27l-9.66-.61C935.07,223,933.72,223.8,933.9,224.72Z"/><path id="_Path_105" data-name="&lt;Path&gt;" class="cls-101" d="M928.88,229.54V230A.8.8,0,0,0,928.88,229.54Z"/><path id="_Path_106" data-name="&lt;Path&gt;" class="cls-101" d="M912.44,225.28v2.57a1,1,0,0,0,.27.62,3.47,3.47,0,0,0,3.24.65l8.75-2.32c1.46-.38,3.14.11,3.46,1l1.89,5.41a2.5,2.5,0,0,0,2.41,1.14l.41,0c1.15-.1,2-.65,2.09-1.3v-2.52a1.08,1.08,0,0,1-.33.57,2.91,2.91,0,0,1-1.77.7l-.39,0a2.52,2.52,0,0,1-2.42-1.14l-1.89-5.41c-.32-.9-2-1.4-3.46-1l-8.75,2.31a4,4,0,0,1-2.14,0,2.26,2.26,0,0,1-1.1-.62A1,1,0,0,1,912.44,225.28Z"/><path id="_Path_107" data-name="&lt;Path&gt;" class="cls-101" d="M915.6,214v2.47a1.18,1.18,0,0,0,.64,1l5.93,3.74c1.34-.46,1.62-1.53.57-2.2l-5.93-3.75-.57-.35A1.22,1.22,0,0,1,915.6,214Z"/></g><ellipse id="_Path_108" data-name="&lt;Path&gt;" class="cls-102" cx="914.82" cy="229.82" rx="2.21" ry="2.2" transform="translate(-13.33 61.74) rotate(-3.84)"/><ellipse id="_Path_109" data-name="&lt;Path&gt;" class="cls-102" cx="932.44" cy="235.31" rx="2.21" ry="2.2" transform="translate(-13.66 62.93) rotate(-3.84)"/><ellipse id="_Path_110" data-name="&lt;Path&gt;" class="cls-102" cx="946.87" cy="227.35" rx="2.21" ry="2.2" transform="translate(-13.1 63.9) rotate(-3.84)"/><ellipse id="_Path_111" data-name="&lt;Path&gt;" class="cls-102" cx="938.79" cy="218.09" rx="2.21" ry="2.2" transform="translate(-12.49 63.32) rotate(-3.84)"/><ellipse id="_Path_112" data-name="&lt;Path&gt;" class="cls-102" cx="917.03" cy="219.06" rx="2.21" ry="2.2" transform="translate(-12.61 61.87) rotate(-3.84)"/></g><path id="_Path_113" data-name="&lt;Path&gt;" class="cls-103" d="M927.16,222.54c0,2.91,6.21,2.34,6.21,0V202.23h-6.21Z"/><g id="_Group_29" data-name="&lt;Group&gt;"><path id="_Path_114" data-name="&lt;Path&gt;" class="cls-103" d="M905.64,202.11c1.58,1.48,20.53,12,24.07,13.91a1.37,1.37,0,0,0,1.39,0h0c2-1.26,3-5.71-.85-8.54-1.12-.84-21.31-14.41-24.52-13.48h0l-.1,0a1.14,1.14,0,0,0-.29.19C903.8,195.49,904,200.56,905.64,202.11Z"/><path id="_Path_115" data-name="&lt;Path&gt;" class="cls-101" d="M905.75,194c3.21-.93,23.4,12.65,24.52,13.48,3.81,2.83,2.83,7.28.85,8.54l22.42-13,.77-.45h0c1.76-1.5,2.45-5.64-1.16-8.32-1.13-.84-21.79-14.73-24.63-13.43l-.19.11Z"/></g><path id="_Path_116" data-name="&lt;Path&gt;" class="cls-108" d="M894.54,162.95a5.28,5.28,0,0,0-1.56-2.33c-1.08-.8-2.63-1.93-3.37-1.51s1.67,2.3,1.67,2.3a20.21,20.21,0,0,0-6.17-1.3c-1.1-.06-4.39,1.19-3.74,2.18s3.25,2.35,4.37,3a14.39,14.39,0,0,0,7.25,1.48C895.56,166.42,894.54,162.95,894.54,162.95Z"/><path id="_Path_117" data-name="&lt;Path&gt;" class="cls-103" d="M934.77,186.25c.76,12-12.78,17.69-32.24,12.25,0,0-1.34,5.54-5.11,22.2a25.25,25.25,0,0,1-8.81,0s-.57-32.58,8.81-34,28.13-1.6,28.1-2.06Z"/><g id="_Group_30" data-name="&lt;Group&gt;"><path id="_Path_118" data-name="&lt;Path&gt;" class="cls-108" d="M926.7,119.06a18.72,18.72,0,0,0-7.5.2,8.91,8.91,0,0,0-6.54,6.89c-.89,3.5-1.15,9.33.85,12.58,1.25,2,4,1.65,6,1.12a23.53,23.53,0,0,0,7.53-3.17c2.75-2.08,4.21-6.63,4.37-9.92.15-2.83-1.32-7.15-4.75-7.71"/><path id="_Path_119" data-name="&lt;Path&gt;" class="cls-109" d="M929.55,119.71c2.19,1.45,2,4.76,1.91,7.06-.17,3.29-1.62,7.84-4.37,9.92a8.19,8.19,0,0,1-3.63,1.91,11.77,11.77,0,0,1-1.17-.8,3.33,3.33,0,0,1-1.26-3.64c.41-1.33.45-2.92-.3-3.32-1.23-.67-2,1.71-2,1.71a1.82,1.82,0,0,1-1.19-2.49,4.22,4.22,0,0,0,0-2.9c-2.17,0-3.18-2.92-3.87-3.3-1.47-.82-2-1.15-1.72-2.55a4.3,4.3,0,0,1,1.21-2.45,14.66,14.66,0,0,1,4.36-1.95C923.51,115.4,928.16,116.48,929.55,119.71Z"/></g><path id="_Path_120" data-name="&lt;Path&gt;" class="cls-105" d="M915.18,141.5c4.69-3.29,10.85-7.62,19.62-.59s8.14,37.54,6,44-16.73,7-21.08,6.47-.06-8.08-1.51-13.05S905.77,148.11,915.18,141.5Z"/><path class="cls-120" d="M913.2,148.14a7.91,7.91,0,0,0-1.79,2.71c-.08,6,2,13.32,3.85,19,1.48-2.14,2.89-4.35,4.18-6.24C923.62,157.54,920.16,143.91,913.2,148.14Z"/><g id="_Group_31" data-name="&lt;Group&gt;"><path id="_Path_121" data-name="&lt;Path&gt;" class="cls-104" d="M957.89,152.66v.22c1.73-.15,3.69,1.31,4.48,3.36,1.43,3.68-.48,43.75-3.92,42.89-1.09,1.14-25,14.44-25,14.44l-1.38-46S949,152.9,957.89,152.66Z"/><path id="_Path_122" data-name="&lt;Path&gt;" class="cls-103" d="M933.45,213.57c3.44.85,5.35-39.21,3.92-42.89s-6.6-5.47-7.49.58S924.35,211.32,933.45,213.57Z"/></g><path id="_Path_123" data-name="&lt;Path&gt;" class="cls-105" d="M913.68,143.46c-2.29,1.39-8.85,20.93-8.85,20.93l-9.88-2.9c-1.28,0-4.22,2.27-3.6,5.12,6.2,4.66,9.58,6.42,14.27,7.18s10.12-8.73,14.3-14.83S920.64,139.22,913.68,143.46Z"/></g><g id="_Group_32" data-name="&lt;Group&gt;"><path id="_Path_124" data-name="&lt;Path&gt;" class="cls-101" d="M869.32,186.2l-12.16-7L836.62,191l-1.58.23v.41a.44.44,0,0,0,.22.4l12.39,7.15a1.63,1.63,0,0,0,1.47-.06l20.55-11.87c.27-.15.38-.35.35-.54v-.68Z"/><g id="_Group_33" data-name="&lt;Group&gt;"><path id="_Path_125" data-name="&lt;Path&gt;" class="cls-103" d="M857.16,178.5,835,191.28l-5.18-16.36a1.14,1.14,0,0,1,.41-1.28l20.9-12.07c.38-.22.8,0,1,.49Z"/><polygon id="_Path_126" data-name="&lt;Path&gt;" class="cls-109" points="855.99 177.83 835.57 189.62 830.89 175.16 851.52 163.25 855.99 177.83"/></g><g id="_Group_34" data-name="&lt;Group&gt;"><path id="_Path_127" data-name="&lt;Path&gt;" class="cls-103" d="M869.67,186.63,849.12,198.5a1.63,1.63,0,0,1-1.47.06L835,191.28l22.13-12.77,12.61,7.28C870.15,186,870.1,186.38,869.67,186.63Z"/><path id="_Path_128" data-name="&lt;Path&gt;" class="cls-103" d="M869.67,186.63,849.12,198.5a1.63,1.63,0,0,1-1.47.06L835,191.28l22.13-12.77,12.61,7.28C870.15,186,870.1,186.38,869.67,186.63Z"/><polygon id="_Path_129" data-name="&lt;Path&gt;" class="cls-114" points="863.25 183.24 843.24 194.79 837.27 191.35 857.28 179.79 863.25 183.24"/><path id="_Path_130" data-name="&lt;Path&gt;" class="cls-101" d="M860.47,190.43l-4.77,2.75a1,1,0,0,1-.91,0l-2.29-1.32c-.23-.14-.2-.37.07-.53l4.77-2.75a1,1,0,0,1,.91,0l2.29,1.32C860.77,190,860.74,190.28,860.47,190.43Z"/></g></g><path id="_Path_131" data-name="&lt;Path&gt;" class="cls-101" d="M754.38,217.38c-.76,12,12.78,17.69,32.24,12.25,0,0,1.34,5.54,5.11,22.2,5.38.82,8.61-3.85,8.61-3.85s.77-28.73-8.61-30.16-28.13-1.6-28.1-2.06Z"/><g id="_Group_35" data-name="&lt;Group&gt;"><path id="_Path_132" data-name="&lt;Path&gt;" class="cls-108" d="M762.26,149.39a18.72,18.72,0,0,1,7.5.2,8.91,8.91,0,0,1,6.54,6.89c.89,3.5,1.15,9.33-.85,12.58-1.25,2-4,1.65-6,1.12a23.53,23.53,0,0,1-7.53-3.17c-2.75-2.08-4.21-6.63-4.37-9.92-.15-2.83,1.32-7.15,4.75-7.71"/><path id="_Path_133" data-name="&lt;Path&gt;" class="cls-101" d="M759.42,150c-2.19,1.45-2.24,4.9-2.13,7.2.17,3.29,1.84,7.71,4.59,9.78a8.19,8.19,0,0,0,3.63,1.91,11.74,11.74,0,0,0,1.17-.8,3.33,3.33,0,0,0,1.26-3.64c-.41-1.33-.45-2.92.3-3.32,1.23-.67,2,1.71,2,1.71a1.82,1.82,0,0,0,1.19-2.49,4.22,4.22,0,0,1,0-2.9c2.17,0,3.18-2.92,3.87-3.3,1.47-.82,2-1.15,1.72-2.55a4.3,4.3,0,0,0-1.21-2.45,14.67,14.67,0,0,0-4.36-1.95C765.46,145.73,760.8,146.81,759.42,150Z"/></g><path id="_Path_134" data-name="&lt;Path&gt;" class="cls-121" d="M772.87,171.85c-5.42-2-11.69-5.59-20.46,1.44s-6.38,35.49-4.21,42,16.73,7,21.08,6.47.06-8.08,1.51-13.05S783.65,175.86,772.87,171.85Z"/><path id="_Path_135" data-name="&lt;Path&gt;" class="cls-109" d="M775.76,173c2.29,1.39,8.21,18.71,8.21,18.71l2.15-13.59s4.85-2.31,7.67.76c-1.94,13.17-3,26.69-7.67,27.45s-12.42-11.73-16.59-17.83S768.8,168.8,775.76,173Z"/><polygon id="_Path_136" data-name="&lt;Path&gt;" class="cls-102" points="790.06 169.98 794.48 166.69 795.62 166.35 795.09 167.12 790.37 170.61 790.06 169.98"/><path id="_Path_137" data-name="&lt;Path&gt;" class="cls-108" d="M787.11,178.93c0-.42-1.7-4.58-1-6.12a11.57,11.57,0,0,1,1.53-2.53c.73-2.37,2.73-2.12,4.3-.57s3.78,5.38.94,8.61A4.65,4.65,0,0,1,787.11,178.93Z"/><g id="_Group_36" data-name="&lt;Group&gt;"><path id="_Path_138" data-name="&lt;Path&gt;" class="cls-104" d="M731.07,183v.22c-1.73-.15-3.69,1.31-4.48,3.36-1.43,3.68.48,43.75,3.92,42.89,1.09,1.14,25,14.44,25,14.44l1.38-46S740,183.23,731.07,183Z"/><path id="_Path_139" data-name="&lt;Path&gt;" class="cls-103" d="M755.52,243.91c-3.44.85-5.35-39.21-3.92-42.89s6.6-5.47,7.49.58S764.61,241.66,755.52,243.91Z"/></g><g id="_Group_37" data-name="&lt;Group&gt;"><path id="_Path_140" data-name="&lt;Path&gt;" class="cls-103" d="M895.36,265.27l-7.58-.68s-4.85,1.37-7.72,1.78-4.92-.07-5.6,1a1.15,1.15,0,0,0-.16.7h0s0,0,0,0c-.14,1.51,1.19,2.92,1.94,3.47,1.48,1.09,3.11,1.74,7.55,1.35,1.16-.46,3.23-.77,4,.39,1.16.55,5.6,1.16,7.58,0v-1C896.52,271.08,895.36,265.27,895.36,265.27Z"/><path id="_Path_141" data-name="&lt;Path&gt;" class="cls-122" d="M898.68,195.44c2.5,12.92-6.45,27-5.73,37.47,1,14.29,1.54,20.53,3,32.17,0,0-5.81,3.44-10.08-.5-4.38-22.8-6.31-26.89-5.7-68.61Z"/><g id="_Group_38" data-name="&lt;Group&gt;"><path id="_Path_142" data-name="&lt;Path&gt;" class="cls-108" d="M863.38,136c-2.57,3-.41,15.28,3.19,18.26s6.58,1.92,9.7-.73,4.95-9.26,4.2-14.24C879.45,132.55,870.69,127.52,863.38,136Z"/><path id="_Path_143" data-name="&lt;Path&gt;" class="cls-103" d="M862.49,137.3a7.42,7.42,0,0,0-.23,3.52,14.6,14.6,0,0,0,1.48,4.38c.41,1,.27,1.73.7,2.12s.36-2.83,1.37-3.64,2.47,2.69.44,4.84c-.3,2.13,2.45,5.72,3.46,6.31s5.22-.05,7.82-2.62,3.16-6.69,3.78-12-3.37-7.1-3.37-7.1c-.06-3.42-11.43-2.47-15.49-.68C860,133.64,862.49,137.3,862.49,137.3Z"/></g><path id="_Path_144" data-name="&lt;Path&gt;" class="cls-108" d="M846.89,202.57s-.7.24-2.36.93a17.24,17.24,0,0,1-7.44.57c-2.22-.35-5.29-.85-4.7-1.66s11.79-3.61,12.26-3.39S846.89,202.57,846.89,202.57Z"/><path id="_Path_145" data-name="&lt;Path&gt;" class="cls-103" d="M880.84,272.15l-7.58-.68s-4.85,1.37-7.72,1.78-4.92-.07-5.6,1a1.15,1.15,0,0,0-.16.7h0s0,0,0,0c-.14,1.51,1.19,2.92,1.94,3.47,1.48,1.09,3.11,1.74,7.55,1.35,1.16-.46,3.23-.77,4,.39,1.16.55,5.6,1.16,7.58,0v-1C882,278,880.84,272.15,880.84,272.15Z"/><path id="_Path_146" data-name="&lt;Path&gt;" class="cls-109" d="M892.93,198.71c.83,13.17-10,27.57-10.58,38.2-.86,14.57-.88,24.88-.91,36.74,0,0-9.69,4.59-10.13-2.5-1.42-23.25-3-29.36,3.06-71.89Z"/><path id="_Path_147" data-name="&lt;Path&gt;" class="cls-101" d="M867.56,156.47c5.41-2.7,14.18-10.1,21.35-.42,6.72,9.07,9.48,36.32,10.25,41.75,1,7.35-19.45,11.29-24,11.09a1.91,1.91,0,0,1-2-1.54c-.38-1.34.71-2.3.41-3.54a5.18,5.18,0,0,0-1.07-1.87,4.32,4.32,0,0,1-1-1.91c-.18-1.17.56-2.27.69-3.44a6.92,6.92,0,0,0-.35-2.54c-1.85-6.92-5.08-13.33-6.88-20.3-1.22-4.71-3-12.2.92-16.11A4.37,4.37,0,0,1,867.56,156.47Z"/><path id="_Path_148" data-name="&lt;Path&gt;" class="cls-101" d="M864.24,160.12c-4.34,13.74-4.74,20.55-9,26-.31.4-12,13-12,13a8.25,8.25,0,0,0,5.67,3.58c6.55-2.8,13.95-13.09,15.94-15.3,1.15-1.27,7.61-13.12,8.58-19.15S866.05,154.69,864.24,160.12Z"/></g><path id="_Path_149" data-name="&lt;Path&gt;" class="cls-101" d="M871.05,125.73l-12.16-7-20.54,11.86-1.58.23v.41a.44.44,0,0,0,.22.4l12.39,7.15a1.63,1.63,0,0,0,1.47-.06l20.55-11.87c.27-.15.38-.35.35-.54v-.68Z"/><g id="_Group_39" data-name="&lt;Group&gt;"><path id="_Path_150" data-name="&lt;Path&gt;" class="cls-103" d="M871.4,126.16,850.85,138a1.63,1.63,0,0,1-1.47.06l-12.61-7.28L858.9,118l12.61,7.28C871.89,125.53,871.84,125.91,871.4,126.16Z"/><path id="_Path_151" data-name="&lt;Path&gt;" class="cls-103" d="M871.4,126.16,850.85,138a1.63,1.63,0,0,1-1.47.06l-12.61-7.28L858.9,118l12.61,7.28C871.89,125.53,871.84,125.91,871.4,126.16Z"/><polygon id="_Path_152" data-name="&lt;Path&gt;" class="cls-101" points="870.27 125.98 850.26 137.54 844.29 134.09 864.3 122.54 870.27 125.98"/><path id="_Path_153" data-name="&lt;Path&gt;" class="cls-101" d="M856,125.55l-4.77,2.75a1,1,0,0,1-.91,0L848,127c-.23-.14-.2-.37.07-.53l4.77-2.75a1,1,0,0,1,.91,0l2.29,1.32C856.29,125.15,856.27,125.39,856,125.55Z"/></g><g id="_Group_40" data-name="&lt;Group&gt;"><path id="_Path_154" data-name="&lt;Path&gt;" class="cls-106" d="M820.08,102c5.49,2.69,6,18.83,10.2,22.86,2.38,2.28,11.9.46,15.14.52,1.27,2.86-.45,6.32-.45,6.32-18.13.89-20.31,1.45-24.92-7.37C816.44,117.42,812.74,100.13,820.08,102Z"/></g><g id="_Group_41" data-name="&lt;Group&gt;"><path class="cls-106" d="M856.51,120.77c-4.84-2.42-5.89-4.33-8.27-6.41-4.2-3.68-5.86-18.37-9.38-20.21-2.29-.52-3.5.56-4,2.48a8.3,8.3,0,0,0-.2,1.29,24.18,24.18,0,0,0,1.43,8.65,29,29,0,0,0,3.11,6.76,42.82,42.82,0,0,0,2.78,3.89c2.38,2.87,5.48,5.21,12.32,7.8C854.34,125,857.78,123.38,856.51,120.77Z"/><path id="_Path_155" data-name="&lt;Path&gt;" class="cls-108" d="M854.53,124.47a18,18,0,0,0,1.9,2.3c.84,1,2.17,2.59,2.58,2.18s-.38-2-.38-2a28,28,0,0,1,2.92,3.15c.44.79.19-1.49-.44-2.54,1.59,2.41,2,3,2.1,2.35s-1.19-3.88-1-3.56c1.83,2.76,2.53,3.15,2.34,1.87a7.88,7.88,0,0,0-3.05-4c3.18,2.07,3.4,1.84,2.61.92a13.73,13.73,0,0,0-7.67-3.72C853.93,123.72,854.53,124.47,854.53,124.47Z"/></g><path id="_Path_156" data-name="&lt;Path&gt;" class="cls-108" d="M856.65,129.55c-1-1.59-2.52-3.42-4.42-3.94a7.19,7.19,0,0,0-4,.34,34.12,34.12,0,0,0-3.56.95,9,9,0,0,0-.73,3.38,3.25,3.25,0,0,0,.7.16,24.48,24.48,0,0,0,3.33.49,13,13,0,0,0,2.6,0c-.28.08-.6.21-.65.5a.51.51,0,0,0,.41.52c1.62.42,3-1.55,4-2.47C854.23,129.57,858,131.61,856.65,129.55Z"/><path id="_Path_157" data-name="&lt;Path&gt;" class="cls-123" d="M839.6,78l.07.1a6.37,6.37,0,0,1,.68,3.78c-.15,2.36-1.74,5.26-.62,7.54.48,1,1.45,1.67,1.75,2.71.41,1.43-.62,2.9-1.87,3.71a6.26,6.26,0,0,1-5.31.76,5,5,0,0,1-3.39-4c-.26-2.23,1.13-4.28,2.37-6.15a8.91,8.91,0,0,0,1.78-3.81c.08-1.23-.58-2.3-.33-3.61a2.94,2.94,0,0,1,1.61-2.22A2.84,2.84,0,0,1,839.6,78Z"/><path id="_Path_158" data-name="&lt;Path&gt;" class="cls-108" d="M826.4,88.42s1.45,5.05-1.88,7.17c-.1,1.23,3.39,6.45,6.9,5.56,2-.52,3.09-3.44,3.09-3.44a56.61,56.61,0,0,0-1.24-5.66Z"/><g id="_Group_42" data-name="&lt;Group&gt;"><path id="_Path_159" data-name="&lt;Path&gt;" class="cls-108" d="M838.23,78.16a16.83,16.83,0,0,1,.57,5.69c-.34,2.49-.57,7.44-2.77,9s-5.36-.26-7.46-2a12.43,12.43,0,0,1-4.36-9c0-4,1.5-8.82,7.22-8.57S838.23,78.16,838.23,78.16Z"/></g><path id="_Path_160" data-name="&lt;Path&gt;" class="cls-123" d="M834.23,75.73c1.48,1.81.78,4-1.05,5.37-.87.64-1.91,1-2.78,1.68A3.08,3.08,0,0,0,829,85.52c.14,1,1,1.85.76,2.81-.19.79-1.06,1.28-1.22,2.08s.46,1.52.85,2.25a4.35,4.35,0,0,1,.08,3.91c-1.34,2.75-4.74,2.57-7.16,1.42a6.1,6.1,0,0,1-3.52-6.92c.41-1.49,1.39-2.75,1.89-4.21.64-1.86.45-3.88.58-5.83.24-3.72,3-7.88,6.93-8.45C830.73,72.19,832.68,73.84,834.23,75.73Z"/><path id="_Path_161" data-name="&lt;Path&gt;" class="cls-123" d="M836.18,73.52l0,0c-1.11-.75-5.65-2.16-5.67.16s3.37,4.63,5.17,5.65A19.15,19.15,0,0,1,838,80.67c.93.73,1,2.11,1.84,2.74,1.26-1.21.94-4.19.43-5.67C839.57,75.77,837.84,74.65,836.18,73.52Z"/><g id="_Group_43" data-name="&lt;Group&gt;"><path id="_Path_162" data-name="&lt;Path&gt;" class="cls-103" d="M871.4,126.16,850.85,138l7.28-15.27a3.45,3.45,0,0,1,1.11-1.28l19.33-11.16c.38-.22.49,0,.25.49Z"/></g><path class="cls-121" d="M769.65,170.61v-1.17a13.37,13.37,0,0,0-6.08-2c-3.11-.06-4.58.66-4.69,1a12.23,12.23,0,0,0-.23,1.44Z"/><path class="cls-123" d="M833.63,93.45a13.81,13.81,0,0,0-.16,2.42c.12.35.82.76.82.76h1.38Z"/><path class="cls-107" d="M842.73,106.7a15.12,15.12,0,0,0-1.11-5.74c0,.32,0,.65.06,1a87.51,87.51,0,0,1-1.09,13.34c.46.66.93,1.29,1.43,1.89A71.41,71.41,0,0,0,842.73,106.7Z"/><path class="cls-101" d="M793.78,123.75c0,4.24-1.36,11.13-2.47,16.24a17.65,17.65,0,0,0,1.34,1.79c1-4.95,2-10.7,1.89-14.19A11.24,11.24,0,0,0,793.78,123.75Z"/></g><g id="_Group_44" data-name="&lt;Group&gt;"><polygon id="_Path_163" data-name="&lt;Path&gt;" class="cls-109" points="796.87 90.16 791.63 87.14 791.63 72.9 796.87 75.92 796.87 90.16"/><polygon id="_Path_164" data-name="&lt;Path&gt;" class="cls-124" points="788.62 85.41 783.39 82.38 783.39 62.76 788.62 65.78 788.62 85.41"/><polygon id="_Path_165" data-name="&lt;Path&gt;" class="cls-106" points="805.11 94.92 799.87 91.9 799.87 63.07 805.11 66.1 805.11 94.92"/></g><g id="_Group_45" data-name="&lt;Group&gt;"><path id="_Path_166" data-name="&lt;Path&gt;" class="cls-101" d="M875.31,79.24h0a3.34,3.34,0,0,0-2-2.71,10.4,10.4,0,0,0-9.41,0A3.27,3.27,0,0,0,862,79.24h0v6.06h0A3.34,3.34,0,0,0,864,88a10.4,10.4,0,0,0,9.41,0,3.27,3.27,0,0,0,1.93-2.73h0Z"/><path id="_Path_167" data-name="&lt;Path&gt;" class="cls-106" d="M880.59,65.76a21.63,21.63,0,0,0,2.25-4.45,24.44,24.44,0,0,0,1.34-7.07,13.93,13.93,0,0,0-5.88-12.3,6.16,6.16,0,0,0-1.06-.58c-4-1.89-12.12-2.92-18.2,1.36-3.35,1.43-6.86,7.11-5.66,13.49a31.4,31.4,0,0,0,4.38,11.13c2.11,3.31,3.86,6.32,4.48,10.16l.05.19c-.14.93.48,1.88,1.87,2.59a11.12,11.12,0,0,0,9.06,0c1.39-.71,2-1.68,1.83-2.62a29.08,29.08,0,0,1,3.71-8.93C879.34,67.72,880,66.74,880.59,65.76Z"/><path id="_Path_168" data-name="&lt;Path&gt;" class="cls-5" d="M867,76.3l-2.27-21.07,1.47,2.33a.58.58,0,0,0,.77.19l1.94-1.09L870.57,60a.58.58,0,0,0,.73.29l2-.77-2.88,18.62a.58.58,0,1,0,1.14.18l3-19.62a.58.58,0,0,0-.78-.63l-2.42.95-1.68-3.45a.58.58,0,0,0-.8-.25l-2,1.12-2.51-4a.58.58,0,0,0-1.06.37l2.53,23.55A.58.58,0,1,0,867,76.3Z"/></g><g id="_Group_46" data-name="&lt;Group&gt;"><path id="_Path_169" data-name="&lt;Path&gt;" class="cls-109" d="M958.1,134.19a17.3,17.3,0,0,1-2.32,1.61c-4,2.29-7.45,2-9.49-.37l9.49-12.68Z"/><path id="_Path_170" data-name="&lt;Path&gt;" class="cls-106" d="M967.15,116.18c0,6.29-3.88,13.79-9.05,18l-2.32-11.44V109.69C962.06,106.07,967.15,109,967.15,116.18Z"/><path id="_Path_171" data-name="&lt;Path&gt;" class="cls-101" d="M955.78,109.69v13.06l-9.49,12.68a9.15,9.15,0,0,1-1.89-6.11C944.41,122.11,949.5,113.32,955.78,109.69Z"/></g><path class="cls-99" d="M753.09,89.7c-2.53,4.25-.18,8.18,4.77,8.45,4.75.26,9.91-3.3,12.33-7.2,1.44-2.31,2.35-6.46-.48-8.22a5.19,5.19,0,0,0-3.06-.54C761.46,82.49,755.83,85.11,753.09,89.7Z"/><path class="cls-99" d="M890.78,71.59a3,3,0,0,1,1.19.13c2.86.91,2.26,4.92.24,6.4a2.62,2.62,0,0,1-3.51-.45C886.68,75.72,888.17,71.85,890.78,71.59Z"/><g class="cls-125"><path class="cls-111" d="M850.15,288.6s-7.89-5.67-8.58-14.43c-.52-6.59,4.84-9.1,9.83-1.38,0,0-7.31-11.75-.57-15.94,5-3.08,7.57,5.8,7.57,5.8s-5-14.78,2.25-15.2c5.18-.29,4.54,7.75,4.54,7.75s4.66-11.92,10.2-8.58Z"/><path class="cls-111" d="M875.41,246.62s7.09,2.66-2.51,13c0,0,7.14-4.66,9.78-.2S869.44,269,869.44,269s8.51-2.16,9.41,3.56-16.14,7.29-16.14,7.29,6.85.13,7.67,4.12-14.38,8.15-20.22,4.63Z"/><path class="cls-117" d="M859.82,284.76a30.86,30.86,0,0,1-3.58-.06,22.46,22.46,0,0,1-2.73-.38l6-10.36a27.67,27.67,0,0,0,3.76.4,28.32,28.32,0,0,0,4.17-.13,29.71,29.71,0,0,0,4.1-.69,25.19,25.19,0,0,0,4-1.26,25.11,25.11,0,0,1-4,1.12,29.48,29.48,0,0,1-4.09.54,28,28,0,0,1-4.12,0,26.35,26.35,0,0,1-3.47-.49l4.69-8.09a27,27,0,0,0,4-.49c.69-.11,1.36-.31,2-.47s1.34-.38,2-.63a31.54,31.54,0,0,0,3.83-1.61,27.69,27.69,0,0,0,3.57-2.1,27.64,27.64,0,0,1-3.64,2,31.31,31.31,0,0,1-3.86,1.46c-.65.22-1.32.37-2,.55s-1.34.3-2,.39a25.06,25.06,0,0,1-3.54.33l9-15.59-9.55,15.3a27.1,27.1,0,0,1-1.44-3.15,35.26,35.26,0,0,1-1.21-3.83q-.5-1.95-.82-3.94c-.21-1.33-.38-2.66-.46-4,0,1.35.14,2.69.31,4s.39,2.67.68,4a35.64,35.64,0,0,0,1.08,3.91A28.32,28.32,0,0,0,864,265l-5,8a17.83,17.83,0,0,1-2.24-2.61,26.41,26.41,0,0,1-2-3.49,34.92,34.92,0,0,1-1.47-3.75,33.44,33.44,0,0,1-1-3.91,33.49,33.49,0,0,0,.88,4A35.15,35.15,0,0,0,854.5,267a26.81,26.81,0,0,0,1.88,3.62,18.32,18.32,0,0,0,2.29,2.87l-6.32,10.12a30.76,30.76,0,0,1-1.94-2.5c-.75-1.09-1.47-2.21-2.12-3.37s-1.26-2.34-1.83-3.55-1.08-2.43-1.53-3.69c.4,1.27.88,2.52,1.4,3.75s1.09,2.44,1.7,3.63,1.29,2.35,2,3.48a31.78,31.78,0,0,0,2,2.76L844.67,296l1.55.93,7-12.06a23.18,23.18,0,0,0,3,.31,31.24,31.24,0,0,0,3.63-.1q1.81-.15,3.59-.47c1.19-.21,2.36-.47,3.52-.8-1.17.28-2.36.49-3.54.65S861,284.7,859.82,284.76Z"/><path class="cls-111" d="M786.57,289.76s-6.82,2.6-12.6-.59c-4.35-2.4-3.7-6.8,3.2-6.74,0,0-10.4-.27-10.24-6.23.12-4.39,6.77-2.35,6.77-2.35s-11.36-3-8.61-7.7c2-3.37,6.74.35,6.74.35s-5.55-7.85-1.17-10Z"/><path class="cls-111" d="M770.67,256.55s4.6-3.35,7.15,7c0,0,0-6.41,3.92-6.22s.51,12.25.51,12.25,2.17-6.23,6.13-4.43-2.1,13.15-2.1,13.15,2.91-4.24,5.76-3.11-.84,12.39-5.46,14.61Z"/><path class="cls-117" d="M788.16,282.1a23.21,23.21,0,0,1-1.52,2.23,16.9,16.9,0,0,1-1.37,1.56l-4-8a20.79,20.79,0,0,0,1.81-2.2,21.3,21.3,0,0,0,1.64-2.67,22.33,22.33,0,0,0,1.26-2.86,18.93,18.93,0,0,0,.84-3,18.86,18.86,0,0,1-.95,3,22.15,22.15,0,0,1-1.36,2.79,21,21,0,0,1-1.72,2.57,19.79,19.79,0,0,1-1.74,2l-3.14-6.29a20.33,20.33,0,0,0,1.33-2.7c.21-.48.37-1,.54-1.47s.31-1,.43-1.51a23.69,23.69,0,0,0,.57-3.07,20.83,20.83,0,0,0,.16-3.11,20.77,20.77,0,0,1-.27,3.1,23.53,23.53,0,0,1-.68,3c-.13.5-.31,1-.48,1.47s-.36,1-.59,1.43a18.82,18.82,0,0,1-1.26,2.36l-6-12.12,5.65,12.32a20.37,20.37,0,0,1-2.57-.4,26.5,26.5,0,0,1-2.9-.82q-1.43-.49-2.81-1.11c-.92-.42-1.83-.87-2.7-1.37.86.54,1.75,1,2.65,1.47s1.84.86,2.78,1.22a26.79,26.79,0,0,0,2.9.94,21.31,21.31,0,0,0,2.87.54l3,6.43a13.4,13.4,0,0,1-2.56.32,19.85,19.85,0,0,1-3-.2,26.25,26.25,0,0,1-3-.63,25.13,25.13,0,0,1-2.88-1,25.17,25.17,0,0,0,2.84,1.08,26.43,26.43,0,0,0,3,.75,20.14,20.14,0,0,0,3,.32,13.77,13.77,0,0,0,2.75-.25l3.74,8.15a23.15,23.15,0,0,1-2.37.19c-1,0-2,0-3-.06s-2-.17-3-.32-2-.33-2.95-.56c1,.27,1.94.49,2.93.67s2,.33,3,.44,2,.16,3,.18a23.92,23.92,0,0,0,2.56-.11l4.36,9.51,1.23-.59-4.68-9.37a17.42,17.42,0,0,0,1.44-1.76,23.48,23.48,0,0,0,1.44-2.32q.65-1.2,1.19-2.45c.36-.83.68-1.68,1-2.54-.31.85-.67,1.68-1.06,2.49S788.62,281.33,788.16,282.1Z"/><path class="cls-111" d="M968.43,226s-7.27-.65-11.07-6.05c-2.86-4.06-.35-7.74,5.83-4.65,0,0-9.23-4.8-6.47-10.09,2-3.89,7.12.85,7.12.85s-8.92-7.64-4.36-10.69c3.24-2.17,5.9,3.27,5.9,3.27s-1.55-9.49,3.31-9.46Z"/><path class="cls-111" d="M968.7,189.21s5.61-1,3.37,9.4c0,0,2.84-5.75,6.25-3.87S973.41,206,973.41,206s4.68-4.65,7.45-1.3-7.65,10.9-7.65,10.9,4.48-2.54,6.54-.27-6.18,10.77-11.31,10.73Z"/><path class="cls-117" d="M973.21,219.84a23.22,23.22,0,0,1-2.34,1.34,16.89,16.89,0,0,1-1.91.8l-.08-9a20.8,20.8,0,0,0,2.59-1.18,21.3,21.3,0,0,0,2.65-1.68,22.31,22.31,0,0,0,2.39-2,18.93,18.93,0,0,0,2.07-2.33,18.86,18.86,0,0,1-2.15,2.25,22.15,22.15,0,0,1-2.44,1.91,21,21,0,0,1-2.67,1.56,19.8,19.8,0,0,1-2.43,1l-.06-7a20.33,20.33,0,0,0,2.38-1.84c.4-.34.76-.72,1.13-1.08s.72-.76,1-1.17a23.7,23.7,0,0,0,1.86-2.51,20.82,20.82,0,0,0,1.51-2.73,20.78,20.78,0,0,1-1.6,2.66,23.53,23.53,0,0,1-1.94,2.42c-.34.39-.71.75-1.08,1.11s-.75.71-1.16,1a18.82,18.82,0,0,1-2.16,1.57l-.12-13.54L968.37,205a20.38,20.38,0,0,1-2.14-1.49,26.51,26.51,0,0,1-2.25-2q-1.07-1.07-2-2.23c-.64-.78-1.26-1.58-1.83-2.42.53.86,1.12,1.68,1.74,2.49s1.27,1.58,2,2.32a26.81,26.81,0,0,0,2.19,2.12,21.3,21.3,0,0,0,2.34,1.75l-.17,7.08a13.41,13.41,0,0,1-2.45-.84,19.87,19.87,0,0,1-2.61-1.5,26.26,26.26,0,0,1-2.39-1.87,25.13,25.13,0,0,1-2.16-2.13,25.19,25.19,0,0,0,2.08,2.22,26.45,26.45,0,0,0,2.33,2,20.15,20.15,0,0,0,2.6,1.62,13.76,13.76,0,0,0,2.58,1l-.21,9a23.15,23.15,0,0,1-2.21-.87c-.9-.41-1.8-.86-2.66-1.37s-1.71-1-2.54-1.6-1.63-1.16-2.4-1.8c.75.67,1.53,1.29,2.34,1.89s1.64,1.16,2.49,1.7,1.73,1,2.63,1.48a23.89,23.89,0,0,0,2.35,1l-.25,10.46h1.36L969,222.43a17.44,17.44,0,0,0,2.06-1,23.48,23.48,0,0,0,2.31-1.45q1.11-.79,2.14-1.68c.69-.59,1.35-1.21,2-1.86-.65.63-1.34,1.22-2,1.78S974,219.35,973.21,219.84Z"/><path class="cls-111" d="M963.62,239.64s-4.94,3.31-10.11,1.83c-3.89-1.11-4.18-4.73,1.32-5.94,0,0-8.31,1.68-9.26-3.08-.7-3.5,4.95-3.1,4.95-3.1s-9.56-.27-8.24-4.54c.94-3,5.41-.95,5.41-.95s-5.84-5.22-2.74-7.69Z"/><path class="cls-111" d="M944.95,216.17s3-3.5,6.94,4.23c0,0-1.14-5.09,2-5.65s2.64,9.63,2.64,9.63.59-5.34,4.06-4.64.73,10.82.73,10.82,1.54-3.9,4-3.51,1.59,10-1.67,12.59Z"/><path class="cls-117" d="M963.48,233.27a18.92,18.92,0,0,1-.8,2,13.76,13.76,0,0,1-.8,1.48l-4.65-5.66a16.94,16.94,0,0,0,1-2.07,17.34,17.34,0,0,0,.82-2.42,18.17,18.17,0,0,0,.48-2.5,15.41,15.41,0,0,0,.12-2.54,15.36,15.36,0,0,1-.21,2.52,18.06,18.06,0,0,1-.57,2.46A17.12,17.12,0,0,1,958,229a16.13,16.13,0,0,1-1,1.89l-3.64-4.42a16.56,16.56,0,0,0,.57-2.39c.08-.42.11-.84.16-1.27s.07-.85.07-1.27A19.32,19.32,0,0,0,954,219a17,17,0,0,0-.44-2.5A16.92,16.92,0,0,1,954,219a19.17,19.17,0,0,1,0,2.53c0,.42-.07.84-.11,1.26s-.11.83-.21,1.24a15.33,15.33,0,0,1-.57,2.1l-7-8.52,6.73,8.75a16.6,16.6,0,0,1-2.12.15,21.59,21.59,0,0,1-2.45-.13q-1.22-.13-2.44-.37c-.81-.16-1.61-.35-2.39-.6.78.27,1.57.49,2.37.69s1.61.35,2.43.47a21.83,21.83,0,0,0,2.47.22,17.34,17.34,0,0,0,2.38-.09l3.51,4.57a10.92,10.92,0,0,1-2,.72,16.18,16.18,0,0,1-2.42.39,21.39,21.39,0,0,1-2.47,0,20.48,20.48,0,0,1-2.46-.25,20.53,20.53,0,0,0,2.46.34,21.53,21.53,0,0,0,2.48.05,16.4,16.4,0,0,0,2.48-.3,11.21,11.21,0,0,0,2.14-.7l4.45,5.79a18.82,18.82,0,0,1-1.85.58c-.79.2-1.58.37-2.38.49s-1.61.22-2.42.29-1.63.1-2.44.09c.82,0,1.63,0,2.45,0s1.63-.1,2.44-.2,1.62-.24,2.42-.41a19.46,19.46,0,0,0,2-.55l5.2,6.75.87-.69-5.42-6.59a14.21,14.21,0,0,0,.82-1.66,19.12,19.12,0,0,0,.72-2.1q.3-1.07.5-2.16c.13-.73.24-1.46.3-2.19-.09.73-.23,1.46-.39,2.17S963.71,232.57,963.48,233.27Z"/><path class="cls-126" d="M811.83,241.6c.79,1.79,3.13,3,6.29,4a52.2,52.2,0,0,1,1.83,7.1,9.79,9.79,0,0,0,.33-2.5,22.35,22.35,0,0,0-.45-4.1c1.41.38,2.94.74,4.53,1.09a21.14,21.14,0,0,1,1.23,8.27,38.69,38.69,0,0,1-.63,6.14,18.87,18.87,0,0,0,1.39-2.54,15.54,15.54,0,0,0,1.07-2.69,11.5,11.5,0,0,0,.32-2.79,26,26,0,0,0-.55-5.76c1.74.38,3.52.79,5.28,1.25.1.47.19.93.27,1.4a27.73,27.73,0,0,1-1.27,13.94l.44-.64a35.46,35.46,0,0,0,2.16-3.45,12.11,12.11,0,0,0,1-2.48c.71-2.62.22-5.34-.09-8.07a43.34,43.34,0,0,1,5.64,2.05,50,50,0,0,1-.22,5.14,18.84,18.84,0,0,1-.27,2.26,17.65,17.65,0,0,1-.91,2.83,41.54,41.54,0,0,1-5.46,10.49,15.44,15.44,0,0,0,1.67-1.48,28.07,28.07,0,0,0,7.85-17.87,16.1,16.1,0,0,1,4,3.26,28,28,0,0,1,1.87,2.43,35.76,35.76,0,0,1-.5,5.78,12.16,12.16,0,0,1-2.83,6.59,54,54,0,0,1-9.88,9.06,26.49,26.49,0,0,0,14-10.3c.9-1.38,1.67-2.87,2.48-4.33,1.69,5.8.76,11.83-3.73,16.43-7,7.18-16.92,4.61-16.92,4.61Z"/><path class="cls-126" d="M831.74,286.71s-6.48,10.49-17.18,10.2c-5.53-.15-10.05-4.09-13-8.87a28.05,28.05,0,0,0,3.27,1.22,19,19,0,0,0,10.42-.3,37,37,0,0,0,6.91-2.87c-2.44.3-4.93.36-7.4.42a18.29,18.29,0,0,1-3.89-.19,17.87,17.87,0,0,1-3.39-1.14,30.7,30.7,0,0,1-3.75-1.73,20,20,0,0,1-5.77-5.22,12.7,12.7,0,0,1,0-3.3,30.87,30.87,0,0,1,.83-4.06l2.27,2.22a23.83,23.83,0,0,0,2.59,2.3,16.32,16.32,0,0,0,3.11,1.74,25.69,25.69,0,0,0,10.77,2.12,30.21,30.21,0,0,1-5-1.69,42.92,42.92,0,0,1-4.09-2.2c-1.22-.71-2.44-1.43-3.6-2.24a32.24,32.24,0,0,1-5.29-4.83,48.85,48.85,0,0,1,2-4.87,22.61,22.61,0,0,0,3.31,3.75,14.65,14.65,0,0,0,8.2,3.85c.52.05,1,.07,1.55.07a28.4,28.4,0,0,1-7.76-4.51,14.51,14.51,0,0,1-1.85-1.75,14.75,14.75,0,0,1-2.26-3.81c.8-1.53,1.64-3,2.46-4.42a16.44,16.44,0,0,0,9.56,7.68,15.21,15.21,0,0,1-3.64-3.37,25.58,25.58,0,0,1-3.88-7.72c.63-1,1.22-2,1.78-3a18.13,18.13,0,0,0,3.91,4.63,19.42,19.42,0,0,1-3-6.17c1.67-3.06,2.61-5.49,1.91-7.07Z"/><path class="cls-117" d="M842,280.72a25,25,0,0,1-2.72,1.26,23.21,23.21,0,0,1-2.86.87,22.19,22.19,0,0,1-5.57.54l-1.86-4.09a31.8,31.8,0,0,0,5.94-3c.51-.31,1-.68,1.46-1s.94-.72,1.38-1.12a24.55,24.55,0,0,0,6.32-8.45,21.43,21.43,0,0,0,1.86-6.78,21.35,21.35,0,0,1-2,6.72,24.26,24.26,0,0,1-6.44,8.22c-.44.39-.92.72-1.38,1.07s-1,.68-1.46,1a31.27,31.27,0,0,1-5.94,2.86l-2.35-5.14,2.15-1.56c.74-.64,1.52-1.25,2.23-1.93l1-1c.17-.18.35-.34.52-.52l.48-.56c.32-.38.65-.74,1-1.12l.86-1.2a21,21,0,0,0,2.64-5.24,14.3,14.3,0,0,0,.75-5.78,14.23,14.23,0,0,1-.9,5.73,20.71,20.71,0,0,1-2.75,5.11l-.88,1.16c-.31.37-.65.72-1,1.08l-.49.54c-.17.18-.35.33-.52.5l-1.06,1c-.72.64-1.5,1.22-2.25,1.84L826.06,273l-1.78-3.91c.51-.59,1-1.16,1.52-1.77l.74-1c.12-.17.25-.33.36-.51l.33-.53.65-1.07.56-1.12c.09-.19.19-.37.27-.56l.23-.58c.15-.39.33-.77.45-1.17a20.11,20.11,0,0,0,1-4.87,16.63,16.63,0,0,0-.26-4.94,16.55,16.55,0,0,1,.1,4.93,19.86,19.86,0,0,1-1.17,4.78c-.13.39-.32.75-.48,1.13l-.25.56c-.09.19-.19.36-.29.54L827.5,264l-.67,1-.34.51c-.12.17-.25.32-.37.49l-.76,1c-.43.52-.91,1-1.37,1.5l-2.78-6.09,0,0a23.89,23.89,0,0,0,.88-3.29,31.92,31.92,0,0,0,.45-3.35,39.7,39.7,0,0,0,0-6.73,39.53,39.53,0,0,1-.28,6.7,31.52,31.52,0,0,1-.6,3.28,22.81,22.81,0,0,1-.8,2.62l-6-13.21,5.76,13.5a11.63,11.63,0,0,1-3.28-.8,15,15,0,0,1-3.28-1.91,20.57,20.57,0,0,1-2.79-2.63,21.23,21.23,0,0,1-2.28-3.1,21.32,21.32,0,0,0,2.16,3.21,20.81,20.81,0,0,0,2.71,2.78,15.38,15.38,0,0,0,3.29,2.1,12.54,12.54,0,0,0,3.76,1l2.62,6.14a15.2,15.2,0,0,1-2.19.12,17.45,17.45,0,0,1-2.57-.27,22.12,22.12,0,0,1-4.94-1.57,31.4,31.4,0,0,1-4.56-2.54,33.11,33.11,0,0,1-4.12-3.23,33.2,33.2,0,0,0,4,3.36,31.64,31.64,0,0,0,4.52,2.7,22.52,22.52,0,0,0,5,1.75,18,18,0,0,0,2.64.36,16,16,0,0,0,2.47-.08l1.7,4a17.7,17.7,0,0,1-5.91,1.22,21.12,21.12,0,0,1-6.37-.8,29,29,0,0,1-6-2.44,32.09,32.09,0,0,1-5.39-3.61,32.17,32.17,0,0,0,5.32,3.75,29.26,29.26,0,0,0,6,2.6,21.52,21.52,0,0,0,6.47,1,18.26,18.26,0,0,0,6.15-1.12l2.21,5.17a27.78,27.78,0,0,1-6.47,2.66,22.6,22.6,0,0,1-3.64.64,21,21,0,0,1-3.7,0,22.87,22.87,0,0,1-7.19-1.73,24.32,24.32,0,0,1-3.32-1.68,20.53,20.53,0,0,1-3-2.19,20.57,20.57,0,0,0,3,2.26,24.43,24.43,0,0,0,3.3,1.76,23.1,23.1,0,0,0,7.23,1.9,21.36,21.36,0,0,0,3.76,0,23,23,0,0,0,3.72-.58,28.33,28.33,0,0,0,6.6-2.54l1.76,4.13a27.07,27.07,0,0,1-4.51,4.46c-.43.36-.91.65-1.36,1s-.94.61-1.44.86a19.61,19.61,0,0,1-3.06,1.38,20.35,20.35,0,0,1-6.62,1.18,19.82,19.82,0,0,1-6.67-1,19.9,19.9,0,0,0,6.67,1.17,20.59,20.59,0,0,0,6.72-1,20,20,0,0,0,3.15-1.33c.51-.25,1-.56,1.49-.85s1-.61,1.41-1a27.49,27.49,0,0,0,4.5-4.2l5.1,11.95,1.17-.52L831.08,284a22.64,22.64,0,0,0,5.4-.71,23.62,23.62,0,0,0,2.9-1,25.29,25.29,0,0,0,2.73-1.35,26,26,0,0,0,4.85-3.66,25.18,25.18,0,0,0,3.86-4.66,25.11,25.11,0,0,1-4,4.54A25.74,25.74,0,0,1,842,280.72Z"/><path class="cls-126" d="M939.5,230.65a12.81,12.81,0,0,1,.11,3.28,7.82,7.82,0,0,0,.43,3.41,1.26,1.26,0,0,0,2.29-.33,6,6,0,0,0-.74-3.63,12.06,12.06,0,0,0-.77-1.44c-.32-.5-.71-.92-1-1.43a.18.18,0,0,0-.33.14Z"/><path class="cls-126" d="M933.15,235.88c1,.63,1.29,1.75,1.79,2.79s1.2,2.53,2.46,2.66a1.12,1.12,0,0,0,1.19-1.65,4.92,4.92,0,0,0-1.29-1.31c-.43-.4-.83-.84-1.25-1.26a8.69,8.69,0,0,0-1.37-1,5.19,5.19,0,0,0-1.36-.68c-.29-.08-.39.33-.16.46Z"/><path class="cls-126" d="M948.61,231.45a2.28,2.28,0,0,0-1.18.67c-.37.4-.66.86-1,1.29s-.7.94-1.06,1.4-1.2,1.21-1.33,1.94.51,1.89,1.5,1.59c1.34-.41,2.25-2.2,2.63-3.47a10.15,10.15,0,0,0,.2-1.51,2.75,2.75,0,0,1,.47-1.49.25.25,0,0,0-.23-.42Z"/><path class="cls-126" d="M930.49,244.56a4.09,4.09,0,0,0,1.42.5,12.27,12.27,0,0,0,1.84.48,7.53,7.53,0,0,0,4.25-.83,1.16,1.16,0,0,0-.27-2.11c-1.41-.25-2.62.57-4,.67-.62,0-1.23.11-1.84.22a2.08,2.08,0,0,0-1.45.7.31.31,0,0,0,.06.37Z"/><path class="cls-126" d="M951.53,242a4.27,4.27,0,0,1-1.59-.62c-.57-.28-1.13-.58-1.7-.85s-1.12-.5-1.79-.75-1.8-.21-2,.81c-.26,1.69,2.31,2.27,3.52,2.27a10.58,10.58,0,0,0,2-.21c.53-.1,1-.35,1.54-.46a.1.1,0,0,0,0-.19Z"/><path class="cls-126" d="M948.34,247.87a10.8,10.8,0,0,0-1.17-2.08,9.22,9.22,0,0,0-1.45-2.41c-.82-.78-2.45,0-2,1.17a5.26,5.26,0,0,0,2.17,2.43,4.14,4.14,0,0,0,2.36,1.05.13.13,0,0,0,.13-.16Z"/><path class="cls-126" d="M937.32,250.44c.22-.35.53-.47.81-.75s.74-.78,1.11-1.17c.74-.76,1.91-1.89,1.65-3a1.16,1.16,0,0,0-1.68-.71,3.55,3.55,0,0,0-1.05,1.44c-.29.51-.62,1-.87,1.52-.39.82-.91,1.82-.36,2.7a.22.22,0,0,0,.38,0Z"/><path class="cls-117" d="M950.15,242.14c-1.56,0-3-.85-4.45-1.21a6.62,6.62,0,0,0-3.5.11,2.52,2.52,0,0,1,.46-.73,24.5,24.5,0,0,0,1.83-2.35q.94-1.33,1.81-2.72c.29-.47.59-.93.85-1.42a4.31,4.31,0,0,1,.68-1.21s0-.11-.06-.07a2.7,2.7,0,0,0-.55.88,15.49,15.49,0,0,1-1,1.64c-.67,1-1.37,2.06-2.11,3-.35.47-.7.95-1.07,1.4a13.47,13.47,0,0,0-1,1.09,1.82,1.82,0,0,0-.1.18c0-.2,0-.39-.06-.59-.12-.83-.31-1.66-.45-2.49s-.2-1.66-.36-2.48a24.5,24.5,0,0,0-.93-3c0-.05-.1,0-.08,0,.26.89.59,1.75.77,2.66s.2,1.74.31,2.61.31,1.67.43,2.51c.06.42.07.86.1,1.29-1.28-.4-2.65-.45-3.82-1.18a9.06,9.06,0,0,1-2.82-3.07s-.05,0,0,0a9.68,9.68,0,0,0,2.62,3.14,10.23,10.23,0,0,0,3.82,1.35,14.07,14.07,0,0,1-4,1.56c-1.54.41-3.07.86-4.64,1.14-.06,0,0,.11,0,.1a39.1,39.1,0,0,0,4.78-1.09,13.35,13.35,0,0,0,3.92-1.44,4.84,4.84,0,0,1-.25.9,21.12,21.12,0,0,1-1,1.92c-.79,1.33-1.63,2.63-2.38,4,0,0,0,0,0,0,.81-1.28,1.75-2.48,2.52-3.78.35-.6.7-1.21,1-1.84a5,5,0,0,0,.25-.71c0,.16,0,.32,0,.48a32.17,32.17,0,0,0,.61,3.6c.3,1.86.45,3.75.7,5.62s.44,3.88.52,5.85a30.31,30.31,0,0,0,.55,5.59.62.62,0,0,0,1.21-.29,49.91,49.91,0,0,1-.72-5.62c-.16-1.85-.47-3.64-.81-5.47s-.61-3.62-1-5.41a42.13,42.13,0,0,1-.83-4.23.11.11,0,0,0,.07-.12c0-.06,0-.11,0-.17a30.49,30.49,0,0,0,2.63,2.15,13.9,13.9,0,0,1,1.3,1.47,5.74,5.74,0,0,0,1.18,1.29c.06,0,.13-.06.06-.11a6.14,6.14,0,0,1-1.37-1.53c-.32-.43-.69-.84-1.05-1.23a25.81,25.81,0,0,1-2.71-2.58.15.15,0,0,0,0-.18l0-.07v0a6.7,6.7,0,0,1,4.05-.14,13.12,13.12,0,0,0,4,1A0,0,0,0,0,950.15,242.14Z"/></g></svg>