<svg id="Layer_1" data-name="Layer 1" xmlns="http://www.w3.org/2000/svg" viewBox="0 0 1423 451"><defs><style>.cls-1{fill:#e0e1e0;}.cls-2{fill:#fff;}.cls-3{fill:#e6e7e8;}.cls-4,.cls-8{fill:#010101;}.cls-5{fill:#e81f64;}.cls-6{fill:#35445b;}.cls-7{fill:#bec0c1;}.cls-8{opacity:0.12;}.cls-9{fill:#1d2633;}.cls-10{fill:#bc3d71;}.cls-11{fill:#ad2559;}.cls-12{fill:#5db7de;}.cls-13{fill:#d1e8f4;}.cls-14{fill:#edd3be;}.cls-15{fill:#0a0c0f;}.cls-16{fill:#f4cfb1;}</style></defs><title>Our Journey</title><rect class="cls-1" width="1423" height="451"/><path class="cls-2" d="M174,129.15c4.48-3,9.55-7.49,10.81-12.76a32.37,32.37,0,0,0,23.79,2.51c4.75-1.35,9.5-4.19,11.2-8.82a13.17,13.17,0,0,0,.46-6.79c-1.56-8.93-10.85-15.75-19.81-14.36.48-3.79,1-7.69,0-11.39a15.55,15.55,0,0,0-10.87-11c-5.22-1.38-11.93.79-15.67,4.68,1.77-6.6-2.58-14-8.95-16.44s-14-.44-19,4.22-7.44,12.75-7.73,19.58c.76-6.06-3.66-12.26-9.58-13.78a14.25,14.25,0,0,0-15.53,7c-3.4,6.28-.72,14.9,3,21C108.84,90.61,101,88.87,93.75,91s-13.64,9.22-12.33,16.69c3.09,17.57,31.5,16.91,43.69,11.64a2.87,2.87,0,0,1,2.15-.33,2.9,2.9,0,0,1,1.26,1.44C137.54,136.78,159.2,139.19,174,129.15Z"/><path class="cls-3" d="M219.76,110.08a11.5,11.5,0,0,0,.66-3.15c-14.27,3.12-30,0-41.52-9.07-4.78,9.84-14.62,17.47-25.54,18.06s-22.19-6.83-24.58-17.51c-5.23,4.53-11,8.6-17.53,10.86S97.31,111.85,91,109a20.17,20.17,0,0,1-8.44-7,5.63,5.63,0,0,1-.43-.8,12,12,0,0,0-.7,6.44c3.09,17.57,31.5,16.91,43.69,11.64a2.87,2.87,0,0,1,2.15-.33,2.9,2.9,0,0,1,1.26,1.44c9,16.39,30.67,18.8,45.44,8.76,4.48-3,9.55-7.49,10.81-12.76a32.37,32.37,0,0,0,23.79,2.51C213.3,117.55,218,114.71,219.76,110.08Z"/><path class="cls-4" d="M141.85,76.63a14.56,14.56,0,0,0-.23-6.5,16.88,16.88,0,0,0-3-5.86A15.63,15.63,0,0,0,115,63.15a22.08,22.08,0,0,0-5.49,12c-.89,6.2.37,12.45,1.75,18.48l1.5-1.15A26.41,26.41,0,0,0,101.49,89,23.63,23.63,0,0,0,90,91a20.06,20.06,0,0,0-11.47,16.12c-.57,7.09,3.75,13.67,9.61,17.33,6.6,4.12,15,4.77,22.57,3.56,7.79-1.25,15.35-5,19.91-11.6h-1.94c2.86,4.56,6,9.06,10.27,12.37a26.82,26.82,0,0,0,14,5.3c10.17.91,19.9-3.65,27-10.79a44.55,44.55,0,0,0,4.79-5.77c.51-.73,1.13-2.13,2-2.43.49-.16,1,.22,1.39.45l1.88,1.07c4.89,2.72,10.26,5,16,3.83a21.55,21.55,0,0,0,7.22-3.1,33.31,33.31,0,0,0,6-4.83c3.49-3.61,5.71-8.55,3.79-13.51-1.77-4.59-5.87-8.33-10.16-10.59-4-2.12-8.9-3.24-13.32-1.79a12.54,12.54,0,0,0-3,1.44l1.61,1.24c1.22-5.89,1.61-12.59-1.71-17.9a14,14,0,0,0-16.59-5.68,14.21,14.21,0,0,0-7.66,6.79l2.25.61a28,28,0,0,0-3.56-11.41,16.49,16.49,0,0,0-8.1-6.89c-7.21-2.73-14.38,2-17.84,8.23a31.82,31.82,0,0,0-2.58,6.11,64,64,0,0,0-1.72,6.5c-.24,1.21,1.63,1.73,1.86.51.35-1.8.58-3.61,1.09-5.38a31.86,31.86,0,0,1,1.91-5.13,17.52,17.52,0,0,1,6.44-7.39,11.62,11.62,0,0,1,8.78-1.68,13.24,13.24,0,0,1,7.46,5.3A24.19,24.19,0,0,1,172,73.14a1.26,1.26,0,0,0,.89,1.17,1.22,1.22,0,0,0,1.37-.56,11.57,11.57,0,0,1,13.5-6.19c5.44,1.53,8.45,6.54,9,11.93a27.62,27.62,0,0,1-.72,9.26A1.11,1.11,0,0,0,197.59,90c7.6-4.6,17.73,1.07,21.93,7.84a9.55,9.55,0,0,1,1.68,6.54,11.7,11.7,0,0,1-3,5.76,28.48,28.48,0,0,1-5.35,4.56,21.66,21.66,0,0,1-6.63,3.19c-5.14,1.33-10.19-.75-14.67-3.15a25.38,25.38,0,0,0-3.51-1.85,3.34,3.34,0,0,0-3.36.78,14,14,0,0,0-2.05,2.7q-1,1.4-2.07,2.71c-5.94,7.13-14.41,12.34-23.86,12.66a26.36,26.36,0,0,1-13.55-3c-4.36-2.39-7.63-6.2-10.44-10.23-.72-1-1.42-2.09-2.1-3.15a1.14,1.14,0,0,0-1.94,0c-3.62,5.42-9.62,8.7-15.83,10.24-6.77,1.68-14.51,1.67-21-1.22-5.82-2.61-11-8.05-11.38-14.68-.39-6.25,3.36-12.26,8.64-15.42a20.56,20.56,0,0,1,10.95-2.7,29,29,0,0,1,11.68,2.74,1,1,0,0,0,1.5-1.15c-2-8.61-4.16-19.14,1.78-26.76a14.06,14.06,0,0,1,20.53-1.59,14.82,14.82,0,0,1,4.16,11.6c-.1,1.21,1.92,1.5,2.14.29Z"/><path class="cls-5" d="M210.72,66.81l.24.85a2.54,2.54,0,0,0,2.41,1.84,2.57,2.57,0,0,0,2.41-1.84l.24-.85a2.75,2.75,0,1,0-5.3,0Z"/><path class="cls-5" d="M233.53,83.94c3,0,3-4.59,0-4.59s-3,4.59,0,4.59Z"/><path class="cls-5" d="M234.44,107.15a1.69,1.69,0,0,0,0-3.37,1.69,1.69,0,0,0,0,3.38Z"/><path class="cls-5" d="M254.59,107.15a1.69,1.69,0,0,0,0-3.37,1.69,1.69,0,0,0,0,3.38Z"/><path class="cls-5" d="M221.62,144.47c4.22,0,4.23-6.56,0-6.56s-4.23,6.56,0,6.56Z"/><path class="cls-5" d="M186.81,135.72a1.86,1.86,0,0,0,0-3.72,1.86,1.86,0,0,0,0,3.72Z"/><path class="cls-5" d="M185.1,162.13l-.92-.92a1.47,1.47,0,0,0-2.08,2.08l.92.92a1.47,1.47,0,1,0,2.08-2.08Z"/><path class="cls-5" d="M164.83,149.91a1.39,1.39,0,0,0,0-2.78,1.39,1.39,0,0,0,0,2.78Z"/><path class="cls-5" d="M141,169.73c3.72,0,3.73-5.78,0-5.78s-3.73,5.78,0,5.78Z"/><path class="cls-5" d="M124.16,141.79l.17.87a2.11,2.11,0,0,0,4.07,0l.17-.87a2.32,2.32,0,0,0-2.2-2.89,2.28,2.28,0,0,0-2.2,2.89Z"/><path class="cls-5" d="M110.51,154.93l0-.92a1.53,1.53,0,0,0-3.06,0l0,.92a1.56,1.56,0,0,0,3.13,0Z"/><path class="cls-5" d="M104.61,140.27l.06.92a1.53,1.53,0,0,0,3.06,0l.06-.92a1.59,1.59,0,0,0-3.19,0Z"/><path class="cls-5" d="M77.81,137.68c2.55,0,2.56-4,0-4s-2.56,4,0,4Z"/><path class="cls-5" d="M57.66,109.3c2.57,0,2.58-4,0-4s-2.58,4,0,4Z"/><path class="cls-5" d="M65.9,86.79c4.26,0,4.27-6.62,0-6.62s-4.27,6.63,0,6.63Z"/><path class="cls-5" d="M95.21,76.24a1,1,0,0,0,0-2,1,1,0,0,0,0,2Z"/><path class="cls-5" d="M80,60.58l0-.92a1.2,1.2,0,0,0-2.41,0l0,.92c-.08,1.61,2.58,1.61,2.5,0Z"/><path class="cls-5" d="M81.47,74.18a1.69,1.69,0,0,0,0-3.37,1.69,1.69,0,0,0,0,3.38Z"/><path class="cls-5" d="M98.88,61.27a1.61,1.61,0,0,0,0-3.22,1.61,1.61,0,0,0,0,3.22Z"/><path class="cls-5" d="M96.13,38.39l.92,0a1.61,1.61,0,0,0,0-3.22l-.92,0a1.62,1.62,0,0,0,0,3.25Z"/><path class="cls-5" d="M137.35,51.73c5.11,0,5.12-7.94,0-7.94s-5.12,7.94,0,7.94Z"/><path class="cls-5" d="M163.09,28.52l.06.92a1.67,1.67,0,1,0,3.34,0l.06-.92a1.73,1.73,0,0,0-3.47,0Z"/><path class="cls-5" d="M175.72,52.24l1-.87c1.16-1.06-.67-2.89-1.72-1.72l-.87,1a1.16,1.16,0,0,0,1.64,1.64Z"/><path class="cls-5" d="M196.89,42a.69.69,0,0,0,0-1.37.69.69,0,0,0,0,1.38Z"/><path class="cls-4" d="M107.89,355c-.3,3.08-.25,6.19-.32,9.28s-.12,6.19-.1,9.28c0,6.19.22,12.38.26,18.56,0,3.5,0,7,.1,10.5a1.08,1.08,0,0,0,2.16,0c.14-3.09.09-6.19.12-9.28s.08-6.19.14-9.28c.13-6.19.25-12.37.14-18.56-.06-3.49,0-7-.31-10.5a1.1,1.1,0,0,0-2.19,0Z"/><path class="cls-4" d="M173.48,361.58a27.59,27.59,0,0,0-6.41-7.33.88.88,0,0,0-1.45.38,73.64,73.64,0,0,0-2.25,9.26q-1,1.31-2.1,2.58c-.28-.21-.56-.41-.87-.61a17.46,17.46,0,0,0-2.14-1.16,19.78,19.78,0,0,0-9.79-1.74,22,22,0,0,0-16.77,10,21.22,21.22,0,0,0-3.17,10.29,20.19,20.19,0,0,0,1.08,7.82,17.32,17.32,0,0,0,4.45,6.64c7.16,6.71,18.88,7.81,26.91,2a21.66,21.66,0,0,0,6.94-25.21,15.63,15.63,0,0,0-1.57-2.85,1.53,1.53,0,0,0-1-.64,12.76,12.76,0,0,0-2-2.7c.81-.94,1.59-1.9,2.33-2.89q3.68-1.33,7.34-2.7A.79.79,0,0,0,173.48,361.58Zm-9.62,10.53a1.28,1.28,0,0,0,.15.91,18.22,18.22,0,0,1,2.5,11.7,21.43,21.43,0,0,1-1.55,5.78,17.5,17.5,0,0,1-3.29,5c-6.11,6.4-16.35,6.87-23.61,2.12a16.44,16.44,0,0,1-4.88-4.84,15.52,15.52,0,0,1-2.28-7.4,18.84,18.84,0,0,1,1.83-9.62,17.28,17.28,0,0,1,2.52-3.74,20,20,0,0,1,1.62-1.64q.43-.38.88-.75c.21-.17.42-.33.77-.57a19.38,19.38,0,0,1,8.27-3.42l.5-.08.11,0,.17,0c.41,0,.82-.08,1.24-.1a19.92,19.92,0,0,1,2.25,0q.53,0,1.07.09l.22,0h.06l.67.11a18.14,18.14,0,0,1,2.19.55q.52.16,1,.36l.34.13.57.26a17.43,17.43,0,0,1,2,1.13l.38.26c-1.15,1.28-2.33,2.54-3.5,3.81a10.37,10.37,0,0,0-1.19-.66,12.52,12.52,0,0,0-6.25-1.16A13.91,13.91,0,0,0,138,376.71c-3,4.79-2.81,11.58,1.37,15.62A13.28,13.28,0,0,0,161,377.65a9.19,9.19,0,0,0-1-1.76,1.6,1.6,0,0,0-.89-.62,7.13,7.13,0,0,0-.94-1.35c1.23-1.28,2.45-2.56,3.65-3.87.34.31.68.63,1,1S163.5,371.77,163.85,372.11Zm-12.8,11.39,0,.1q0,.13-.07.26l-.05.14,0,.08c-.06.12-.16.23-.23.35l0,0-.18.19-.17.15h0c-.14.09-.28.18-.42.26l-.21.1h0l-.48.15-.22.05h-.06c-.14,0-.29,0-.43,0h-.23l-.47-.12h0l-.19-.1-.22-.14-.33-.33h0v0l-.12-.19-.11-.19,0-.06c0-.08-.13-.38-.14-.43l0-.22,0-.11v0c0-.13,0-.35,0-.38s0-.15,0-.22v0h0a5,5,0,0,1,.13-.54l0-.13,0,0,.08-.17a4.2,4.2,0,0,1,.23-.37l.08-.1.21-.21,0,0h0l.24-.15.23-.13h.12l.56,0h.33a14,14,0,0,0-.64,1.32.82.82,0,0,0,1.29,1c.41-.37.79-.76,1.17-1.15a3.87,3.87,0,0,1,.24.4l.06.12,0,0,0,.15c0,.08,0,.17.06.25v0c0,.09,0,.17,0,.26S151,383.62,151.05,383.5Zm-4.35.73,0,0C146.61,384.06,146.68,384.17,146.7,384.23Zm-.2-.68a.24.24,0,0,1,0-.09A.84.84,0,0,1,146.5,383.55Zm4.38-1.08s0,.07.06.14Zm-.53-3.74a3.86,3.86,0,0,0-2.75-.15,1.47,1.47,0,0,0-.63.46,3.18,3.18,0,0,0-.69.34,4.49,4.49,0,0,0-1.71,2.26,5,5,0,0,0,1.05,5.13,4.73,4.73,0,0,0,5.53.53,4.57,4.57,0,0,0,2.31-5.2,5,5,0,0,0-1.11-2l.52-.6c1.13-1.29,2.3-2.53,3.48-3.77l.19-.2.36.34c.19.18.37.35.56.52a1.33,1.33,0,0,0,.17.8,10.45,10.45,0,0,1,1.31,3.44,8,8,0,0,1,.18,1.5,12.69,12.69,0,0,1-.07,2.06,11,11,0,0,1-2.88,6.18c-3.62,3.69-9.56,3.85-13.79,1a8.94,8.94,0,0,1-4-7.06,11,11,0,0,1,1.07-5.57,10.76,10.76,0,0,1,3.44-3.91,12.82,12.82,0,0,1,1.12-.69l.61-.31.31-.14.09,0,.15-.06a14.12,14.12,0,0,1,2.62-.72l.21,0,.24,0,.79-.05a12,12,0,0,1,1.57,0l.28,0H151l.77.15a11.53,11.53,0,0,1,1.51.47l.05,0,.38.17.61.32c-1,1.09-2,2.2-2.95,3.33C151,377.83,150.69,378.29,150.34,378.73ZM169,358.31l0-.06.05.05Zm.56,3.94.32-.19.05.06Z"/><path class="cls-4" d="M63.81,375.65a1.31,1.31,0,0,0-.35-.4,5.89,5.89,0,0,0-2.27-2.66,6.51,6.51,0,0,0-3.61-1,8.14,8.14,0,0,0-6.37,3.48,7.31,7.31,0,0,0-.3,7.69c1.72,3.24,6.13,4.43,9.37,3C63.91,384.11,65.8,379.18,63.81,375.65Zm-2.26,3.79v.07l0,.08c0,.2-.09.4-.14.6s-.1.3-.15.46l0,.07-.06.14a9,9,0,0,1-.52.89l0,.06-.1.12-.33.35-.34.31-.27.17-.34.18-.29.12-.45.13-.35.07a6.91,6.91,0,0,1-.85,0l-.54,0c.32,0-.16,0-.26,0a8.48,8.48,0,0,1-.91-.26l-.05,0-.14-.06-.47-.26-.39-.26,0,0-.13-.11-.34-.32-.22-.25a5.62,5.62,0,0,1-.47-.72l-.19-.38,0-.09,0-.1a5.71,5.71,0,0,1-.22-.74,1.64,1.64,0,0,1,0-.2s0,0,0,.11c0-.14,0-.27,0-.41s0-.48,0-.71l0-.1c0-.13.05-.25.09-.38s.12-.37.19-.55l.07-.15.18-.34.18-.28.12-.17.14-.16L54,376c.16-.16.33-.3.5-.45h0l0,0,.36-.24q.29-.18.59-.33l.26-.12c-.34.18.06,0,.15-.05a6.46,6.46,0,0,1,.64-.19l.32-.07.1,0c.25,0,.49,0,.74,0l.37,0h0l.13,0a5.1,5.1,0,0,1,.73.2l.11,0c.12.08.26.13.38.2l.33.21.1.07h0c.21.19.44.36.64.56l.3.33.15.16.11.13a1.36,1.36,0,0,0,.07.36,6.63,6.63,0,0,1,.24.92l.09.47,0,.13v.14A8.59,8.59,0,0,1,61.56,379.44Z"/><path class="cls-4" d="M52.81,379.41Z"/><path class="cls-4" d="M79.32,374.66c-1.15-.3-2.32-.6-3.49-.81a16.79,16.79,0,0,0-3.07-.4q-.28-.75-.63-1.47a1,1,0,0,0,.65-.5,23.06,23.06,0,0,1,3.06-4.72,1.07,1.07,0,0,0,0-1.47c-.68-.79-1.46-1.51-2.18-2.27s-1.43-1.54-2.13-2.32A1.24,1.24,0,0,0,70,360.5c-1,.6-2.07,1.21-3.06,1.9A21.19,21.19,0,0,0,64.8,364a14,14,0,0,0-1.61-.68,1,1,0,0,0,0-.48A23,23,0,0,1,62,357.36a1.07,1.07,0,0,0-1-1c-1-.07-2.1,0-3.15-.06s-2.1-.07-3.15-.13a1.24,1.24,0,0,0-1.18.9c-.3,1.15-.6,2.32-.81,3.49a15.87,15.87,0,0,0-.4,3.17c-.5.19-1,.4-1.46.64a1,1,0,0,0-.51-.76,23.06,23.06,0,0,1-4.72-3.06,1.07,1.07,0,0,0-1.47,0c-.79.68-1.51,1.47-2.27,2.18s-1.54,1.43-2.32,2.13a1.24,1.24,0,0,0-.19,1.49c.6,1,1.21,2.07,1.9,3.06a19.14,19.14,0,0,0,1.71,2.28,15.38,15.38,0,0,0-.75,1.52,1,1,0,0,0-.51,0,23,23,0,0,1-5.49,1.17,1.07,1.07,0,0,0-1,1c-.07,1,0,2.1-.06,3.15s-.08,2.1-.13,3.15a1.24,1.24,0,0,0,.9,1.18c1.15.3,2.32.6,3.49.81.78.14,1.59.31,2.4.38a18.81,18.81,0,0,0,.73,1.9s-.06.05-.08.09a23.08,23.08,0,0,1-3.06,4.72,1.07,1.07,0,0,0,0,1.47c.68.79,1.46,1.51,2.18,2.27s1.43,1.54,2.13,2.32a1.24,1.24,0,0,0,1.49.19c1-.6,2.07-1.21,3.05-1.9.63-.44,1.31-.88,1.92-1.39a17.59,17.59,0,0,0,1.88.78.87.87,0,0,0,0,.16,23,23,0,0,1,1.17,5.49,1.07,1.07,0,0,0,1,1c1,.07,2.1,0,3.15.06s2.1.08,3.15.13a1.24,1.24,0,0,0,1.18-.9c.3-1.15.6-2.32.81-3.49.14-.8.33-1.64.39-2.47.17-.06.35-.11.52-.18.42-.17.84-.37,1.24-.58a.89.89,0,0,0,.22.19A23.06,23.06,0,0,1,69.6,397a1.07,1.07,0,0,0,1.47,0c.79-.68,1.51-1.47,2.27-2.18s1.54-1.43,2.32-2.13a1.24,1.24,0,0,0,.19-1.49c-.61-1-1.21-2.07-1.9-3.06a16.71,16.71,0,0,0-1.87-2.44q.32-.73.58-1.49a1,1,0,0,0,.85.12A23,23,0,0,1,79,383.17a1.07,1.07,0,0,0,1-1c.07-1,0-2.1.06-3.15s.07-2.1.13-3.15A1.24,1.24,0,0,0,79.32,374.66Zm-11.1-10.13c.77-.43,1.52-.91,2.26-1.39,1,1,2,2,3.13,3A16.82,16.82,0,0,0,71,370.06a14,14,0,0,0-4.13-4.79C67.33,365,67.78,364.77,68.22,364.52ZM55,361.18c.25-.86.44-1.73.62-2.6.72,0,1.43,0,2.15,0s1.44,0,2.17-.08a17.2,17.2,0,0,0,.81,4.26,14.87,14.87,0,0,0-2.78-.2,16.78,16.78,0,0,0-3.51.47C54.7,362.4,54.86,361.78,55,361.18ZM42,365.86c1-1,2-2,3-3.13a16.76,16.76,0,0,0,4,2.65,18.89,18.89,0,0,0-4.73,4.34c-.27-.54-.59-1.07-.87-1.59C42.92,367.36,42.44,366.61,42,365.86Zm-2,15.45c-.86-.25-1.73-.44-2.6-.62,0-.72,0-1.43,0-2.15s0-1.44-.08-2.17a17.36,17.36,0,0,0,4.09-.75A15.56,15.56,0,0,0,41,378a14.89,14.89,0,0,0,.17,3.61ZM47,393c-.77.43-1.52.91-2.27,1.39-1-1-2-2-3.13-3a17.62,17.62,0,0,0,2.19-3.09,15,15,0,0,0,4.15,4.16Zm13.18,3.35c-.25.86-.44,1.73-.62,2.6-.72,0-1.43,0-2.15,0s-1.44,0-2.17.08a17.52,17.52,0,0,0-.69-3.89,16.66,16.66,0,0,0,6,0Zm-5.08-4.22a13.73,13.73,0,0,1-8.4-4.93,15.53,15.53,0,0,1-2.08-3.8,14.4,14.4,0,0,1-.58-2c0-.16-.06-.31-.09-.47l0-.28c0-.33-.07-.66-.08-1a13.49,13.49,0,0,1,0-1.92s0-.31,0-.34,0-.22.05-.33q.08-.46.19-.91a14.37,14.37,0,0,1,.56-1.75l.07-.18,0-.05.18-.39q.2-.41.42-.81a17,17,0,0,1,1-1.58l.08-.11,0,0,.27-.33q.31-.37.65-.72a16.72,16.72,0,0,1,1.33-1.25l.33-.27.08-.06.07-.06c.26-.19.53-.38.8-.56a17.38,17.38,0,0,1,1.57-.93l.82-.4.29-.13,0,0,.28-.11a16.49,16.49,0,0,1,3.48-.92l.17,0,.48,0q.48,0,1,0a14.67,14.67,0,0,1,1.78.09H60l.09,0,.41.07q.47.09.93.21l.8.24.4.14.34.14a12.94,12.94,0,0,1,1.56.83c.25.16.49.32.73.5l.17.13,0,0,.4.34A16.17,16.17,0,0,1,68.53,371l.79,1.16a1.16,1.16,0,0,0,.08.62,14.69,14.69,0,0,1,.61,9.82,13.7,13.7,0,0,1-5.67,7.9A13.2,13.2,0,0,1,55.06,392.14Zm18.16-.47c-1,1-2,2-3,3.13a17.25,17.25,0,0,0-3.45-2.37A16.33,16.33,0,0,0,71,387.85c.27.53.57,1,.85,1.55C72.25,390.17,72.73,390.92,73.22,391.66Zm0-9.58a16.38,16.38,0,0,0,.14-6.4c.59.2,1.2.36,1.79.53.86.25,1.73.44,2.6.62,0,.72,0,1.43,0,2.15s0,1.44.08,2.17A16.88,16.88,0,0,0,73.25,382.09Z"/><path class="cls-4" d="M69.61,260.68A12.66,12.66,0,0,0,66.93,255a87.11,87.11,0,0,0,1.58-9.44,94.4,94.4,0,0,0-1.31-28.38q-.34-1.72-.73-3.44c-.31-1.34-2.24-.86-2.18.39A62.05,62.05,0,0,0,49,232.36a75.19,75.19,0,0,0-6.93,16.36,12.21,12.21,0,0,0-5.41,2.52,19.87,19.87,0,0,0-4.65,5,26.49,26.49,0,0,0-3.92,14.51,1.1,1.1,0,0,0,1.86.77,28.39,28.39,0,0,1,11.16-7.24,8.63,8.63,0,0,0,2.2,1c-.07.79-.08,1.59-.11,2.38a23.39,23.39,0,0,0-.07,3.39c.26,2.41,3.13,2.59,5,3l3.51.8c1.09.25,2.22.57,3.23-.08a9.89,9.89,0,0,0,2.12-2.5l2-2.63a5.27,5.27,0,0,0,1.45.07,18.68,18.68,0,0,1,4.05,11.59,1,1,0,0,0,1.76.48,29.86,29.86,0,0,0,4.05-13.85A26.84,26.84,0,0,0,69.61,260.68Zm-5-44.88q.43,2,.78,4l-.21-.06c-.45-.14-.91-.25-1.37-.37-.69-.18-1.38-.37-2.08-.52q1-1.12,2.07-2.2ZM49.91,235.36a80.59,80.59,0,0,1,10.9-15.49c.8.41,1.66.73,2.5,1.07.42.17.85.35,1.28.5a11.09,11.09,0,0,0,1.12.38,92.72,92.72,0,0,1,1,19.06A83.2,83.2,0,0,1,64.87,254c-.24,1.12-.51,2.24-.79,3.37-3.48-1.1-6.95-2.22-10.43-3.3-1.74-.54-3.48-1.07-5.24-1.57a34.51,34.51,0,0,0-4.71-1.21A72.7,72.7,0,0,1,49.91,235.36ZM61,266.62a1.57,1.57,0,0,1-.53.76l-.18.08a2.77,2.77,0,0,1-1.27-.12c-1.15-.26-2.29-.54-3.43-.84q-3.42-.87-6.79-1.89-1.69-.51-3.36-1.06a18.18,18.18,0,0,1-2.78-1A.93.93,0,0,0,42,262a3.33,3.33,0,0,1-.05-1.8c.12-.95.26-1.89.42-2.84.26-1.53.58-3,.94-4.56.61.28,1.27.5,1.88.73.88.33,1.76.65,2.64,1,1.72.6,3.46,1.17,5.19,1.73,3.47,1.13,7,2.22,10.43,3.32A53.58,53.58,0,0,1,61,266.62Zm-30.57,1.33a23.25,23.25,0,0,1,3.4-10.45,18.22,18.22,0,0,1,4-4.42,21.24,21.24,0,0,1,3.66-2.19c-.4,1.58-.77,3.16-1.07,4.76q-.29,1.56-.51,3.13a12,12,0,0,0-.24,3.2,3.14,3.14,0,0,0,.13.47A25.39,25.39,0,0,0,30.45,267.95Zm23.49,4.68c-.29.32-.46.32-.88.23s-1-.22-1.47-.33l-2.84-.64c-.89-.2-1.8-.37-2.68-.61-.21-.06-.58-.13-.71-.33s0-.74,0-1c0-1.35,0-2.77-.11-4.15q3.25,1.05,6.55,2c1.61.45,3.24.91,4.87,1.31C55.76,270.3,54.91,271.53,53.94,272.63ZM68.12,268a29.19,29.19,0,0,1-2,9.64,20.77,20.77,0,0,0-3.71-9,8.57,8.57,0,0,0,1.16-2.39q1.27-3.32,2.25-6.75c.21-.75.4-1.5.59-2.25A25.05,25.05,0,0,1,68.12,268Z"/><path class="cls-4" d="M54.28,245.88A6.84,6.84,0,0,0,63.51,237a6.07,6.07,0,0,0-7.57-3.18.55.55,0,0,0-.16.13,5.58,5.58,0,0,0-1.56.65,6.57,6.57,0,0,0-2.67,3.46C50.5,241,51.34,244.45,54.28,245.88Zm-1.18-6.31a5.58,5.58,0,0,1,1.66-3.24,4.37,4.37,0,0,1,1.57-.89,5.13,5.13,0,0,1,1.13-.21,4.36,4.36,0,0,1,3.78,2.15,4.77,4.77,0,0,1-.49,5.35A5,5,0,0,1,56,244.31a3.86,3.86,0,0,1-2.31-1.5A4.44,4.44,0,0,1,53.1,239.56Z"/><path class="cls-6" d="M1276.52,203.82c-.52-.61.84-43.8.84-43.8l41.44-35.65-3.27,50.19Z"/><path class="cls-5" d="M1289.18,187.35c8.68-6.69,31-22.64,44.41-23.71-3.07,13.14-22.17,32.78-30.08,40.37a51.83,51.83,0,0,1-8.75,6.79L1269.89,226h0c-4,.22-8.31-4.73-7.49-8.7h0L1281.16,195A51.83,51.83,0,0,1,1289.18,187.35Z"/><path class="cls-7" d="M1272.07,218.57a37.71,37.71,0,0,0,3.88,3.73l-6,3.66h0c-4,.22-8.31-4.73-7.49-8.7h0l4.68-5.57A26.85,26.85,0,0,0,1272.07,218.57Z"/><polygon class="cls-8" points="1317.16 149.47 1276.87 176.46 1276.64 185.6 1316.96 152.51 1317.16 149.47"/><path class="cls-6" d="M1204.73,120.37c.52.61,43.43,5.72,43.43,5.72l41.44-35.65-50.12-4.27Z"/><path class="cls-5" d="M1222.91,110.32c7.91-7.58,27-27.23,30.08-40.37-13.45,1.07-35.73,17-44.41,23.71a51.83,51.83,0,0,0-8,7.63l-18.76,22.32h0c-.82,4,3.44,8.92,7.49,8.7h0l24.87-15.21A51.83,51.83,0,0,0,1222.91,110.32Z"/><path class="cls-7" d="M1189.48,122.57a37.71,37.71,0,0,1-3.11-4.4l-4.51,5.37h0c-.82,4,3.44,8.92,7.49,8.7h0l6.21-3.8A26.85,26.85,0,0,1,1189.48,122.57Z"/><polygon class="cls-8" points="1264.54 88.31 1231.84 124.11 1222.76 122.97 1261.51 88.05 1264.54 88.31"/><rect class="cls-9" x="1214.24" y="161.07" width="35.92" height="8.72" transform="translate(1910.38 1207.43) rotate(-130.7)"/><polygon class="cls-7" points="1208.91 157.35 1237.03 190.03 1241.94 182.37 1217.22 153.64 1208.91 157.35"/><path class="cls-10" d="M1294.2,57.66a175.87,175.87,0,0,1,67.34-26.77c9.1-1.6,21.6-2.06,29.87-.26.55,8.45-1.78,20.73-4.72,29.5a175.87,175.87,0,0,1-36.52,62.59c-17.44,19.07-39.93,31.28-60.65,46.25L1259,191l-23-26.7-23-26.7,26.38-26.91C1257.3,92.47,1272.74,72,1294.2,57.66Z"/><rect class="cls-6" x="1196.74" y="172.59" width="50.7" height="3.08" rx="1.4" ry="1.4" transform="translate(1887.07 1214.14) rotate(-130.7)"/><polygon class="cls-6" points="1246.64 176.7 1223.22 149.47 1218.81 153.26 1245.41 177.76 1246.64 176.7"/><polygon class="cls-7" points="1259.14 191.23 1213.2 137.82 1226.23 124.48 1273.5 180.33 1259.14 191.23"/><path class="cls-11" d="M1189.28,174.23a23.53,23.53,0,0,1,5.59-2.65c6.21-2,13.08-1.35,17.93,2.51l.27.2a25.76,25.76,0,0,1,9,12.17,14.55,14.55,0,0,1,.84,3.09,24.62,24.62,0,0,1,.47,5.7,16.7,16.7,0,0,1-1.33,6.26,20.57,20.57,0,0,1-3.72,5.38c-5.14,5.63-11.67,9.53-18.17,12.53-3.2,1.48-6.43,2.76-9.62,4-1.59.61-3.21,1.15-4.75,1.8-.58.24-3.6,1.24-3.71,1.67a72.51,72.51,0,0,0,1.46-9,125,125,0,0,1-19.79,7.47s5.12-10.17,9.9-17.62a82.84,82.84,0,0,0-14.46,4.17c.44-.17,1.12-1.7,1.38-2.09,3.9-5.77,8-11.7,12.51-17.74S1182.27,178.71,1189.28,174.23Z"/><path class="cls-5" d="M1195.63,180.46a13.35,13.35,0,0,1,3.18-1.49c3.53-1.1,7.42-.74,10.17,1.46l.16.11a14.69,14.69,0,0,1,5.11,6.9,8.29,8.29,0,0,1,.48,1.75,14,14,0,0,1,.28,3.23,9.5,9.5,0,0,1-.74,3.56,11.67,11.67,0,0,1-2.1,3.06,31.79,31.79,0,0,1-10.33,7.18c-1.83.85-3.68,1.59-5.5,2.29-.91.35-1.84.67-2.72,1-.33.14-2.06.72-2.13,1a41.78,41.78,0,0,0,.84-5.15,72.27,72.27,0,0,1-11.39,4.33s3-5.86,5.73-10.14a43.41,43.41,0,0,0-7,1.92.47.47,0,0,1-.54-.71h0c2.26-3.31,4.65-6.71,7.22-10.16S1191.63,183,1195.63,180.46Z"/><path class="cls-12" d="M1276,222.3s-7.83-6.85-8.79-10.61l2.36-2.87s4.78,7.44,9.81,11.4Z"/><circle class="cls-5" cx="1320.41" cy="89.86" r="25.78" transform="translate(260.83 882.86) rotate(-40.7)"/><path class="cls-13" d="M1346.36,89.79a25.78,25.78,0,0,0-51.47,2.7Z"/><path class="cls-6" d="M1302.46,69a27.53,27.53,0,1,1-2.92,38.82A27.56,27.56,0,0,1,1302.46,69Zm2.27,2.64a24,24,0,1,0,33.9,2.55A24.07,24.07,0,0,0,1304.73,71.64Z"/><path class="cls-12" d="M1194.29,129.54s-7.83-6.85-8.79-10.61l2.36-2.87s4.78,7.44,9.81,11.4Z"/><path class="cls-14" d="M1126.7,349.45l-.11,4.87a101.07,101.07,0,0,0,16.87,1.06c-1-2.26,0-5.37-3.91-5.81C1138.31,349.42,1126.7,349.77,1126.7,349.45Z"/><path class="cls-15" d="M1126.84,356.46a3.09,3.09,0,0,1-2.23,1.18,8.71,8.71,0,0,0-1.62.14,3.05,3.05,0,0,0-1.19.8c-1.82,1.7-6.27,7.29-8.06,1.07-1.63-5.65,6.09-11,9.88-13.74a1.6,1.6,0,0,1,.87-.38,2.4,2.4,0,0,1,1.12.34c2,1,5.06,2.49,3.84,4.7-.52.94-1.7,1.44-2.2,2.49C1126.85,353.91,1127.28,355.87,1126.84,356.46Z"/><path class="cls-5" d="M1202.59,309.33c-6.45,6.34-9.14,14.63-14.92,21.54-11.16,13.35-53.65,16.31-53.65,16.31s.88,9.43,1.62,10.43c10.14,2.2,43.88,5.38,58.82-4.08q21.88-13.85,42.49-29.63c2.52-1.93,5.25-4.25,5.61-7.19.27-2.26-1-4.24-2.22-6-3.39-4.66-9.1-13.6-15.79-13.91C1217.24,296.47,1207.54,304.46,1202.59,309.33Z"/><path class="cls-14" d="M1163.78,404.82l2.45,4.21a101.07,101.07,0,0,0,14.94-7.91c-2-1.41-2.84-4.56-6.37-2.92C1173.66,398.73,1163.94,405.1,1163.78,404.82Z"/><path class="cls-15" d="M1167.66,411.34a3.09,3.09,0,0,1-1.51,2,8.71,8.71,0,0,0-1.41.82,3.05,3.05,0,0,0-.73,1.24c-.91,2.32-2.53,9.27-6.82,4.42-3.9-4.41.79-12.53,3-16.65a1.6,1.6,0,0,1,.62-.72,2.4,2.4,0,0,1,1.16-.17c2.23,0,5.64.07,5.49,2.59-.06,1.08-.92,2-.91,3.19C1166.57,409,1167.8,410.62,1167.66,411.34Z"/><path class="cls-5" d="M1207.41,327.54c-2.12,9.22.15,18-1.06,27.38-2.35,18.05-38.17,44.53-38.17,44.53s6.07,7.83,7.29,8.29c10.18-3.76,41.74-19.91,49.61-36.65q11.52-24.51,20.85-50c1.14-3.12,2.24-6.7.91-9.5-1-2.15-3.22-3.21-5.32-4-5.61-2.21-15.67-6.89-21.75-3.4C1213.11,308,1209,320.46,1207.41,327.54Z"/><path class="cls-16" d="M1251.26,244.76l-7.7-.29a38.47,38.47,0,0,1,0-6.14c-2.17-.62-4.7-1.59-5.2-3.79a6.37,6.37,0,0,1,0-2.12l1-8.77a7.77,7.77,0,0,1,.72-2.94c.86-1.56,2.67-2.33,4.41-2.75a15.87,15.87,0,0,1,13,2.34,7,7,0,0,1,2.34,2.72c.74,1.72.38,3.68,0,5.52l-1,5.08c-.39,1.95-1,4.17-2.78,5-1,.44-2.12.4-3,1C1251.62,240.73,1252,243,1251.26,244.76Z"/><path class="cls-6" d="M1275.33,214.33a18.81,18.81,0,0,1,1.32-2.16,36.63,36.63,0,0,0,3.23-4.41c.83-1.63,1-3.78-.18-5.16a5.66,5.66,0,0,0-3.11-1.55,21.88,21.88,0,0,0-11.5.49c-3.52,1.13-6.63,2.83-10.31,1.71-3.46-1.06-5.87-.39-9.33,1.09-3.74,1.6-8.86,2.24-12.21,4.38a10.24,10.24,0,0,0-3.29,3.67,15.43,15.43,0,0,0,1,16.29,22,22,0,0,0,2.58,2.87c1.93,1.85,4.23,4.13,6.76,4.71-.08-2.23-2.53-9.11-.94-11,2.53-3.06,8.72-2.42,12.12-1.92,3.71.55,7.14,2.95,10.8,3.28,2.64.24,5.9-1.25,8-2.74C1272.91,222,1273.89,217.07,1275.33,214.33Z"/><path class="cls-10" d="M1236.6,243.44c-15.08,5.75-22.24,28.36-29.63,41.41-5.06,8.93-11.88,19-22.14,19.31-6.63.2-12.54-3.9-17.76-8,1.42,8.09,3.64,17.31,11,21,5.41,2.74,12,1.54,17.76,3.52,6.18,2.14,11.15,7.91,17.7,8,5,.07,9.36-3.23,14.27-4,7.58-1.16,14.57,3.79,21,8,1.86,1.23,4,2.48,6.2,2,2.79-.66,4.12-3.83,4.67-6.65,2.52-12.83-2.12-25.45-3.2-38.15-1-11.4,5.09-21.26,3.89-32.84a16.29,16.29,0,0,0-15.09-14.89A19.19,19.19,0,0,0,1236.6,243.44Z"/><path class="cls-16" d="M1281.54,194.22l-3.47,3.55c-.36.37-1.55,1.17-1.06,1.81.24.31,1,1.43,1.73,2.51.32,1.08.69,2.15.92,3.25.58,2.79-1.17,9.3,2.28,10.38a5.43,5.43,0,0,0,2,.36,4.51,4.51,0,0,0,1.59-.52c.39-.19,1.06-.39,1.2-.83a7.46,7.46,0,0,0-.3-2.14l-.61-4.3c-.2-1.41-.31-3.08.66-4a6,6,0,0,0,.65-.55,2.42,2.42,0,0,0,.41-.92,17.67,17.67,0,0,0,.65-3.76c.06-1.16-.65-1.68-1.32-2.51s-.88-2.2-1.63-3.18a1.88,1.88,0,0,0-1.71-.83,2.6,2.6,0,0,0-1.28.87Z"/><path class="cls-10" d="M1287.82,246.05a23.27,23.27,0,0,0,2.59-9.22,95.53,95.53,0,0,0-1.34-26.79,26.38,26.38,0,0,0-11.37.74,150.13,150.13,0,0,1-2,21.86c-.58,3.52-1.64,6.51-4.72,8.1a139.75,139.75,0,0,1-21.3,8.84,14.08,14.08,0,0,0-4.63,2.1c-2.48,2-3.51,5.69-3,9.1a15.31,15.31,0,0,0,5,8.69,10.29,10.29,0,0,0,6.13,3c2.32.12,4.48-1,6.51-2.12a102.45,102.45,0,0,0,24.58-19.43A23.47,23.47,0,0,0,1287.82,246.05Z"/></svg>