<svg xmlns="http://www.w3.org/2000/svg" viewBox="0 0 1920 786"><defs><style>.cls-1{isolation:isolate;}.cls-2{fill:#fff;}.cls-3{fill:#bab0ce;}.cls-4{fill:#a391c0;}.cls-12,.cls-13,.cls-24,.cls-25,.cls-5,.cls-6,.cls-7,.cls-8,.cls-9{fill:none;}.cls-5,.cls-6,.cls-7{stroke:#ff96bc;}.cls-12,.cls-13,.cls-24,.cls-5,.cls-6,.cls-7,.cls-8,.cls-9{stroke-linecap:round;stroke-linejoin:round;}.cls-5,.cls-6,.cls-7,.cls-8,.cls-9{stroke-width:1.1763px;}.cls-6{stroke-dasharray:6.83872 6.83872;}.cls-7{stroke-dasharray:7.16609 7.16609;}.cls-8{stroke:#ffd005;}.cls-9{stroke:#75cfd1;}.cls-10{fill:#8198f0;}.cls-11{fill:#afcef8;}.cls-12{stroke:#fff;}.cls-12,.cls-13{stroke-width:0.88222px;}.cls-13,.cls-25{stroke:#afcef8;}.cls-14{fill:#3a5ec9;}.cls-15{fill:#ff96bc;}.cls-16{fill:#ffe87c;}.cls-17{fill:#a5e4e6;}.cls-18{fill:#ffd005;}.cls-19{fill:#75cfd1;}.cls-20{fill:#2f248f;}.cls-21{fill:#ffc7b6;}.cls-22{fill:#e66666;opacity:0.2;mix-blend-mode:multiply;}.cls-23{fill:#fd6d9e;}.cls-24{stroke:#a5e4e6;stroke-width:2.3526px;}.cls-25{stroke-miterlimit:10;stroke-width:5.68483px;}.cls-26{fill:#00c6c9;}</style></defs><title>plan+talk</title><g class="cls-1"><g id="Layer_1" data-name="Layer 1"><rect class="cls-2" y="-25.09091" width="1920" height="837.57576"/><path class="cls-3" d="M1927.47923.4118V790.46188H936.73307s127.79545-37.18159,155.43359-439.09722c12.32795-179.30836,113.34778-389.26091,343.74173-439.26211,118.18752-25.66883,270.41857-9.22747,462.17709,75.00923Q1912.62848-6.50882,1927.47923.4118Z"/><path class="cls-3" d="M1449.99751-133.70515c-62.48965,13.19525-119.52428,37.19647-169.50991,71.32659-45.64289,31.16985-85.58949,70.83062-118.72766,117.90123-58.357,82.88392-94.69663,188.14537-102.34636,296.36841-16.17109,228.844-63.13632,348.29323-99.68611,408.19763a293.94239,293.94239,0,0,1-21.13082,30.37317h1.92376a295.41266,295.41266,0,0,0,20.349-29.36635c23.35454-38.21817,43.28328-87.34767,59.22866-146.01955,19.928-73.31048,33.64965-161.81561,40.80342-263.07953C1074.217,163.745,1184.16785-76.04,1450.29822-132.23273c141.96259-30.01233,311.63738-4.88473,504.63773,74.67877v-1.63793C1761.891-138.66482,1592.0946-163.74855,1449.99751-133.70515Z"/><path class="cls-4" d="M1924.72759-12.88821C1900.9224,95.1085,1804.66278,175.88819,1689.51168,175.88819c-133.02025,0-240.85139-107.83175-240.85139-240.86688q0-11.58711,1.08183-22.91876C1571.205-113.56628,1727.65485-97.12492,1924.72759-12.88821Z"/><path class="cls-4" d="M1933.93595,638.08525V790.46188H1698.28412C1738.72607,700.63434,1829.03464,638.08525,1933.93595,638.08525Z"/><path class="cls-3" d="M636-9.37882S319.78188,62.48171,308.12089,487.85083C299.99988,784.00229-33.9915,787.72465-33.9915,787.72465V-9.37882Z"/><path class="cls-4" d="M174,207.31443c0,135.49243-87.20465,245.32562-194.76086,245.32562q-6.67364,0-13.23063-.56336V-9.37882H70.621C132.13159,31.8576,174,113.42483,174,207.31443Z"/><line class="cls-5" x1="1679.90796" y1="373.51437" x2="1679.90796" y2="377.04327"/><line class="cls-6" x1="1679.90796" y1="383.88199" x2="1679.90796" y2="544.59186"/><polyline class="cls-5" points="1679.908 548.011 1679.908 551.54 1676.84 553.284"/><line class="cls-7" x1="1670.60938" y1="556.82397" x2="1424.50708" y2="696.66986"/><line class="cls-5" x1="1421.39185" y1="698.44006" x2="1418.32373" y2="700.18353"/><polyline class="cls-8" points="1641.431 349.029 1641.431 527.055 1588.661 497.539 1327.077 646.182"/><polyline class="cls-9" points="1700.896 384.008 1700.896 562.034 1699.931 563.625 1438.346 712.269"/><path class="cls-10" d="M1475.61609,305.578l430.08086,258.92344c6.87365,3.96064,20.119-8.94452,20.10325-16.8777l4.61812-350.61559c-.00714-3.65584-.854-8.33314-4.47866-10.85006L1486.2113-65.11226c-6.86235-4.00316-23.38321,6.37467-23.38943,14.31945l6.70085,347.28626C1469.51975,300.17872,1472.423,303.73822,1475.61609,305.578Z"/><path class="cls-11" d="M1468.3728,312.82131l435.31661,251.1669c6.874,3.96124,14.88325-1.188,14.86749-9.12116l.13917-350.35628c-.00743-3.65554-.854-8.33284-4.47891-10.85035L1478.968-57.86927c-6.86232-4.00316-16.87116,1.37384-16.87711,9.31861l.18823,352.28709C1462.27647,307.422,1465.18,310.9815,1468.3728,312.82131Z"/><path class="cls-10" d="M1512.69427,300.375l369.40208,212.13025a7.87049,7.87049,0,0,0,11.80193-6.818V222.82892a7.87044,7.87044,0,0,0-3.93566-6.816L1520.56114,3.60288a7.871,7.871,0,0,0-11.80609,6.81626v283.1375A7.87027,7.87027,0,0,0,1512.69427,300.375Z"/><ellipse class="cls-10" cx="1485.41138" cy="155.79033" rx="12.08595" ry="21.15045" transform="translate(4.00119 345.89935) rotate(-13.30009)"/><line class="cls-12" x1="1664.37947" y1="112.7636" x2="1664.37947" y2="370.82111"/><line class="cls-12" x1="1775.45944" y1="175.57421" x2="1775.45944" y2="433.63201"/><line class="cls-12" x1="1834.38583" y1="208.60909" x2="1834.38583" y2="466.66659"/><line class="cls-12" x1="1606.13019" y1="79.58034" x2="1606.13019" y2="337.63784"/><line class="cls-12" x1="1554.29364" y1="49.43974" x2="1554.29364" y2="307.49724"/><line class="cls-12" x1="1716.53271" y1="142.35258" x2="1716.53271" y2="400.41009"/><line class="cls-13" x1="1728.32962" y1="214.95789" x2="1763.97446" y2="233.90527"/><line class="cls-13" x1="1728.32962" y1="232.44757" x2="1763.97446" y2="251.39495"/><line class="cls-13" x1="1728.32962" y1="249.93726" x2="1763.97446" y2="268.88464"/><line class="cls-13" x1="1616.39591" y1="214.95789" x2="1652.04079" y2="233.90527"/><line class="cls-13" x1="1616.39591" y1="232.44757" x2="1652.04079" y2="251.39495"/><line class="cls-13" x1="1616.39591" y1="249.93726" x2="1652.04079" y2="268.88464"/><line class="cls-13" x1="1560.42893" y1="134.50535" x2="1596.0738" y2="153.45273"/><line class="cls-13" x1="1560.42893" y1="151.99503" x2="1596.0738" y2="170.94241"/><line class="cls-13" x1="1560.42893" y1="169.48471" x2="1596.0738" y2="188.43209"/><line class="cls-13" x1="1560.42893" y1="85.53453" x2="1596.0738" y2="104.48191"/><line class="cls-13" x1="1560.42893" y1="103.02421" x2="1596.0738" y2="121.97159"/><line class="cls-13" x1="1560.42893" y1="120.5136" x2="1596.0738" y2="139.46098"/><line class="cls-13" x1="1516.40037" y1="235.07482" x2="1548.53184" y2="252.15443"/><line class="cls-13" x1="1515.68579" y1="252.18446" x2="1547.81727" y2="269.26437"/><line class="cls-13" x1="1514.97151" y1="269.29441" x2="1547.10299" y2="286.37402"/><polygon class="cls-14" points="1885.317 308.564 1843.354 284.281 1845.236 231.595 1887.022 259.068 1885.317 308.564"/><polygon class="cls-14" points="1885.317 437.988 1843.354 413.705 1845.236 361.019 1887.022 388.492 1885.317 437.988"/><polygon class="cls-14" points="1762.889 413.502 1720.926 389.219 1722.808 336.533 1764.594 364.006 1762.889 413.502"/><polygon class="cls-14" points="1822.354 375.025 1780.391 350.742 1782.273 298.056 1824.059 325.529 1822.354 375.025"/><polygon class="cls-14" points="1828.227 278.848 1786.264 254.565 1788.146 201.879 1829.932 229.352 1828.227 278.848"/><polygon class="cls-14" points="1712.116 240.363 1670.153 216.08 1672.034 163.394 1713.82 190.867 1712.116 240.363"/><polygon class="cls-14" points="1712.116 240.363 1670.153 216.08 1672.034 163.394 1713.82 190.867 1712.116 240.363"/><polygon class="cls-14" points="1712.116 335.022 1670.153 310.739 1672.034 258.053 1713.82 285.526 1712.116 335.022"/><polygon class="cls-14" points="1658.752 373.507 1616.789 349.224 1618.671 296.538 1660.457 324.011 1658.752 373.507"/><polygon class="cls-14" points="1601.24 294.592 1559.277 270.309 1561.159 217.623 1602.945 245.096 1601.24 294.592"/><polygon class="cls-14" points="1659.571 180.837 1617.608 156.554 1619.49 103.868 1661.276 131.341 1659.571 180.837"/><polygon class="cls-14" points="1558.131 180.837 1516.168 156.554 1518.05 103.868 1559.836 131.341 1558.131 180.837"/><path class="cls-15" d="M1827.7081,272.54731l43.8436,25.32146a2.90242,2.90242,0,0,0,4.244-1.72235l11.1159-39.24392a2.90193,2.90193,0,0,0-1.36254-3.31654l-42.87359-24.272a2.90223,2.90223,0,0,0-4.19675,1.65009l-12.08617,38.19451A2.90262,2.90262,0,0,0,1827.7081,272.54731Z"/><path class="cls-16" d="M1827.7081,402.64659l43.8436,25.32146a2.90242,2.90242,0,0,0,4.244-1.72235l11.1159-39.24392a2.90193,2.90193,0,0,0-1.36254-3.31654l-42.87359-24.272a2.90223,2.90223,0,0,0-4.19675,1.65009l-12.08617,38.19451A2.90262,2.90262,0,0,0,1827.7081,402.64659Z"/><path class="cls-17" d="M1771.00691,242.85485l43.8436,25.32146a2.90208,2.90208,0,0,0,4.24374-1.72235l11.1162-39.24392a2.90236,2.90236,0,0,0-1.36254-3.31654l-42.87355-24.272a2.90255,2.90255,0,0,0-4.19709,1.65009L1769.69136,239.466A2.902,2.902,0,0,0,1771.00691,242.85485Z"/><path class="cls-16" d="M1768.534,338.521l43.84364,25.32146a2.902,2.902,0,0,0,4.2437-1.72235l11.1162-39.24392a2.90236,2.90236,0,0,0-1.36254-3.31654l-42.87359-24.272a2.90247,2.90247,0,0,0-4.197,1.65009l-12.086,38.19451A2.9021,2.9021,0,0,0,1768.534,338.521Z"/><path class="cls-15" d="M1710.2419,379.77068l43.8436,25.32146a2.90242,2.90242,0,0,0,4.244-1.72235l11.1159-39.24392a2.90193,2.90193,0,0,0-1.36254-3.31654l-42.87359-24.272a2.90223,2.90223,0,0,0-4.19675,1.65009l-12.08618,38.19451A2.90263,2.90263,0,0,0,1710.2419,379.77068Z"/><path class="cls-16" d="M1655.63983,203.22406l43.8436,25.32116a2.90215,2.90215,0,0,0,4.244-1.72206l11.1159-39.24392a2.90183,2.90183,0,0,0-1.36254-3.31654l-42.87359-24.272a2.90217,2.90217,0,0,0-4.19675,1.65009l-12.08621,38.19451A2.90251,2.90251,0,0,0,1655.63983,203.22406Z"/><path class="cls-17" d="M1655.63983,299.719l43.8436,25.32146a2.90242,2.90242,0,0,0,4.244-1.72235l11.1159-39.24362a2.90222,2.90222,0,0,0-1.36254-3.31684l-42.87359-24.27175a2.90188,2.90188,0,0,0-4.19675,1.6498l-12.08621,38.19451A2.90236,2.90236,0,0,0,1655.63983,299.719Z"/><path class="cls-17" d="M1544.64287,258.56925l43.84363,25.32146a2.90205,2.90205,0,0,0,4.2437-1.72235l11.1162-39.24392a2.90236,2.90236,0,0,0-1.36254-3.31654l-42.87359-24.272a2.90216,2.90216,0,0,0-4.19675,1.65009l-12.08621,38.19451A2.9021,2.9021,0,0,0,1544.64287,258.56925Z"/><path class="cls-17" d="M1602.9433,144.5424l43.8436,25.32146a2.90208,2.90208,0,0,0,4.24374-1.72235l11.1162-39.24392a2.90236,2.90236,0,0,0-1.36254-3.31654l-42.87359-24.272a2.90217,2.90217,0,0,0-4.19675,1.65009l-12.08621,38.19451A2.902,2.902,0,0,0,1602.9433,144.5424Z"/><path class="cls-16" d="M1601.44159,336.4787l43.8436,25.32146a2.90247,2.90247,0,0,0,4.244-1.72206l11.1162-39.24392a2.90221,2.90221,0,0,0-1.36284-3.31654l-42.87359-24.272a2.90219,2.90219,0,0,0-4.19675,1.6498L1600.126,333.0899A2.90269,2.90269,0,0,0,1601.44159,336.4787Z"/><path class="cls-15" d="M1501.6988,137.68213l37.65835,25.32146c1.40685.94593,3.20235.09754,3.64513-1.72235l9.54788-39.24392a3.11688,3.11688,0,0,0-1.17014-3.31654l-36.82542-24.272a2.39258,2.39258,0,0,0-3.60469,1.65009l-10.38111,38.19451A3.13029,3.13029,0,0,0,1501.6988,137.68213Z"/><path class="cls-18" d="M1819.04815,643.43565a6.55133,6.55133,0,0,1-6.55131-6.55161V499.7437a6.55131,6.55131,0,1,1,13.10262,0V636.884A6.5513,6.5513,0,0,1,1819.04815,643.43565Z"/><path class="cls-19" d="M1812.82484,636.88375h13.4663c4.82806,12.78205,0,24.88016,0,24.88016h-34.78727S1784.44853,658.379,1812.82484,636.88375Z"/><path class="cls-2" d="M1791.33051,661.76391h35.85184l1.01823-4.2928h-36.97147S1789.58347,660.21582,1791.33051,661.76391Z"/><path class="cls-2" d="M1791.22911,657.47111s.2828-2.98676,8.74975-10.15243c0,0,6.992-2.13183,7.25161,10.15243Z"/><circle class="cls-2" cx="1820.39315" cy="649.04014" r="3.44857"/><path class="cls-18" d="M1844.74846,643.43565a6.55135,6.55135,0,0,1-6.55131-6.55161V499.7437a6.55131,6.55131,0,1,1,13.10262,0V636.884A6.55133,6.55133,0,0,1,1844.74846,643.43565Z"/><path class="cls-19" d="M1837.97977,636.60006h13.4663c4.82806,12.78235,0,24.88016,0,24.88016H1816.393S1809.60346,658.09558,1837.97977,636.60006Z"/><path class="cls-2" d="M1816.28,661.48022h35.85184l1.01819-4.2925h-36.97143S1814.53292,659.93213,1816.28,661.48022Z"/><path class="cls-2" d="M1816.17856,657.18772s.2828-2.98706,8.74975-10.15273c0,0,6.992-2.13153,7.25161,10.15273Z"/><circle class="cls-2" cx="1845.3426" cy="648.75675" r="3.44857"/><path class="cls-20" d="M1750.4491,284.20819l18.06042,78.5506a.943.943,0,1,1-1.83813.42261l-.00305-.01385-16.87659-78.81342a.33669.33669,0,0,1,.65735-.14594Z"/><path class="cls-21" d="M1813.99235,415.83009a6.03574,6.03574,0,0,0-7.23381-4.55627c-14.86244,3.36858-24.58785,2.78782-29.757-1.786-6.322-5.59022-8.32005-18.912-6.11-40.7254a5.9899,5.9899,0,0,0-.34049-2.64092,7.82084,7.82084,0,0,0,2.20052-2.22966,6.786,6.786,0,0,0,1.375-4.44386c-.14868-2.84938-4.43821-2.89071-4.46052,0a3.7419,3.7419,0,0,1-1.35273,3.0391c-.0413-.05085-.069-.11805-.11389-.16325a4.44241,4.44241,0,0,0-1.55256-1.05209,5.63026,5.63026,0,0,1,.40145-4.35168,1.90842,1.90842,0,0,0-.25068-2.19517c.55849-1.03038,1.10918-2.06492,1.69053-3.08281a2.12626,2.12626,0,0,0-2.37389-3.08757c-3.35639.8704-5.13108,4.36863-5.47722,8.056-1.18085,2.44288-1.82286,4.98953-.78862,7.43.07107.16712.17693.29053.259.44456a5.94481,5.94481,0,0,0-1.24415,3.05754c-2.70668,26.68638.41806,42.41564,10.12593,51.0057,5.27084,4.66094,12.281,6.96376,21.50117,6.96376a86.55393,86.55393,0,0,0,18.9456-2.44823A6.04154,6.04154,0,0,0,1813.99235,415.83009Z"/><path class="cls-21" d="M1921.07056,439.91034c-.16058.34733-.37885.70833-.55965,1.0619a14.0705,14.0705,0,0,0-1.67537-4.69722,1.12047,1.12047,0,0,0-2.03816.85939,13.06269,13.06269,0,0,1-3.28383,11.18965,50.68832,50.68832,0,0,1,.98131-6.066,1.261,1.261,0,0,0-2.293-.96674,14.45014,14.45014,0,0,0-3.12206,6.74965c-.04193.2932-.08738.59949-.13144.91143a6.01366,6.01366,0,0,0-2.1535,1.17371c-12.28668,10.43107-21.84081,14.43007-28.38647,11.84535-6.06928-2.39292-14.119-12.22865-17.99878-45.50232a6.04613,6.04613,0,1,0-12.011,1.39971c3.723,31.93224,12.08948,50.03837,25.57541,55.35262a23.26809,23.26809,0,0,0,8.61623,1.62065c9.249,0,19.81956-5.1287,32.03364-15.49881a5.9512,5.9512,0,0,0,1.72834-2.57134,26.89237,26.89237,0,0,0,3.97814-4.34306,17.31724,17.31724,0,0,0,3.59756-11.74454C1923.89054,439.27486,1921.7438,438.45323,1921.07056,439.91034Z"/><path class="cls-21" d="M1831.17273,410.69366h0a6.58455,6.58455,0,0,1-6.56528-6.56528V389.93293a6.58455,6.58455,0,0,1,6.56528-6.56528h0a6.58455,6.58455,0,0,1,6.56528,6.56528v14.19544A6.58455,6.58455,0,0,1,1831.17273,410.69366Z"/><path class="cls-22" d="M1824.60744,383.36764H1837.738v10.95s-7.32387,3.07449-13.13057,0Z"/><path class="cls-21" d="M1834.07831,510.22175h-5.81086c-15.26983-2.795-20.06608-12.39339-24.18016-29.0668l-5.27174-51.36641c0-16.79622,13.25309-30.53907,29.4519-30.53907h5.81086c16.19851,0,29.45189,13.74285,29.45189,30.53907l-5.53491,51.36641C1855.01062,499.04221,1850.27682,510.22175,1834.07831,510.22175Z"/><path class="cls-14" d="M1860.2324,460.78525c-1.04406,15.41406-2.88179,29.93809-3.92555,45.35245-.1582,2.33463-.39252,4.85839-1.95519,6.60037-1.67924,1.87193-4.40431,2.30371-6.90607,2.56a153.99993,153.99993,0,0,1-31.92774-.06245c-2.27371-.24146-4.67079-.58641-6.45262-2.01913-2.51395-2.02091-3.076-5.56018-3.45928-8.76283-2.58234-21.57165-4.208-39.90972-6.79039-61.48137-.50315-4.2027,0-10.324-.34108-15.77328l-1.262.63012c-6.42344-.08029-12.91855-.1695-19.14364-1.75655-6.2248-1.58735-12.24947-4.84293-15.92761-10.10991a30.49877,30.49877,0,0,1-3.55592-7.29324,61.267,61.267,0,0,1-.30064-39.89129l.2596-.23224q6.375.02141,12.74994.04252.04014,5.47885.08088,10.9577c.05382,7.31406.21381,15.02569,3.971,21.301,5.02105,8.38547,16.50722,12.19505,25.54389,8.472,4.98834-2.05481,8.36793-4.46319,13.149-7.05118l3.18689-1.25549c.868,6.04846,6.55993,9.82711,12.66549,9.59041s11.63213-3.61213,16.45458-7.36431l1.55728-1.81513c6.76631,4.40848,12.694,10.54377,15.627,18.06836,2.41344,6.19149,2.10536,14.3929,5.14565,20.30189,2.337,4.54289,4.95028,9.10748,8.92311,12.31905,3.97317,3.21187,9.61776,4.8233,14.30636,2.79436,2.34564-1.01521,5.31366-2.77087,7.06843-.91292a4.89509,4.89509,0,0,1,.99023,2.23264q1.36224,5.37626,2.72478,10.75222a3.47923,3.47923,0,0,1,.07553,2.16841,3.39135,3.39135,0,0,1-1.71879,1.48624c-19.52814,10.26305-37.51532,4.53843-40.81312-9.84852"/><circle class="cls-21" cx="1848.23309" cy="376.01694" r="6.16986" transform="translate(-36.52634 305.05094) rotate(-9.34338)"/><circle class="cls-21" cx="1813.15083" cy="372.15978" r="6.16986" transform="translate(-36.36556 299.30413) rotate(-9.34338)"/><path class="cls-21" d="M1815.64742,329.26218H1846.698a6.3895,6.3895,0,0,1,6.3895,6.3895v47.33815a6.3894,6.3894,0,0,1-6.3894,6.3894h-31.05072a6.3895,6.3895,0,0,1-6.3895-6.3895V335.65168a6.3895,6.3895,0,0,1,6.3895-6.3895Z"/><path class="cls-14" d="M1848.87979,373.51437c3.61391-3.098-8.337-31.96525-16.30973-32.71342l-5.8626,1.127c-3.10392-1.38454-5.02105-4.92768-8.63407,2.39113-4.44565,9.00489-7.81363,13.684-8.81547,23.83343h0c-1.46721-5.92327-2.737-11.24734-1.80324-17.278,1.251-8.07918,4.20448-16.30557,11.49776-20.00036,5.27021-2.66977,14.1728-2.98884,19.91825-1.612,5.74009,1.37533,8.93471,3.92942,12.45023,8.67095a23.38,23.38,0,0,1,3.67186,9.19223c1.35719,6.38389,1.9433,11.12928-.58879,21.65372C1852.59068,371.32633,1850.74845,372.87562,1848.87979,373.51437Z"/><path class="cls-14" d="M1841.63056,332.40714c-1.45948-2.00634-.93582-4.96366.62536-6.8915a13.47321,13.47321,0,0,1,6.26643-3.83129c3.08549-1.06933,6.46924-1.97779,9.61241-1.09223,5.27471,1.48595,5.26014,3.49883,7.86984,5.33418,4.743,3.33587,7.22693,4.87386,11.90185,4.9479-4.0671,4.21221-6.08474,5.72254-11.72283,7.30335-5.63779,1.58081-19.86625.18764-24.55306-5.77042"/><path class="cls-23" d="M1296.78449,872.52508,1132.87183,778.4067c-8.3819-4.8129-9.68705-44.05414-3.90087-49.08292l230.72081-103.55266a12.537,12.537,0,0,1,12.55543.01338l163.28406,94.69021a12.53708,12.53708,0,0,1-.03066,21.70844L1309.28583,872.51586A12.53638,12.53638,0,0,1,1296.78449,872.52508Z"/><path class="cls-11" d="M1296.78449,862.03127l-163.91266-94.11837c-2.19517-8.89159-.72288-17.54024-.02349-21.731l226.84343-130.90455a12.537,12.537,0,0,1,12.55543.01338l163.28406,94.69021c3.10865,5.61282,2.18863,14.6296-.03066,21.70844L1309.28583,862.022A12.53638,12.53638,0,0,1,1296.78449,862.03127Z"/><path class="cls-23" d="M1296.78449,841.04365l-163.91266-94.11837a12.53689,12.53689,0,0,1-.02349-21.73074l226.84343-130.90484a12.537,12.537,0,0,1,12.55543.01338l163.28406,94.69051a12.53682,12.53682,0,0,1-.03066,21.70814l-226.21477,130.333A12.53711,12.53711,0,0,1,1296.78449,841.04365Z"/><path class="cls-17" d="M1381.97915,729.72433l-63.98967-37.06927a12.6256,12.6256,0,0,1,.04817-21.87734l37.80257-21.67751a12.625,12.625,0,0,1,12.61107.02884l63.66735,36.89679a12.62558,12.62558,0,0,1,.02792,21.83125l-37.47993,21.85A12.62524,12.62524,0,0,1,1381.97915,729.72433Z"/><line class="cls-24" x1="1223.06465" y1="724.39342" x2="1316.74889" y2="778.47064"/><line class="cls-24" x1="1251.04814" y1="706.90374" x2="1344.73236" y2="760.98095"/><path class="cls-20" d="M1570.58642,743.17279a7.78969,7.78969,0,0,1-7.56474-9.64423c4.69573-19.08774,4.1614-32.40535-1.58854-39.58976-7.87843-9.84168-26.67032-9.44975-44.8374-9.08667-6.38895.12787-12.99259.27-19.06484-.07256a7.78315,7.78315,0,0,1,.86534-15.54222c5.47989.29915,11.50278.17426,17.87983.04936,20.92342-.424,44.63727-.91173,57.31317,14.9237,9.05752,11.31663,10.54436,28.66506,4.55032,53.03524A7.787,7.787,0,0,1,1570.58642,743.17279Z"/><path class="cls-10" d="M1578.436,729.39158h-16.00344c-5.738,15.19044,0,29.56787,0,29.56787h41.65735S1612.15872,754.937,1578.436,729.39158Z"/><path class="cls-2" d="M1604.22436,758.95945h-42.60685l-1.20969-5.10164h43.93668S1606.30058,757.11963,1604.22436,758.95945Z"/><path class="cls-2" d="M1604.34449,753.85781s-.33573-3.54938-10.39806-12.0654c0,0-8.30935-2.53328-8.61772,12.0654Z"/><circle class="cls-2" cx="1569.68584" cy="743.8386" r="4.09832"/><path class="cls-10" d="M1534.44672,628.92976l49.94023,31.47459c.79843.48233,2.38671-1.003,2.40392-1.93586l1.386-41.20922a1.5114,1.5114,0,0,0-.50047-1.28641l-51.09283-30.59825c-.79724-.48709-2.76433.69316-2.78425,1.6272l-.04728,40.84524A1.35433,1.35433,0,0,0,1534.44672,628.92976Z"/><path class="cls-11" d="M1533.57781,629.76387l50.57422,30.57535a1.1707,1.1707,0,0,0,1.76993-1.03662l.8588-41.18959a1.512,1.512,0,0,0-.50047-1.28641l-50.5656-30.61787a1.36145,1.36145,0,0,0-2.00664,1.05506l-.8249,41.41738A1.35434,1.35434,0,0,0,1533.57781,629.76387Z"/><path class="cls-10" d="M1535.59965,626.35842l46.13776,27.87614a.92536.92536,0,0,0,1.40387-.77316l.68008-33.25434a.92527.92527,0,0,0-.44635-.81092L1537.23815,591.487a.92564.92564,0,0,0-1.4045.77316l-.68067,33.28734A.92515.92515,0,0,0,1535.59965,626.35842Z"/><path class="cls-10" d="M1495.79843,653.48965l50.62983,30.68211a1.19887,1.19887,0,0,0,1.199.02468l36.37521-20.02474c.80765-.44456,1.00186-3.11968.33632-3.668l-50.93493-29.06651a1.19866,1.19866,0,0,0-1.19809-.02468l-36.54,18.35354C1494.88908,650.26946,1495.01011,653.01178,1495.79843,653.48965Z"/><path class="cls-11" d="M1495.83531,651.68909l50.62983,30.68211a1.19886,1.19886,0,0,0,1.199.02468l36.37491-20.02474a1.198,1.198,0,0,0,.04282-2.07444l-50.64143-30.6601a1.19809,1.19809,0,0,0-1.1978-.02468l-36.36391,20.00274A1.19818,1.19818,0,0,0,1495.83531,651.68909Z"/><path class="cls-10" d="M1557.53316,672.64133l-2.41165,1.326a.50276.50276,0,0,1-.50077-.00922l-3.62042-2.16781a.50294.50294,0,0,1,.01487-.87129l2.42589-1.3438a.50293.50293,0,0,1,.50434.01011l3.60618,2.18536A.50279.50279,0,0,1,1557.53316,672.64133Z"/><path class="cls-10" d="M1524.08375,652.28323l-2.7111,1.50141a.45438.45438,0,0,1-.45438-.00773l-2.84759-1.70511a.45525.45525,0,0,1,.01338-.78892l2.72865-1.51152a.456.456,0,0,1,.45679.00892l2.82972,1.71522A.45535.45535,0,0,1,1524.08375,652.28323Z"/><path class="cls-10" d="M1528.2698,654.82038l-2.68463,1.48684a.45582.45582,0,0,1-.45438-.00773l-2.88685-1.7289a.45524.45524,0,0,1,.01308-.78892l2.70281-1.49695a.45535.45535,0,0,1,.45643.00922l2.869,1.73871A.45534.45534,0,0,1,1528.2698,654.82038Z"/><path class="cls-10" d="M1548.00193,666.59554l-2.77236,1.53561a.34985.34985,0,0,1-.34971-.00595l-2.85532-1.70986a.35.35,0,0,1,.01014-.60663l2.79047-1.54542a.34923.34923,0,0,1,.35089.00684l2.83748,1.71968A.35012.35012,0,0,1,1548.00193,666.59554Z"/><polygon class="cls-10" points="1540.661 661.533 1537.134 663.487 1533.848 661.519 1537.396 659.554 1540.661 661.533"/><path class="cls-10" d="M1551.989,669.89246l-1.73009.95842a.85282.85282,0,0,1-.85136-.01457l-2.66174-1.59389a.85283.85283,0,0,1,.025-1.47792l1.74674-.96734a.85216.85216,0,0,1,.85523.01665l2.64509,1.60311A.85282.85282,0,0,1,1551.989,669.89246Z"/><polygon class="cls-10" points="1536.976 659.3 1533.426 661.266 1529.731 659.054 1533.305 657.075 1536.976 659.3"/><path class="cls-10" d="M1544.049,664.20619l-2.79288,1.54691a.3507.3507,0,0,1-.34822-.00506l-12.81209-7.58674a.35036.35036,0,0,1,.00892-.60782l2.81369-1.5585a.34985.34985,0,0,1,.34855.00535l12.79094,7.59834A.35031.35031,0,0,1,1544.049,664.20619Z"/><path class="cls-10" d="M1519.95629,649.75888l-2.75035,1.52341a.45531.45531,0,0,1-.4636-.01338l-2.40746-1.52044a.4552.4552,0,0,1,.02257-.78327l2.77-1.53412a.45535.45535,0,0,1,.4666.01487l2.38753,1.53115A.45547.45547,0,0,1,1519.95629,649.75888Z"/><path class="cls-10" d="M1518.36062,641.75582l2.511-1.38722a.455.455,0,0,1,.45854.01071l3.13663,1.92843a.45517.45517,0,0,1-.01784.78594l-2.5083,1.3893a.45486.45486,0,0,1-.45884-.01041l-3.13961-1.93021A.45537.45537,0,0,1,1518.36062,641.75582Z"/><path class="cls-10" d="M1553.38994,659.80842l2.53655,1.53739a.50294.50294,0,0,1-.01695.8701l-2.40868,1.334a.50294.50294,0,0,1-.50434-.00981L1550.46,662.0027a.50278.50278,0,0,1,.017-.8698l2.40894-1.33429A.50238.50238,0,0,1,1553.38994,659.80842Z"/><path class="cls-10" d="M1560.65585,665.09235l-2.40868,1.33429a.503.503,0,0,1-.50437-.01011l-3.33528-2.02151a.5028.5028,0,0,1,.01695-.8698l2.40868-1.334a.50292.50292,0,0,1,.50434.00981l3.33528,2.02151A.50281.50281,0,0,1,1560.65585,665.09235Z"/><path class="cls-10" d="M1549.39272,657.38577l2.81161,1.70421a.35.35,0,0,1-.01189.60574l-2.71645,1.50468a.3505.3505,0,0,1-.35119-.00714l-2.81191-1.70392a.35051.35051,0,0,1,.01189-.606l2.71675-1.50468A.3505.3505,0,0,1,1549.39272,657.38577Z"/><path class="cls-10" d="M1548.27075,657.31856l-2.71675,1.50468a.34978.34978,0,0,1-.35119-.00684l-2.57491-1.56059a.35025.35025,0,0,1,.01189-.60574l2.71675-1.50468a.34978.34978,0,0,1,.35119.00684l2.57491,1.56059A.35.35,0,0,1,1548.27075,657.31856Z"/><path class="cls-10" d="M1544.5861,655.08533l-2.71678,1.50468a.35049.35049,0,0,1-.35119-.00684l-2.98111-1.80681a.35025.35025,0,0,1,.01189-.60574l2.71675-1.50468a.34978.34978,0,0,1,.35119.00684l2.98081,1.80681A.35014.35014,0,0,1,1544.5861,655.08533Z"/><path class="cls-10" d="M1562.08378,665.07778l3.51548,2.13064a.50291.50291,0,0,1-.01814.87069l-2.4173,1.32894a.50234.50234,0,0,1-.50285-.01071l-3.50745-2.12558a.5028.5028,0,0,1,.01725-.8698l2.40868-1.33429A.503.503,0,0,1,1562.08378,665.07778Z"/><path class="cls-10" d="M1550.56346,652.26123l3.0165-1.67061a.34976.34976,0,0,1,.35119.00684l2.57521,1.56059a.35025.35025,0,0,1-.0119.60574l-3.0168,1.67091a.34971.34971,0,0,1-.35116-.00684l-2.57494-1.56059A.35028.35028,0,0,1,1550.56346,652.26123Z"/><path class="cls-10" d="M1568.87923,660.53757l-2.70872,1.50022a.50232.50232,0,0,1-.504-.00981l-3.33531-2.02151a.50268.50268,0,0,1,.01695-.8698l2.70876-1.50022a.50289.50289,0,0,1,.5043.00981l3.33528,2.02151A.50269.50269,0,0,1,1568.87923,660.53757Z"/><path class="cls-10" d="M1546.47257,649.78207l3.0165-1.67091a.34976.34976,0,0,1,.35119.00684l2.98111,1.80681a.35.35,0,0,1-.0119.60574l-3.01647,1.67091a.35127.35127,0,0,1-.35122-.00684l-2.98111-1.80681A.35015.35015,0,0,1,1546.47257,649.78207Z"/><path class="cls-10" d="M1534.737,643.21857l-3.3558-1.99326a.35021.35021,0,0,1,.00922-.60752l3.01323-1.66883a.34923.34923,0,0,1,.34822.00535l3.35609,1.99326a.35043.35043,0,0,1-.00922.60752l-3.01323,1.66883A.3498.3498,0,0,1,1534.737,643.21857Z"/><path class="cls-10" d="M1554.4789,654.36719l2.70872-1.50022a.503.503,0,0,1,.50434.00981l2.51068,1.52163a.50294.50294,0,0,1-.017.8701l-2.70869,1.50022a.503.503,0,0,1-.50437-.00981l-2.51067-1.52193A.5027.5027,0,0,1,1554.4789,654.36719Z"/><path class="cls-10" d="M1561.61364,655.25364l2.53655,1.53739a.503.503,0,0,1-.01695.8701l-2.70872,1.50022a.50365.50365,0,0,1-.50434-.00981l-2.53655-1.53739a.50307.50307,0,0,1,.01695-.8701l2.70872-1.50022A.50294.50294,0,0,1,1561.61364,655.25364Z"/><path class="cls-10" d="M1540.18,646.03465l3.01293-1.66883a.35053.35053,0,0,1,.34852.00535l5.18074,3.07567a.35031.35031,0,0,1-.00892.60752l-3.01293,1.66853a.35052.35052,0,0,1-.34851-.00506l-5.181-3.07567A.35022.35022,0,0,1,1540.18,646.03465Z"/><path class="cls-10" d="M1526.27892,637.38065l2.82053-1.5585a.45559.45559,0,0,1,.466.01517l3.08192,1.97512a.45509.45509,0,0,1-.02528.78148l-2.81726,1.56059a.45544.45544,0,0,1-.46627-.01487l-3.08516-1.9769A.45538.45538,0,0,1,1526.27892,637.38065Z"/><path class="cls-10" d="M1535.85773,643.2828l3.0168-1.67091a.3505.3505,0,0,1,.35119.00714l3.03731,1.84071a.35025.35025,0,0,1-.01189.60574l-3.0168,1.67091a.34978.34978,0,0,1-.35119-.00684l-3.03731-1.84071A.35039.35039,0,0,1,1535.85773,643.2828Z"/><path class="cls-10" d="M1570.30719,660.5227l3.54433,2.14818a.50291.50291,0,0,1-.01814.87069l-2.71824,1.49457a.503.503,0,0,1-.50285-.01041l-3.53511-2.14253a.50269.50269,0,0,1,.01725-.8698l2.70872-1.50052A.5031.5031,0,0,1,1570.30719,660.5227Z"/><path class="cls-10" d="M1538.93222,656.12612l-2.78244,1.541a.34984.34984,0,0,1-.35122-.00684l-2.98081-1.80651a.35.35,0,0,1,.01189-.60574l2.78217-1.54126a.35121.35121,0,0,1,.35119.00684l2.98081,1.80681A.35012.35012,0,0,1,1538.93222,656.12612Z"/><path class="cls-10" d="M1546.53859,660.73651l-2.78214,1.541a.34985.34985,0,0,1-.35122-.00684l-2.81161-1.70421a.35.35,0,0,1,.0119-.60574l2.7822-1.541a.34972.34972,0,0,1,.35116.00684l2.81161,1.70421A.35.35,0,0,1,1546.53859,660.73651Z"/><path class="cls-10" d="M1542.6169,658.35965l-2.78217,1.541a.35049.35049,0,0,1-.35119-.00684l-2.57491-1.56059a.3503.3503,0,0,1,.01189-.606l2.78217-1.541a.35121.35121,0,0,1,.35119.00684l2.57491,1.56088A.35.35,0,0,1,1542.6169,658.35965Z"/><path class="cls-10" d="M1528.3144,649.94l-2.57045,1.4238a.45541.45541,0,0,1-.45646-.00922l-2.83-1.71492a.45535.45535,0,0,1,.01546-.78773l2.57045-1.4238a.45539.45539,0,0,1,.45646.00892l2.83,1.71522A.45545.45545,0,0,1,1528.3144,649.94Z"/><path class="cls-10" d="M1534.84136,653.647l-2.7825,1.54066a.34978.34978,0,0,1-.35119-.00684l-2.81845-1.70808a.35025.35025,0,0,1,.01189-.60574l2.78247-1.541a.34979.34979,0,0,1,.35119.00684l2.81815,1.70808A.3504.3504,0,0,1,1534.84136,653.647Z"/><path class="cls-10" d="M1555.002,666.13343l-2.4744,1.37027a.50289.50289,0,0,1-.5043-.00981l-3.33531-2.02151a.5028.5028,0,0,1,.01695-.8698l2.4744-1.37057a.50292.50292,0,0,1,.50434.00981l3.33528,2.02151A.50305.50305,0,0,1,1555.002,666.13343Z"/><path class="cls-10" d="M1547.66055,660.80341l2.83748,1.72a.35014.35014,0,0,1-.0119.60574l-2.78217,1.541a.35049.35049,0,0,1-.35119-.00684l-2.83748-1.72a.35025.35025,0,0,1,.01189-.60574l2.78217-1.541A.35049.35049,0,0,1,1547.66055,660.80341Z"/><path class="cls-10" d="M1510.056,646.27551l6.9022-3.74683a.45425.45425,0,0,1,.45884.01427l2.57937,1.615a.45539.45539,0,0,1-.02409.78594l-6.89893,3.74921a.45625.45625,0,0,1-.45914-.01427l-2.58264-1.61709A.45543.45543,0,0,1,1510.056,646.27551Z"/><path class="cls-10" d="M1556.68388,666.3291l4.99548,3.03523a.50252.50252,0,0,1-.01873.8701l-2.48362,1.36581a.50346.50346,0,0,1-.50344-.011l-4.98686-3.02988a.50277.50277,0,0,1,.01754-.8695l2.475-1.37087A.50277.50277,0,0,1,1556.68388,666.3291Z"/><path class="cls-10" d="M1525.59141,642.45731l-3.36293-2.03816a.45535.45535,0,0,1,.01546-.78773l2.613-1.44729a.45469.45469,0,0,1,.45646.00922l3.36293,2.03816a.45535.45535,0,0,1-.01546.78773l-2.613,1.447A.45468.45468,0,0,1,1525.59141,642.45731Z"/><path class="cls-10" d="M1531.57415,645.41969l2.825-1.56475a.35049.35049,0,0,1,.35119.00684l3.07627,1.8645a.35038.35038,0,0,1-.01189.606l-2.825,1.56445a.35049.35049,0,0,1-.35119-.00684l-3.07627-1.8645A.35026.35026,0,0,1,1531.57415,645.41969Z"/><path class="cls-10" d="M1562.98391,661.83022l-2.51692,1.39436a.50367.50367,0,0,1-.50434-.00981l-3.33528-2.02151a.503.503,0,0,1,.017-.8701l2.51718-1.39406a.503.503,0,0,1,.50434.00981l3.33528,2.02151A.50269.50269,0,0,1,1562.98391,661.83022Z"/><path class="cls-10" d="M1555.71833,656.54659l2.53655,1.53709a.50305.50305,0,0,1-.01695.8701l-2.51722,1.39406a.50238.50238,0,0,1-.504-.00981l-2.53684-1.53739a.5028.5028,0,0,1,.01725-.8698l2.517-1.39406A.50218.50218,0,0,1,1555.71833,656.54659Z"/><path class="cls-10" d="M1551.72081,654.12364l2.81161,1.70421a.35012.35012,0,0,1-.0116.60574l-2.825,1.56475a.35121.35121,0,0,1-.35119-.00684l-2.81161-1.70421a.35.35,0,0,1,.0119-.60574l2.8247-1.56475A.34976.34976,0,0,1,1551.72081,654.12364Z"/><path class="cls-10" d="M1532.929,650.53828l6.36307-3.63294a.47777.47777,0,0,1,.485.00624l2.57286,1.5594a.47821.47821,0,0,1-.01074.8243l-2.53566,1.44759a.4782.4782,0,0,0-.0107.8243l.52515.31848a.47812.47812,0,0,1-.01606.82728l-2.45864,1.36165a.47866.47866,0,0,1-.47936-.00922l-3.27164-1.98285.00714-.00416-1.18114-.71606A.47794.47794,0,0,1,1532.929,650.53828Z"/><path class="cls-10" d="M1540.76906,650.96857l2.8247-1.56475a.3512.3512,0,0,1,.35119.00684l2.98111,1.80681a.35028.35028,0,0,1-.0119.606l-2.825,1.56445a.3498.3498,0,0,1-.35119-.00684l-2.98081-1.80681A.35.35,0,0,1,1540.76906,650.96857Z"/><path class="cls-10" d="M1530.40044,645.32126l-2.83-1.71522a.45535.45535,0,0,1,.01546-.78773l2.613-1.44729a.45539.45539,0,0,1,.45646.00892l2.83008,1.71522a.45525.45525,0,0,1-.01549.78773l-2.613,1.44729A.4554.4554,0,0,1,1530.40044,645.32126Z"/><path class="cls-10" d="M1544.85995,653.448l2.82473-1.56475a.35114.35114,0,0,1,.35116.00684l2.57494,1.56088a.35014.35014,0,0,1-.01163.60574l-2.825,1.56445a.34972.34972,0,0,1-.35116-.00684l-2.57494-1.56059A.35.35,0,0,1,1544.85995,653.448Z"/><path class="cls-10" d="M1564.58137,661.93728l5.04722,3.05545a.50269.50269,0,0,1-.01814.87069l-2.52551,1.38871a.50249.50249,0,0,1-.50255-.01041l-5.03863-3.0501a.50283.50283,0,0,1,.017-.8701l2.51662-1.39406A.50311.50311,0,0,1,1564.58137,661.93728Z"/><path class="cls-10" d="M1575.16082,657.80743l3.65435,2.21569a.45547.45547,0,0,1-.01665.78862l-2.67928,1.47316a.45531.45531,0,0,1-.45524-.00981l-3.64606-2.20974a.45534.45534,0,0,1,.0152-.78773l2.67092-1.47911A.45525.45525,0,0,1,1575.16082,657.80743Z"/><path class="cls-10" d="M1543.52747,642.00085l2.67687-1.48268a.45451.45451,0,0,1,.45676.00892l2.86841,1.7393a.45508.45508,0,0,1-.01546.78743l-2.67631,1.48238a.45468.45468,0,0,1-.45646-.00892l-2.8693-1.739A.45508.45508,0,0,1,1543.52747,642.00085Z"/><path class="cls-10" d="M1534.70038,636.65091l2.679-1.48386a.45525.45525,0,0,1,.45676.00892l3.362,2.03875a.45509.45509,0,0,1-.01546.78743l-2.67809,1.48357a.456.456,0,0,1-.45676-.00892l-3.36293-2.03846A.4551.4551,0,0,1,1534.70038,636.65091Z"/><path class="cls-10" d="M1539.38035,639.4872l2.6778-1.48327a.456.456,0,0,1,.45676.00892l2.82949,1.71581a.45536.45536,0,0,1-.0155.78773l-2.6772,1.48268a.45525.45525,0,0,1-.45676-.00892l-2.83-1.71522A.45535.45535,0,0,1,1539.38035,639.4872Z"/><path class="cls-10" d="M1573.82832,657.79643l-2.671,1.4794a.45523.45523,0,0,1-.45676-.00892l-3.42895-2.078a.45534.45534,0,0,1,.0155-.78773l2.67182-1.48a.45546.45546,0,0,1,.45649.00892l3.42832,2.0786A.45535.45535,0,0,1,1573.82832,657.79643Z"/><path class="cls-10" d="M1559.41788,651.6317l2.67363-1.48089a.4554.4554,0,0,1,.45646.00892l2.60408,1.579a.45548.45548,0,0,1-.0155.78773l-2.673,1.4803a.45468.45468,0,0,1-.45646-.00892l-2.60464-1.57843A.45535.45535,0,0,1,1559.41788,651.6317Z"/><path class="cls-10" d="M1563.33957,654.00856l2.67274-1.4803a.45525.45525,0,0,1,.45676.00892l2.62962,1.59449a.45536.45536,0,0,1-.01543.78773l-2.67218,1.48a.456.456,0,0,1-.45676-.00892l-2.63022-1.59419A.45535.45535,0,0,1,1563.33957,654.00856Z"/><path class="cls-10" d="M1547.71349,644.538l2.676-1.48238a.45593.45593,0,0,1,.45676.00892l2.61089,1.58319a.4551.4551,0,0,1-.01543.78743l-2.67545,1.48208a.45593.45593,0,0,1-.45676-.00892l-2.61148-1.58289A.4551.4551,0,0,1,1547.71349,644.538Z"/><path class="cls-10" d="M1531.31458,634.59818l2.68282-1.48238a.45557.45557,0,0,1,.45616.00922l2.06581,1.25251a.45534.45534,0,0,1-.01546.78773l-2.67928,1.48387a.45524.45524,0,0,1-.45676-.00892l-2.06909-1.254A.4554.4554,0,0,1,1531.31458,634.59818Z"/><path class="cls-10" d="M1551.642,646.91872l2.67512-1.48178a.45532.45532,0,0,1,.45679.00922l2.77322,1.68132a.45535.45535,0,0,1-.01546.78773l-2.67482,1.48149a.45539.45539,0,0,1-.45646-.00892l-2.77385-1.68132A.45537.45537,0,0,1,1551.642,646.91872Z"/><path class="cls-10" d="M1555.7329,649.39817l2.67423-1.48119a.45525.45525,0,0,1,.45676.00892l2.36735,1.43539a.45556.45556,0,0,1-.01546.78773l-2.67393,1.48089a.456.456,0,0,1-.45676-.00892l-2.36764-1.4351A.45535.45535,0,0,1,1555.7329,649.39817Z"/><path class="cls-21" d="M1529.33527,647.324a7.161,7.161,0,0,1-4.70138-1.7512l-72.84944-63.06872a7.18705,7.18705,0,0,1,9.409-10.86671l72.84915,63.06872a7.18465,7.18465,0,0,1-4.70733,12.61791Z"/><path class="cls-21" d="M1560.66831,661.65508a1.77467,1.77467,0,0,0,.513-.31283c2.3272-2.4286-1.36313-5.10372-3.55533-5.64493a8.60844,8.60844,0,0,0-6.86919,1.3328,7.07152,7.07152,0,0,0-2.31025-.0562c-10.63443,1.63493-18.25451.003-23.31036-4.97169-13.11421-12.90516-9.98944-48.39184-6.496-73.95863a7.18677,7.18677,0,0,0-14.24124-1.94568c-6.383,46.75126-3.1973,72.5155,10.65766,86.14684,6.55726,6.45258,15.29511,9.69924,26.06041,9.69924a62.95752,62.95752,0,0,0,9.50179-.76394,7.16518,7.16518,0,0,0,5.727-4.90895c.3-.01546.27655.13263.12727.00535a5.99463,5.99463,0,0,1,.59087.97923,6.29284,6.29284,0,0,0,1.49992,1.458c1.71224,1.29058,4.06858-.4749,4.08375-2.34356A8.05455,8.05455,0,0,0,1560.66831,661.65508Z"/><path class="cls-21" d="M1530.89529,647.01715c1.81748.496,4.20951.45527,5.644-.932,1.35031-1.30634,2.35393-5.377,4.47538-5.21642,3.01676.22868,3.04918-4.58392,0-4.727-6.13027-.287-5.91943,7.33339-10.28595,9.60141a.70448.70448,0,0,0,.16653,1.27392Z"/><path class="cls-21" d="M1535.06317,639.729a4.36413,4.36413,0,0,1,3.44411-2.4625c1.83565-.28042,1.82167-3.39832,0-3.69331a5.49683,5.49683,0,0,0-5.45581,2.37091c-1.111,1.47584,1.17341,2.90766,2.40841,1.85825a3.01784,3.01784,0,0,1,2.5383-.46746q-.48352-1.78421-.96674-3.56871a7.112,7.112,0,0,0-4.00644,5.10372c-.22511,1.16717,1.42469,2.05362,2.03816.8591Z"/><path class="cls-21" d="M1483.91265,569.37741h0a7.825,7.825,0,0,1-7.80233-7.802v-16.87a7.82523,7.82523,0,0,1,7.80233-7.80233h0a7.825,7.825,0,0,1,7.802,7.80233v16.87A7.82472,7.82472,0,0,1,1483.91265,569.37741Z"/><path class="cls-22" d="M1476.11031,536.90307h15.60437v13.01311s-8.70366,3.65376-15.60437,0Z"/><path class="cls-21" d="M1487.36568,687.6575h-6.90577c-18.14686-3.3213-23.84681-14.72833-28.7358-34.54343l-6.26527-61.04395c0-19.96111,15.75038-36.29284,35.00107-36.29284h6.90577c19.2504,0,35.00078,16.33173,35.00078,36.29284l-6.57777,61.04395C1512.24168,674.37171,1506.61608,687.6575,1487.36568,687.6575Z"/><path class="cls-18" d="M1520.41721,623.32765c-.12519-5.68567-.20667-10.98774.98726-16.54792,1.38544-6.4508,1.519-11.68953.962-19.08387a36.35209,36.35209,0,0,0-6.25721-18.31845,28.6636,28.6636,0,0,0-7.68874-7.42289c-2.72686-1.80235-8.58441-5.526-14.47854-5.526l.80884,1.35421c-2.02507,3.50061-6.55934,4.58214-10.60086,4.72517a14.05907,14.05907,0,0,1-6.28784-.90608,6.15587,6.15587,0,0,1-3.78282-4.79892l-.37587-.37439c-9.78845,1.15825-18.17184,8.25047-22.897,16.9006-4.72488,8.65043-6.24532,18.69581-6.61732,28.54552-.71279,18.8775,2.49581,37.66638,6.00921,56.22748a59.902,59.902,0,0,0,2.63616,10.40847c4.87207,12.68392,19.03837,21.08516,32.505,19.27657,3.24517-.43594,7.78092-.37022,10.91429-1.3212a123.51543,123.51543,0,0,0,12.1668-3.92139,24.26786,24.26786,0,0,0,4.98091-3.38226c2.01407-1.67537,2.7147-4.468,2.82886-7.08508s-.43327-3.23655-.00625-5.821h0c5.18044,3.214,6.16324,3.68171,11.70023,5.12692a50.93134,50.93134,0,0,0,19.11628,1.24954,1.69352,1.69352,0,0,0,1.10145-.49185,1.87923,1.87923,0,0,0,.24117-1.44878c-.35949-3.26629-.90786-10.86046-1.66407-14.05836-4.34425-.56054-8.44108.65332-12.6756-.46895a22.3121,22.3121,0,0,1-8.39945-3.67933c-2.86986-2.29687-4.57322-5.71719-6.08176-9.06912l2.03667,1.519c3.07895-1.16538,4.83817-4.3719,6.04192-7.436.37736-.9602,2.82648-5.20542,2.88714-6.23521.14425-2.44644-2.60375-2.86395-5.07577-4.51285-1.9094-1.27363-3.21217-2.02864-5.035-3.42359"/><path class="cls-21" d="M1465.46208,472.60354h36.90073a7.5933,7.5933,0,0,1,7.5933,7.5933V536.454a7.5933,7.5933,0,0,1-7.5933,7.5933h-36.90073a7.5932,7.5932,0,0,1-7.5932-7.5932V480.19674A7.5932,7.5932,0,0,1,1465.46208,472.60354Z"/><path class="cls-14" d="M1466.59425,539.25971c5.79243,4.96188,13.58435,4.96931,18.25662-.26168,3.70963-4.15334,4.08045-10.19555,4.65348-15.73462.82133-7.93526,2.8-16.42511,8.90289-21.563,4.39985-3.70431,10.71416-5.46354,13.425-10.53633,1.4-2.61981,1.56624-5.7047,1.618-8.67481.0901-5.162-.20664-10.7213-3.36918-14.80267-3.16248-4.08107-10.21306-5.41388-13.33542-1.30188-1.428,1.88055-2.0028,4.69217-4.22087,5.5016-3.17856,1.15944-5.5917-2.75481-7.78925-5.327-2.6662-3.12028-7.3548-4.81022-11.03175-2.98646s-4.84353,7.736-1.51806,10.142c-8.88327,3.42657-14.28522,12.95869-15.29957,22.42569a98.12657,98.12657,0,0,0,.37587,25.62745c.74134,5.70887.35952,7.22158,6.04995,14.6409Z"/><circle class="cls-21" cx="1487.92474" cy="526.15464" r="7.33223" transform="translate(-65.68033 248.53977) rotate(-9.34313)"/><path class="cls-23" d="M1213.78886,579.93723a6.55158,6.55158,0,0,1-6.34523-4.9485L1173.86486,442.024a6.5502,6.5502,0,1,1,12.70206-3.20592l33.57876,132.96471a6.55477,6.55477,0,0,1-6.35683,8.15442Z"/><path class="cls-19" d="M1219.82959,571.86072l-13.0562,3.29751c-1.55169,13.57513,6.09185,24.12247,6.09185,24.12247l33.72834-8.5178S1252.60516,585.75375,1219.82959,571.86072Z"/><path class="cls-2" d="M1246.76159,590.72038l-34.76048,8.77859-2.03818-3.91247,35.84592-9.05277S1248.07625,588.79165,1246.76159,590.72038Z"/><path class="cls-2" d="M1245.80885,586.53374s-1.00543-2.82678-10.96933-7.70123c0,0-7.30127-.35476-4.545,11.61935Z"/><circle class="cls-2" cx="1215.46809" cy="585.50046" r="3.44857" transform="translate(-106.36154 315.42658) rotate(-14.17285)"/><path class="cls-23" d="M1155.3564,589.90351a6.55082,6.55082,0,0,1-6.55012-6.55131V446.21453a6.55,6.55,0,1,1,13.09994,0V583.3522A6.55076,6.55076,0,0,1,1155.3564,589.90351Z"/><path class="cls-19" d="M1162.12449,583.06941h-13.4663c-4.82836,12.78205,0,24.88016,0,24.88016h35.05311S1190.5008,604.56463,1162.12449,583.06941Z"/><path class="cls-2" d="M1183.8243,607.94957h-35.85184l-1.01819-4.2928h36.97114S1185.57134,606.40147,1183.8243,607.94957Z"/><path class="cls-2" d="M1183.92541,603.65677s-.2825-2.98676-8.74945-10.15243c0,0-6.992-2.13183-7.25161,10.15243Z"/><circle class="cls-2" cx="1154.76144" cy="595.22602" r="3.44873"/><path class="cls-10" d="M1191.21092,314.49579a170.5827,170.5827,0,0,0,2.73281-20.81753c.27863-4.03677.38985-8.22727-1.13148-11.97649-1.85141-4.56311-5.98661-7.94121-10.58034-9.7156a36.02641,36.02641,0,0,0-14.54574-1.885,30.52182,30.52182,0,0,0-10.99012,2.147c-6.18882,2.71348-10.57081,8.51959-13.17428,14.75539-1.92813,4.61782-3.029,9.55561-5.082,14.11932-4.707,10.46318-13.92543,18.04427-21.605,26.56832-3.19849,3.55-6.27743,7.57009-6.90339,12.30716-.626,4.73737,2.13956,10.22321,6.85671,10.98447,3.021.48739,7.06754-.543,8.44524,2.18922.68424,1.35748.21262,2.98914-.30956,4.41651-1.22932,3.36055-2.69475,6.667-3.32814,10.18871s-.3387,7.38364,1.71522,10.3139c2.15086,3.06854,5.95362,4.67016,9.6927,4.92441a30.04641,30.04641,0,0,0,11.0264-1.81246c8.39291-2.665,16.98178-7.02234,20.97691-14.86958,3.15061-6.18852,7.80055-2.7679,10.48994-9.17052.4071-.96972-.88437.56946,0,0,1.62839-1.04911,5.28571.2599,7.35361-2.67125,1.11662-1.58289-.74072-2.133,1.11662-1.58289.47906.14184-.32324-4.83728.154-4.98537,1.3444-.4175,1.60668-2.17376,1.637-3.5812.30718-14.3251,2.475-15.83126,5.45283-29.8465"/><path class="cls-21" d="M1231.26784,399.38209c-21.28618,0-32.84992-12.0764-44.52665-32.77438a6.04525,6.04525,0,1,1,10.52979-5.9417c13.70389,24.28335,23.586,33.63854,60.74836,21.31235a6.04623,6.04623,0,0,1,3.80987,11.47661C1249.69928,397.47983,1239.71546,399.38209,1231.26784,399.38209Z"/><path class="cls-21" d="M1168.93153,357.163h0a6.58455,6.58455,0,0,0,6.56529-6.56528V336.40228a6.58455,6.58455,0,0,0-6.56529-6.56528h0a6.58437,6.58437,0,0,0-6.56528,6.56528v14.19544A6.58437,6.58437,0,0,0,1168.93153,357.163Z"/><path class="cls-22" d="M1175.49682,329.837h-13.13057v10.95s7.32387,3.07449,13.13057,0Z"/><path class="cls-21" d="M1166.026,456.6908h5.81086c15.26983-2.79466,20.06608-12.3931,24.18016-29.0668l5.27174-51.36611c0-16.79652-13.25309-30.53907-29.45189-30.53907H1166.026c-16.19849,0-29.45189,13.74255-29.45189,30.53907l5.5349,51.36611C1145.09337,445.51126,1149.82746,456.6908,1166.026,456.6908Z"/><path class="cls-19" d="M1201.52036,439.25821c-.82074-16.14053-1.87847-28.29246-.06185-44.35151a1.84569,1.84569,0,0,1,.38658-1.11781,1.81042,1.81042,0,0,1,1.55226-.2935c6.33334.82252,12.46209,4.62793,18.77044,5.62531,10.16076,1.60638,27.158-.90192,36.851-4.34781,1.2656-4.082,1.82941-12.20516-2.38073-12.93906-4.21043-.7339-18.813,3.98-23.08374,4.14055-8.20261.30837-17.51707-4.7897-23.74067-10.14143-6.22391-5.35173-9.29661-12.23252-14.38933-18.66994-4.08553-5.16468-11.101-11.2973-17.68089-11.02937l-.15344.69019a9.73453,9.73453,0,0,1-17.4317-.90311l-.37736-.48828a27.08914,27.08914,0,0,0-16.98535,11.04781c-4.1798,6.03121-6.72795,11.04037-6.74281,18.37852s2.09347,25.39164,3.30316,32.62927c3.04207,18.1992,2.216,35.45367,5.78469,52.07266,17.3862,1.37235,35.08047-4.50988,52.34029-7.01134a3.03406,3.03406,0,0,0,3.23655-3.46523q.40145-4.91281.80289-9.82592"/><circle class="cls-21" cx="1151.87118" cy="322.48629" r="6.16986" transform="translate(646.65563 1406.71959) rotate(-80.6566)"/><circle class="cls-21" cx="1186.95343" cy="318.62905" r="6.17001" transform="translate(679.84862 1438.10555) rotate(-80.65662)"/><path class="cls-21" d="M1153.40622,275.73123h31.05043a6.3894,6.3894,0,0,1,6.3894,6.3894v47.33855a6.3894,6.3894,0,0,1-6.3894,6.3894h-31.05053a6.3894,6.3894,0,0,1-6.3894-6.3894V282.12073A6.3895,6.3895,0,0,1,1153.40622,275.73123Z" transform="translate(2337.86277 611.57981) rotate(180)"/><path class="cls-10" d="M1147.752,304.43947c13.66515-3.4234,25.62078-11.34931,30.29853-25.14924a1.61084,1.61084,0,0,0-1.5385-2.01963c-8.38882-.28622-19.76428.2688-25.79749,7.02237-2.50373,2.80267-3.74244,6.48328-4.89433,9.9867a155.35448,155.35448,0,0,1-6.73935,16.799,2.36914,2.36914,0,0,0,3.70346,2.85751c10.75426-9.9111,23.054-18.10207,31.61626-30.17315,1.72876-2.43722-2.28354-4.74668-3.99932-2.3377-8.315,11.67444-20.51539,19.59558-30.95169,29.1761l3.70346,2.85751c3.38147-7.265,5.47042-14.74841,8.43368-22.11963,3.87019-9.62722,15.891-10.46338,24.92532-10.87774l-1.5385-2.01963c-3.45566,13.20062-16.03983,19.94761-27.60392,25.09051-.52731.23451-.14491,1.03912.38239.907Z"/><path class="cls-16" d="M1314.37409,309.01411a57.45989,57.45989,0,0,1-43.04606-28.33944l-225.10291,325.3655,42.37135,29.31481Z"/><path class="cls-18" d="M1271.328,280.67467,1028.41368,631.78478a9.88012,9.88012,0,0,1,6.2132,1.37116l16.34244,11.30652,242.21912-350.1056Z"/><path class="cls-15" d="M1031.39866,648.17331l22.99842,15.91126a11.77918,11.77918,0,0,0,16.38823-2.985l17.81116-25.74461-42.37135-29.31481-17.81144,25.74461A11.77949,11.77949,0,0,0,1031.39866,648.17331Z"/><ellipse class="cls-25" cx="1067.41079" cy="620.69765" rx="0.00007" ry="25.76184" transform="translate(-50.34211 1145.34975) rotate(-55.32241)"/><path class="cls-21" d="M1314.16563,308.50324l4.93571-28.96124,1.31526-7.71848a23.69212,23.69212,0,0,1-15.76941-10.875l-6.73181,3.93626-25.36128,14.82973-.38006-.26287-.846,1.22307a57.45989,57.45989,0,0,0,43.04606,28.33944l.17158-.248Z"/><path class="cls-10" d="M1320.4166,271.82352l2.43693-14.30012A3.79481,3.79481,0,0,0,1317.197,253.61l-12.54981,7.33844a23.69212,23.69212,0,0,0,15.76941,10.875Z"/><path class="cls-21" d="M1243.11437,409.0617a14.31016,14.31016,0,0,1-4.02576,1.92278c.00567-.02111.01635-.03955.02171-.06066a2.08047,2.08047,0,0,0-3.7849-1.59568,8.76164,8.76164,0,0,1-2.63527,3.42151,1.95673,1.95673,0,0,0-.78,1.63285c-24.179,7.9418-49.99911,5.51736-65.26478-6.42225-12.1778-9.522-17.203-24.20008-14.93946-43.62355a6.046,6.046,0,1,0-12.01068-1.39971c-3.47028,29.7674,8.68849,46.095,19.50019,54.54854,11.41684,8.92966,27.46726,13.54123,44.69377,13.54123a103.00094,103.00094,0,0,0,35.97733-6.60365,6.00808,6.00808,0,0,0,3.60053-3.801,8.19211,8.19211,0,0,0,2.10985-2.03905,6.07217,6.07217,0,0,0,.92241-4.44059,8.647,8.647,0,0,0,.81181-.88378C1249.01355,410.75373,1245.62059,407.3563,1243.11437,409.0617Z"/><path class="cls-26" d="M1148.69774,357.61441c-2.53682-.2712-5.33505-.47787-7.40446,1.01432-2.18089,1.57278-2.81578,4.50215-3.14048,7.17132a74.37134,74.37134,0,0,0,2.635,30.40882,36.48018,36.48018,0,0,0,6.033,12.41421,48.21791,48.21791,0,0,0,6.28073,6.12934c4.2333,3.65643,8.49815,7.33576,13.33484,10.14619,8.86632,5.1516,19.27121,7.1395,29.52088,7.441,10.25.30153,20.469-.99469,30.67467-1.99207,1.64593-.16088,3.17708-.83174,4.81349-1.072,6.29528-.92481,3.38256-3.0507,3.59964-5.25538s-1.896-8.37417-4.05758-8.85977c-3.29067-.73985-6.55726,1.50379-10.6978,2.39084a74.87676,74.87676,0,0,1-32.472-.273c-10.05073-2.33047-20.06816-7.16359-25.76929-15.76317-4.44862-6.7104-5.80521-14.94005-7.05773-22.89345q-1.03306-6.55963-2.06611-13.11957a13.54341,13.54341,0,0,0-1.731-5.56672c-1.09491-1.62541-3.18481-2.7569-5.038-2.11875"/><path class="cls-21" d="M1267.43519,375.91948c-.53348-1.36165-2.80091-1.32269-2.73786.37052.03687.98934.03539,2.00277-.01963,3.01085a3.8742,3.8742,0,0,0-1.16628-.91857,1.51109,1.51109,0,0,0-2.1913.89151,8.76713,8.76713,0,0,0,.48025,3.54641c-.31313-.25217-.63726-.49631-.92868-.76394-1.4315-1.31437-4.49531-.04014-3.60737,2.1,1.25281,3.01858,3.22139,7.89184,7.26142,7.14515a2.41878,2.41878,0,0,0,1.75239-1.75239c.01071-.07226-.00654-.12579.00089-.196a2.54118,2.54118,0,0,0,1.11037-1.55613,6.04752,6.04752,0,0,0,.11243-.84333,2.32067,2.32067,0,0,0,.30537-.3506C1269.84327,383.01021,1268.8566,379.54706,1267.43519,375.91948Z"/><path class="cls-18" d="M1189.3837,39.5115a59.26361,59.26361,0,1,0,59.2636,59.26361A59.26387,59.26387,0,0,0,1189.3837,39.5115Zm0,88.38691a29.12316,29.12316,0,1,1,29.123-29.1233A29.12335,29.12335,0,0,1,1189.3837,127.89841Z"/><path class="cls-18" d="M1175.35638,22.21868H1203.411a3.2655,3.2655,0,0,1,3.2655,3.2655V53.53893a3.2654,3.2654,0,0,1-3.2654,3.2654h-28.05485a3.2654,3.2654,0,0,1-3.2654-3.2654V25.48418A3.2655,3.2655,0,0,1,1175.35638,22.21868Z"/><rect class="cls-18" x="1172.09088" y="136.57411" width="34.58565" height="34.58565" rx="3.2654" ry="3.2654"/><path class="cls-18" d="M1232.534,79.3964h28.05485a3.2654,3.2654,0,0,1,3.2654,3.2654v28.05456a3.26539,3.26539,0,0,1-3.26539,3.26539H1232.534a3.2654,3.2654,0,0,1-3.2654-3.2654V82.6618A3.2654,3.2654,0,0,1,1232.534,79.3964Z" transform="translate(1343.25049 -1149.87235) rotate(90)"/><rect class="cls-18" x="1114.91301" y="79.39625" width="34.58565" height="34.58565" rx="3.2654" ry="3.2654" transform="translate(1228.89491 -1035.51676) rotate(90)"/><path class="cls-18" d="M1212.22482,130.25386l10.72338-10.72338a9.71044,9.71044,0,0,1,13.73244,0l10.72338,10.72338a9.71008,9.71008,0,0,1,0,13.73214l1.24329,10.72338c-3.792,3.792-21.90708,3.792-25.69911,0L1212.22482,143.986A9.71008,9.71008,0,0,1,1212.22482,130.25386Z"/><path class="cls-18" d="M1131.36339,49.39214l10.7234-10.72338c3.792-3.792,21.72271-5.12513,25.51472-1.3331l-1.0592,12.05648a9.71048,9.71048,0,0,1,0,13.73244L1155.81892,73.848a9.71005,9.71005,0,0,1-13.73212,0l-10.7234-10.72338A9.71044,9.71044,0,0,1,1131.36339,49.39214Z"/><path class="cls-18" d="M1157.0631,121.25908l11.27083,10.14619a9.71024,9.71024,0,0,1,.71993,13.71341l.33246,12.92c-3.588,3.98592-20.20643,2.65906-24.192-.929l-11.27085-10.14619a9.71,9.71,0,0,1-.72023-13.71341l10.14619-11.27113A9.71059,9.71059,0,0,1,1157.0631,121.25908Z"/><path class="cls-18" d="M1244.00926,35.72066l.83471,10.69424a9.71024,9.71024,0,0,1,.71993,13.71341l-10.14619,11.27083a9.71026,9.71026,0,0,1-13.71341.72022l-11.27083-10.14648a9.71025,9.71025,0,0,1-.72023-13.71341l10.14648-11.27083C1223.44777,33.003,1240.02364,32.13262,1244.00926,35.72066Z"/><path class="cls-16" d="M1202.8497,39.5115a59.26361,59.26361,0,1,0,59.2639,59.26361A59.26387,59.26387,0,0,0,1202.8497,39.5115Zm0,88.38691a29.12316,29.12316,0,1,1,29.1233-29.1233A29.12335,29.12335,0,0,1,1202.8497,127.89841Z"/><path class="cls-16" d="M1188.82238,22.21868H1216.877a3.2655,3.2655,0,0,1,3.2655,3.2655V53.53893a3.2654,3.2654,0,0,1-3.2654,3.2654h-28.05485a3.2654,3.2654,0,0,1-3.2654-3.2654V25.48418A3.2655,3.2655,0,0,1,1188.82238,22.21868Z"/><rect class="cls-16" x="1185.55688" y="136.57411" width="34.58565" height="34.58565" rx="3.2654" ry="3.2654"/><rect class="cls-16" x="1242.73459" y="79.3964" width="34.58565" height="34.58535" rx="3.2654" ry="3.2654" transform="translate(1356.71649 -1163.33835) rotate(90)"/><rect class="cls-16" x="1128.37901" y="79.39625" width="34.58565" height="34.58565" rx="3.2654" ry="3.2654" transform="translate(1242.36091 -1048.98276) rotate(90)"/><path class="cls-16" d="M1229.253,119.82716h28.05477a3.26542,3.26542,0,0,1,3.26542,3.26542v28.05477a3.26535,3.26535,0,0,1-3.26535,3.26535h-28.05477a3.26542,3.26542,0,0,1-3.26542-3.26542V123.09251a3.26535,3.26535,0,0,1,3.26535-3.26535Z" transform="translate(2219.37085 -645.05366) rotate(135)"/><path class="cls-16" d="M1148.39151,38.96554h28.05485a3.26537,3.26537,0,0,1,3.26537,3.26537V70.28572a3.26546,3.26546,0,0,1-3.26546,3.26546h-28.05481a3.26537,3.26537,0,0,1-3.26537-3.26537V42.231a3.26542,3.26542,0,0,1,3.26542-3.26542Z" transform="translate(2024.15387 -725.91528) rotate(135)"/><path class="cls-16" d="M1150.56718,121.89151h28.05472a3.26542,3.26542,0,0,1,3.26542,3.26542v28.05481a3.26537,3.26537,0,0,1-3.26537,3.26537h-28.05473a3.26541,3.26541,0,0,1-3.26541-3.26541V125.15687a3.26536,3.26536,0,0,1,3.26536-3.26536Z" transform="translate(1937.01602 1021.80423) rotate(-138.00594)"/><path class="cls-16" d="M1227.07732,36.90121h28.05475a3.2654,3.2654,0,0,1,3.2654,3.2654V68.2214a3.26531,3.26531,0,0,1-3.26531,3.26531h-28.05479a3.26539,3.26539,0,0,1-3.26539-3.26539V40.16655a3.26534,3.26534,0,0,1,3.26534-3.26534Z" transform="translate(2127.2537 924.83621) rotate(-138.006)"/><path class="cls-18" d="M1068.11685,138.113a44.65779,44.65779,0,1,0,44.65779,44.65779A44.658,44.658,0,0,0,1068.11685,138.113Zm0,66.60353a21.94559,21.94559,0,1,1,21.94546-21.94574A21.94572,21.94572,0,0,1,1068.11685,204.71653Z"/><path class="cls-18" d="M1057.54652,125.082h21.14059a2.46069,2.46069,0,0,1,2.46069,2.46069v21.14051a2.4607,2.4607,0,0,1-2.4607,2.4607h-21.14048a2.4607,2.4607,0,0,1-2.4607-2.4607v-21.1406A2.4606,2.4606,0,0,1,1057.54652,125.082Z"/><path class="cls-18" d="M1057.54662,211.25386h21.14049a2.46069,2.46069,0,0,1,2.46069,2.46069v21.14061a2.4606,2.4606,0,0,1-2.4606,2.4606h-21.14058a2.4607,2.4607,0,0,1-2.4607-2.4607v-21.1405A2.4607,2.4607,0,0,1,1057.54662,211.25386Z"/><rect class="cls-18" x="1098.1718" y="168.16795" width="26.0619" height="26.0619" rx="2.4607" ry="2.4607" transform="translate(1292.40165 -930.00385) rotate(90)"/><rect class="cls-18" x="1011.99999" y="168.16795" width="26.0619" height="26.0619" rx="2.4607" ry="2.4607" transform="translate(1206.22984 -843.83204) rotate(90)"/><path class="cls-18" d="M1085.32879,206.49122l8.08037-8.08037a7.31693,7.31693,0,0,1,10.3481,0l8.08037,8.08037a7.31747,7.31747,0,0,1,0,10.3481l.937,8.08037c-2.85741,2.85741-16.50807,2.85741-19.36548,0l-8.08037-8.08037A7.31693,7.31693,0,0,1,1085.32879,206.49122Z"/><path class="cls-18" d="M1024.39606,145.55849l8.08037-8.08037c2.8577-2.85741,16.3692-3.86221,19.22661-1.00451l-.79811,9.08488a7.31751,7.31751,0,0,1,0,10.3481l-8.08039,8.08037a7.31693,7.31693,0,0,1-10.3481,0l-8.08037-8.08037A7.31747,7.31747,0,0,1,1024.39606,145.55849Z"/><path class="cls-18" d="M1043.76184,199.71331l8.49314,7.64562a7.31731,7.31731,0,0,1,.54267,10.33383l.25038,9.73582c-2.70367,3.00341-15.22642,2.00366-18.22983-.7003l-8.49312-7.64562a7.317,7.317,0,0,1-.5427-10.33353l7.64562-8.49312A7.31732,7.31732,0,0,1,1043.76184,199.71331Z"/><path class="cls-18" d="M1109.27968,135.25648l.629,8.05867a7.317,7.317,0,0,1,.54267,10.33353l-7.64562,8.49312a7.31732,7.31732,0,0,1-10.33383.5427l-8.49312-7.64562a7.31731,7.31731,0,0,1-.5427-10.33383l7.64562-8.49312C1093.78563,133.20851,1106.27626,132.55281,1109.27968,135.25648Z"/><path class="cls-16" d="M1078.26422,138.113a44.65779,44.65779,0,1,0,44.65779,44.65779A44.658,44.658,0,0,0,1078.26422,138.113Zm0,66.60353a21.94559,21.94559,0,1,1,21.94544-21.94574A21.94578,21.94578,0,0,1,1078.26422,204.71653Z"/><path class="cls-16" d="M1067.69387,125.082h21.1404a2.46061,2.46061,0,0,1,2.46061,2.46061v21.1406a2.4607,2.4607,0,0,1-2.4607,2.4607h-21.1403a2.4606,2.4606,0,0,1-2.4606-2.4606v-21.1407a2.4606,2.4606,0,0,1,2.4606-2.4606Z"/><path class="cls-16" d="M1067.694,211.25386h21.1403a2.46061,2.46061,0,0,1,2.46061,2.46061v21.1407a2.4606,2.4606,0,0,1-2.4606,2.4606h-21.1404a2.4606,2.4606,0,0,1-2.4606-2.4606v-21.1406A2.4607,2.4607,0,0,1,1067.694,211.25386Z"/><path class="cls-16" d="M1110.77963,168.1681h21.1406a2.4607,2.4607,0,0,1,2.4607,2.4607v21.14031a2.46059,2.46059,0,0,1-2.46059,2.46059h-21.14061a2.4607,2.4607,0,0,1-2.4607-2.4607V170.6287A2.4606,2.4606,0,0,1,1110.77963,168.1681Z" transform="translate(1302.54888 -940.15108) rotate(90)"/><path class="cls-16" d="M1024.60782,168.1681h21.1406a2.4607,2.4607,0,0,1,2.4607,2.4607v21.1403a2.4606,2.4606,0,0,1-2.4606,2.4606h-21.1406a2.4607,2.4607,0,0,1-2.4607-2.4607V170.6287a2.4606,2.4606,0,0,1,2.4606-2.4606Z" transform="translate(1216.37707 -853.97927) rotate(90)"/><path class="cls-16" d="M1098.16014,198.63442h21.14045a2.46064,2.46064,0,0,1,2.46064,2.46064v21.14041a2.46066,2.46066,0,0,1-2.46066,2.46066h-21.14041a2.46064,2.46064,0,0,1-2.46064-2.46064V201.095a2.46062,2.46062,0,0,1,2.46062-2.46062Z" transform="translate(2042.40274 -422.63838) rotate(135.00105)"/><path class="cls-16" d="M1037.2276,137.70169h21.1404a2.46064,2.46064,0,0,1,2.46064,2.46064v21.14044a2.46062,2.46062,0,0,1-2.46062,2.46062h-21.14044a2.46064,2.46064,0,0,1-2.46064-2.46064v-21.1404a2.46066,2.46066,0,0,1,2.46066-2.46066Z" transform="translate(1895.2867 -483.5884) rotate(135)"/><path class="cls-16" d="M1038.86717,200.19h21.14033a2.4607,2.4607,0,0,1,2.4607,2.4607V223.791a2.46064,2.46064,0,0,1-2.46064,2.46064H1038.8671a2.46059,2.46059,0,0,1-2.46059-2.46059V202.65069a2.46066,2.46066,0,0,1,2.46066-2.46066Z" transform="translate(1686.72425 1073.8295) rotate(-138.00503)"/><path class="cls-16" d="M1096.5206,136.14611h21.14054a2.46057,2.46057,0,0,1,2.46057,2.46057v21.14045a2.46057,2.46057,0,0,1-2.46057,2.46057h-21.14048a2.46065,2.46065,0,0,1-2.46065-2.46065V138.60669a2.46059,2.46059,0,0,1,2.46059-2.46059Z" transform="translate(1830.07562 1000.76187) rotate(-138.00503)"/></g></g></svg>