<svg id="Layer_1" data-name="Layer 1" xmlns="http://www.w3.org/2000/svg" viewBox="0 0 1920 786"><defs><style>.cls-1{fill:#bab0ce;}.cls-2{fill:#fff;}.cls-3{fill:#afcef8;}.cls-4{fill:#92a7ea;}.cls-5{fill:#7ea3a8;}.cls-6{fill:#efd4b7;}.cls-7{fill:#ccac91;}.cls-8{fill:#b3493c;}.cls-9{fill:#c05243;}.cls-10{fill:#4e6e83;}.cls-11{fill:#3f6977;}.cls-12{fill:#c3cbbc;}.cls-13{fill:#565656;}.cls-14{fill:#debc9e;}.cls-15{fill:none;}.cls-16{fill:#7b553e;}.cls-17{fill:#ededed;}.cls-18{fill:#ff867b;}.cls-19{fill:#c4c2c2;}.cls-20{fill:#2d484f;}.cls-21{fill:#a4a2a2;fill-rule:evenodd;}.cls-22{fill:#cac9c7;}.cls-23{fill:#ffd00f;}.cls-24{fill:#a3832f;}.cls-25{fill:#f4e5a9;}.cls-26{fill:#ea7a7a;}.cls-27{fill:#1c140f;}.cls-28{fill:#7b4507;}.cls-29{fill:#ff96bc;}.cls-30{fill:#5e3206;}.cls-31{fill:#303330;}.cls-32{opacity:0.94;}</style></defs><title>talk</title><path class="cls-1" d="M-490.00249-133.70515C-552.49214-120.5099-609.52677-96.50869-659.5124-62.37856-705.15529-31.20871-745.10189,8.45206-778.24006,55.52267c-58.357,82.88392-94.69663,188.14537-102.34636,296.36841-16.17109,228.844-63.13632,348.29323-99.68611,408.19763a293.94239,293.94239,0,0,1-21.13082,30.37317h1.92376a295.41266,295.41266,0,0,0,20.349-29.36635c23.35454-38.21817,43.28328-87.34767,59.22866-146.01955,19.928-73.31048,33.64965-161.81561,40.80342-263.07953C-865.783,163.745-755.83215-76.04-489.70178-132.23273-347.73919-162.24506-178.0644-137.11746,14.93595-57.554v-1.63793C-178.109-138.66482-347.9054-163.74855-490.00249-133.70515Z"/><rect class="cls-2" x="1.18088" y="-16" width="1977.81912" height="806.46188"/><path class="cls-3" d="M1965.47923,1.4118V791.46188H974.73307s127.79545-37.18159,155.43359-439.09722c12.32795-179.30836,113.34778-389.26091,343.74173-439.26211,118.18752-25.66883,270.41857-9.22747,462.17709,75.00923Q1950.62848-5.50882,1965.47923,1.4118Z"/><path class="cls-3" d="M1487.99751-132.70515c-62.48965,13.19525-119.52428,37.19647-169.50991,71.32659-45.64289,31.16985-85.58949,70.83062-118.72766,117.90123-58.357,82.88392-94.69663,188.14537-102.34636,296.36841-16.17109,228.844-63.13632,348.29323-99.68611,408.19763a293.94239,293.94239,0,0,1-21.13082,30.37317h1.92376a295.41266,295.41266,0,0,0,20.349-29.36635c23.35454-38.21817,43.28328-87.34767,59.22866-146.01955,19.928-73.31048,33.64965-161.81561,40.80342-263.07953C1112.217,164.745,1222.16785-75.04,1488.29822-131.23273c141.96259-30.01233,311.63738-4.88473,504.63773,74.67877v-1.63793C1799.891-137.66482,1630.0946-162.74855,1487.99751-132.70515Z"/><path class="cls-4" d="M1962.72759-11.88821C1938.9224,96.1085,1842.66278,176.88819,1727.51168,176.88819c-133.02025,0-240.85139-107.83175-240.85139-240.86688q0-11.58711,1.08183-22.91876C1609.205-112.56628,1765.65485-96.12492,1962.72759-11.88821Z"/><path class="cls-4" d="M1971.93595,639.08525V791.46188H1736.28412C1776.72607,701.63434,1867.03464,639.08525,1971.93595,639.08525Z"/><path class="cls-3" d="M674-8.37882S357.78188,63.48171,346.12089,488.85083C337.99988,785.00229,4.0085,788.72465,4.0085,788.72465V-8.37882Z"/><path class="cls-4" d="M212,208.31443c0,135.49243-87.20465,245.32562-194.76086,245.32562q-6.67364,0-13.23063-.56336V-8.37882H108.621C170.13159,32.8576,212,114.42483,212,208.31443Z"/><path class="cls-5" d="M1652.37936,47.50608a27.18755,27.18755,0,0,0-26.12949-26.96,35.49547,35.49547,0,0,0-57.03719-13.8392,27.61929,27.61929,0,0,0-41.65194,15.9418,28.08034,28.08034,0,0,0-4.16838-.30981,26.93548,26.93548,0,0,0-9.63561,52.26738,27.21348,27.21348,0,0,0,27.42678,26.88154,27.61847,27.61847,0,0,0,14.93975-4.35329,27.73271,27.73271,0,0,0,38.61327,4.85408,27.64432,27.64432,0,0,0,13.53521,3.51128,27.212,27.212,0,0,0,27.42816-26.99085,26.65077,26.65077,0,0,0-.6588-5.89767A27.01085,27.01085,0,0,0,1652.37936,47.50608Z"/><path class="cls-2" d="M1652.95414,46.18617a27.18772,27.18772,0,0,0-26.12949-26.96,35.49545,35.49545,0,0,0-57.037-13.8392,27.61956,27.61956,0,0,0-41.65225,15.94187,28.06819,28.06819,0,0,0-4.16822-.30987,26.93547,26.93547,0,0,0-9.63545,52.26738,27.21322,27.21322,0,0,0,27.42677,26.88154,27.61929,27.61929,0,0,0,14.93977-4.35329,27.73251,27.73251,0,0,0,38.61311,4.85408,27.64439,27.64439,0,0,0,13.53521,3.51136,27.21206,27.21206,0,0,0,27.42816-26.99085,26.65981,26.65981,0,0,0-.65864-5.89775A27.01086,27.01086,0,0,0,1652.95414,46.18617Z"/><path class="cls-6" d="M1608.5782,154.46187h-.0003l-.00311.00167c-.07735.04325-.1533.08963-.2277.14027l-.00124.00077q-.05629.03786-.11084.07871c-.03735.02752-.0744.05612-.11037.08588-.00806-.06331-.018-.12585-.02914-.18816l-.00852-.04386c-.0107-.057-.02248-.11364-.03643-.16985-.00094-.00442-.04092-.009-.04154-.01334-.03348-.13347.00092-.26435-.159-.39279v-.00022c-.80032-2.493-4.32122-3.93916-6.40223-2.2752v-.00037l-.013.00137c-.082.0646-.16865.13385-.24708.2079l-.00465.00184c-.03721.03493-.07518.07115-.1113.10829l-.009.0087c-.038.03966-.07565.08054-.11254.12279.00511-.05842.00806-.11638.01022-.174l.00125-.05262c.00062-.04089.00154-.08177.00124-.12235,0-.01845-.0011-.03691-.0014-.05544-.0011-.04035-.003-.08077-.00527-.1209l-.003-.04934q-.00464-.06588-.01194-.13149l-.004-.03516q-.00952-.07973-.022-.15856l-.00094-.00587c-.01318-.07871-.02945-.15651-.04759-.23353l-.01675-.06635c-.00729-.02883-.01379-.05789-.02186-.08635-.01162-.04225-.024-.08435-.03735-.12591l-.01613.00008a4.6096,4.6096,0,0,0-5.88869-2.83707v-.00053c0,.00212.006.00472.0014.00725-.055.02477-.10122.05109-.155.07924-.01022.00548-.01643.01106-.02713.01685-.05657.03021-.10991.06154-.16524.09533l.02976.00123c-.12214.07482-.324.159-.324.25229v.00023c-.16013.0202-.07983.04-.10448.06078l3.13292-14.94069c1.03888-4.55257-6.60717-7.03453-7.70634-1.463l-4.2504,20.57958-.00232.002a6.23149,6.23149,0,0,0-5.32632-2.98442c-.19825-.01448-.36164-.02432-.49649-.02546-.2271-.00733-.44457-.009-.6481-.00809l.10494,16.455c.00806,1.62224,1.03221,7.79349,2.54776,10.69424a14.81348,14.81348,0,0,0,2.03032,4.544l-.94,4.54923-3.75962,13.10291.7797,1.23266,20.00441,4.05806h0l1.15112.23346,3.129-15.1679,1.43989-5.02408a16.82474,16.82474,0,0,0,5.70732-9.63944l3.35969-15.772C1615.08957,155.57669,1611.12456,153.04456,1608.5782,154.46187Z"/><path class="cls-7" d="M1446.96955,217.38246h-50.92839V229.23h-.17083a40.858,40.858,0,0,1-7.2768,10.83771c8.58448-2.43017,50.46707-14.47408,58.376-20.3587Z"/><path class="cls-6" d="M1446.96955,236.32027V219.709c-7.90895,5.88462-49.79154,17.92853-58.376,20.3587a41.63379,41.63379,0,0,1-11.946,8.90916c4.97972,6.99091-.60353,21.47459,7.15382,25.41512l5.397,10.41723,4.3589,7.55758,29.47462,42.28161,23.87037-45.75407,5.81213-5.3107,2.90566-7.35335,6.64236-7.35341c6.969-3.91353-2.33353-13.5982,2.232-20.05638C1457.23388,245.38973,1451.14336,243.04584,1446.96955,236.32027Z"/><path class="cls-8" d="M1353.64858,403.26889l5.70393,214.16567h23.03238s.7625-145.351,38.85943-145.351V395.202Z"/><path class="cls-9" d="M1487.93542,403.26889l-5.59418,214.16567h-23.03238s-.98169-145.351-39.07862-145.351V395.202Z"/><path class="cls-10" d="M1456.03657,240.45643l-24.20333,14.10218-12.15112,1.19108-2.93558,155.993h72.44275l7.44965-118.91014c-3.511-11.446-8.09527-24.56831-10.86918-43.74644C1470.14145,244.2399,1456.03657,240.45643,1456.03657,240.45643Z"/><path class="cls-6" d="M1318.72984,381.57486l3.67562,6.78187s13.78407,1.65809,14.0913,11.75644l.76645,5.4261s3.98114,4.67225,1.53127,6.782c-2.45,2.11021-3.36846,1.20489-4.594,1.35575,0,0,1.52988,5.2754-1.37951,6.93333-2.90893,1.6581-6.73823,0-6.73823,0s-.61291,3.76831-2.91071,4.37115a13.66981,13.66981,0,0,1-5.66765-.30065,2.72557,2.72557,0,0,1-1.9908,2.562c-2.14387.90363-6.43255-2.26139-6.43255-2.26139s-12.40757-10.39763-7.8119-25.77229l1.53274-4.37115-2.75725-9.64653Z"/><path class="cls-11" d="M1283.34909,308.90028c5.11092-13.98077,14.73467-26.46963,27.8309-36.116,9.62134-7.08686,30.79-21.09134,31.96331-21.406l-.00062-.00366a400.55978,400.55978,0,0,1,38.847-10.91824l24.2034,14.10218,12.15128,1.19108,2.9355,155.993h-72.44283l-9.639-110.30026c-.57176-.10167-1.13631-.19434-1.68947-.27107-7.14923,1.09379-14.43574,3.2654-20.43395,7.28425a22.35642,22.35642,0,0,0-7.73619,10.90811c-6.16686,17.19062-2.18728,37.47725,12.17724,62.34216l-23.93331,13.38846c-9.73288-16.84728-15.73418-33.02169-17.83829-48.07388A78.35876,78.35876,0,0,1,1283.34909,308.90028Z"/><path class="cls-12" d="M1318.97236,661.55541s-4.14824.68261-3.80279,7.48628c.34521,6.80292,20.05215,11.56806,34.91889,8.5054s41.14242-17.01094,41.14242-17.01094,1.03578-7.48659-1.0378-8.84707C1388.12,650.32812,1318.97236,661.55541,1318.97236,661.55541Z"/><path class="cls-13" d="M1359.86419,636.04s-5.97286-1.02247-14.96145,4.7618c-8.98891,5.78425-26.9678,5.78242-28.35056,23.13505,0,0,3.803,6.46534,20.05239,6.46534s52.55259-15.3109,52.55259-15.3109,5.18588-15.98848-4.49508-17.6908Z"/><path class="cls-14" d="M1381.77152,631.42464s8.92535,12.855-6.632,14.21414c0,0-8.44319-9.9385-15.27536-9.5988V628.1716l21.68543-4.37938Z"/><path class="cls-12" d="M1524.91331,661.55541s4.14824.68261,3.803,7.48628c-.34521,6.80292-20.05263,11.56806-34.9189,8.5054-14.86689-3.06266-41.14242-17.01094-41.14242-17.01094s-1.03578-7.48659,1.03734-8.84707C1455.76593,650.32812,1524.91331,661.55541,1524.91331,661.55541Z"/><path class="cls-13" d="M1484.02139,636.04s5.973-1.02247,14.96177,4.7618,26.9678,5.78242,28.35034,23.13505c0,0-3.80287,6.46534-20.05231,6.46534-16.24928,0-52.55275-15.3109-52.55275-15.3109s-5.18556-15.98848,4.49516-17.6908Z"/><path class="cls-14" d="M1462.11439,631.42464s-8.92551,12.855,6.63182,14.21414c0,0,8.44311-9.9385,15.27518-9.5988V628.1716l-21.68519-4.37938Z"/><path class="cls-6" d="M1470.92875,160.23376c-1.21064,8.19147,1.123,15.3138,5.20508,15.90413,4.092.59459,8.38282-5.56667,9.59856-13.76126,1.2122-8.1888-1.12367-15.31127-5.20556-15.90435C1476.44107,145.88112,1472.14449,152.03971,1470.92875,160.23376Z"/><path class="cls-14" d="M1369.09616,159.56557c.79922,8.08591-1.6101,14.93276-5.35577,15.28976-3.7477.36129-7.42827-5.90079-8.22184-13.98892-.79056-8.08705,1.61032-14.933,5.35584-15.29411C1364.625,145.2178,1368.312,151.47921,1369.09616,159.56557Z"/><path class="cls-14" d="M1419.73111,98.717c-49.58134-1.313-55.1332,18.896-55.1332,57.05717,0,38.70579,24.57358,70.15732,55.1332,71.02091.43264.01289.85946.04142,1.28721.04142h.00224V98.69464C1420.59057,98.7025,1420.16095,98.72827,1419.73111,98.717Z"/><path class="cls-6" d="M1477.4429,155.77416c0-39.24441-23.97718-57.10164-55.14466-57.10164-.42675,0-.85256.01465-1.27769.02212V226.8365C1452.18348,226.83557,1477.4429,195.02077,1477.4429,155.77416Z"/><path class="cls-15" d="M1405.93858,198.11838a5.75853,5.75853,0,0,0,5.80429,5.71149h9.27768V192.40665h-9.27768A5.75862,5.75862,0,0,0,1405.93858,198.11838Z"/><path class="cls-15" d="M1430.14254,203.82987a5.71235,5.71235,0,1,0,0-11.42322h-9.122v11.42322Z"/><path class="cls-16" d="M1364.37043,160.2141s-5.69393-40.759-1.39145-45.16924,6.63306-2.999,6.63306-2.999-5.3784-8.11467-3.58539-11.81937c1.79255-3.70469,17.38908-29.98974,64.17837-24.16818,46.78914,5.82147,49.29875,48.51272,49.29875,48.51272s-1.255,33.3414-2.68912,39.51585l-2.50993-.3529-5.01924-40.57423s-5.73678,10.05548-23.126,4.234c-17.38878-5.82155-38.54274-33.34148-70.63162-14.64208,0,0-5.01954,6.17445-5.19889,8.99687-.17919,2.82265-5.378,33.16514-3.22685,41.10362Z"/><path class="cls-16" d="M1375.87477,142.27861a2.25079,2.25079,0,0,1-2.01964-1.23944,2.19494,2.19494,0,0,1,1.03051-2.95765,38.96145,38.96145,0,0,1,9.6987-2.77413,54.85639,54.85639,0,0,1,24.102,1.50684,2.206,2.206,0,0,1,1.526,2.74242,2.25228,2.25228,0,0,1-2.78685,1.50165c-17.63794-5.07342-30.43755.93354-30.56473.99487A2.26865,2.26865,0,0,1,1375.87477,142.27861Z"/><path class="cls-16" d="M1461.47559,142.27861a2.26609,2.26609,0,0,1-.982-.22354,35.60469,35.60469,0,0,0-8.66089-2.41826,50.31735,50.31735,0,0,0-21.908,1.42149,2.2524,2.2524,0,0,1-2.78661-1.50165,2.20551,2.20551,0,0,1,1.52591-2.74242,54.85471,54.85471,0,0,1,24.10166-1.50684,38.95568,38.95568,0,0,1,9.699,2.77413,2.19507,2.19507,0,0,1,1.03051,2.95765A2.25035,2.25035,0,0,1,1461.47559,142.27861Z"/><path class="cls-16" d="M1475.1317,161.30559c-7.74263,25.31078-21.90206,31.72456-28.37685,33.34841-.46859-1.38605-2.45877-6.21991-10.7492-8.14692a42.37684,42.37684,0,0,0-10.606-1.75534c-.88913-.02815-1.81424-.06293-2.77841-.06293h-3.39814c-.97207,0-1.90391.03494-2.79941.06376a42.83067,42.83067,0,0,0-10.34145,1.68906c-8.476,1.90926-10.5108,6.79147-10.98947,8.19764-6.49277-1.63947-20.6119-8.07554-28.33871-33.33614l-2.34864-1.09019s4.2796,69.35475,56.26547,69.96574v.01434s.19151-.00625.30676-.00686c.02613.00061-.02108.00061.00489.0013.08819.002.19167.00556.19167.00556v-.01434c51.98571-.611,56.28586-69.96458,56.28586-69.96458Z"/><ellipse class="cls-14" cx="1413.44264" cy="179.07755" rx="6.12532" ry="4.17295"/><ellipse class="cls-6" cx="1429.32916" cy="179.07755" rx="6.12517" ry="4.17295"/><path class="cls-14" d="M1415.08793,181.2866c0,2.26053,2.63882,4.09992,5.93232,4.16979V177.117C1417.72675,177.18658,1415.08793,179.026,1415.08793,181.2866Z"/><path class="cls-6" d="M1421.21348,177.11361c-.06511,0-.12883.00212-.19322.00342v8.33936c.0644.00114.12811.003.19322.003,3.38247,0,6.12523-1.86821,6.12523-4.17284S1424.59595,177.11361,1421.21348,177.11361Z"/><path class="cls-8" d="M1388.507,625.65212a4.50568,4.50568,0,0,1-4.54157,4.46893h-27.27519a4.50571,4.50571,0,0,1-4.54172-4.46893v-9.30773a4.50577,4.50577,0,0,1,4.54172-4.46877h27.27519a4.50574,4.50574,0,0,1,4.54157,4.46877Z"/><path class="cls-8" d="M1488.60164,625.65212A4.50569,4.50569,0,0,1,1484.06,630.121h-27.275a4.5055,4.5055,0,0,1-4.54165-4.46893v-9.30773a4.50556,4.50556,0,0,1,4.54165-4.46877h27.275a4.50575,4.50575,0,0,1,4.54165,4.46877Z"/><polygon class="cls-17" points="1408.096 254.851 1426.357 255.946 1447.736 258.357 1438.382 283.339 1433.706 318.621 1420.166 358.905 1395.847 269.314 1408.096 254.851"/><polygon class="cls-18" points="1419.257 256.08 1419.257 256.028 1419.2 256.054 1419.142 256.028 1419.142 256.08 1409.363 260.551 1412.903 268.127 1419.142 268.127 1419.257 268.127 1425.485 268.127 1429.03 260.551 1419.257 256.08"/><polygon class="cls-18" points="1412.937 268.806 1425.348 268.806 1430.978 321.839 1420.145 359.317 1406.157 319.125 1412.937 268.806"/><path class="cls-10" d="M1490.99082,294.31455l-8.2926-45.42108c35.7713,2.96435,68.76979-11.94719,84.88545-34.21994,11.36071-15.70124,13.02536-29.39271,13.03886-29.52657l25.51209,2.51048a68.92508,68.92508,0,0,1-3.10517,13.31637,102.661,102.661,0,0,1-14.56,28.33373c-8.90691,12.30993-18.9702,22.02494-33.46693,32.95578C1539.11382,274.24368,1514.40965,290.10334,1490.99082,294.31455Z"/><path class="cls-10" d="M1476.75063,248.52769l.70421-1.96371s9.528,3.83116,19.3887,2.59911c9.86038-1.23221-4.03043,6.4304-4.03043,6.4304l-8.589-2.86871Z"/><polygon class="cls-19" points="1398.313 269.505 1399.143 277.558 1419.257 256.028 1438.639 275.807 1441.604 271.839 1419.487 255.746 1398.313 269.505"/><polygon class="cls-2" points="1391.422 238.817 1388.364 245.561 1399.555 275.293 1419.487 255.746 1391.422 238.817"/><polygon class="cls-2" points="1447.759 237.307 1450.598 245.38 1438.614 274.129 1418.838 255.746 1447.759 237.307"/><path class="cls-20" d="M1394.70986,240.5426l25.42784,118.76058-28.935-68.71485,5.26105-7.76558-14.46775,1.07845-4.32819-42.6445S1389.66822,235.58105,1394.70986,240.5426Z"/><path class="cls-20" d="M1445.11826,239.07252l-24.9522,120.23067,28.45977-70.18479-5.26121-7.76558,14.46807,1.07829,3.90673-41.267S1450.16028,234.111,1445.11826,239.07252Z"/><polygon class="cls-21" points="1584.021 71.708 1565.342 71.708 1565.342 83.962 1565.614 83.962 1568.109 86.416 1572.085 86.845 1572.085 87.356 1574.459 87.1 1576.834 87.356 1576.834 86.845 1580.811 86.416 1583.305 83.962 1584.021 83.962 1584.021 71.708"/><path class="cls-22" d="M1586.87535,76.00355a2.18743,2.18743,0,0,1-2.20548,2.16994h-20.42217a2.18719,2.18719,0,0,1-2.20394-2.16994h0a2.18674,2.18674,0,0,1,2.20394-2.16872h20.42217a2.187,2.187,0,0,1,2.20548,2.16872Z"/><path class="cls-22" d="M1586.87535,82.05125a2.18711,2.18711,0,0,1-2.20548,2.16933h-20.42217a2.18686,2.18686,0,0,1-2.20394-2.16933h0a2.1865,2.1865,0,0,1,2.20394-2.169h20.42217a2.18675,2.18675,0,0,1,2.20548,2.169Z"/><path class="cls-22" d="M1581.53136,87.57085a2.18684,2.18684,0,0,1-2.205,2.169h-9.73357a2.18721,2.18721,0,0,1-2.20532-2.169h0a2.18719,2.18719,0,0,1,2.20532-2.16964h9.73357a2.18683,2.18683,0,0,1,2.205,2.16964Z"/><path class="cls-23" d="M1574.45947,11.31862h-.00125c-14.076,0-25.52727,11.05653-25.52727,24.64831,0,6.97932,2.99758,14.631,8.01481,20.46974l.21129.27213c.65383.819,6.3934,8.14342,6.3934,13.25377a2.01837,2.01837,0,0,0,1.55708,1.9476V71.972h17.41511v-.13163l1.68156-.02838a2.00208,2.00208,0,0,0,1.25046-1.84654c0-4.5201,4.615-11.09909,6.39324-13.253a1.57008,1.57008,0,0,0,.177-.2661l.16726-.26345c4.88841-5.84145,7.79485-13.37945,7.79485-20.21547C1599.98706,22.37531,1588.53629,11.319,1574.45947,11.31862Z"/><path class="cls-24" d="M1584.39626,47.45087a3.74868,3.74868,0,0,0-.90945-2.52031,2.86808,2.86808,0,0,0-2.14163-.81983,3.5831,3.5831,0,0,0-2.77126,1.1043,5.52028,5.52028,0,0,0-1.09205,3.89172v.34047h-6.01472v-.34047a5.52212,5.52212,0,0,0-1.09173-3.89172,3.58384,3.58384,0,0,0-2.7716-1.1043,2.8669,2.8669,0,0,0-2.14131.81983,3.75006,3.75006,0,0,0-.90991,2.52031,2.80258,2.80258,0,0,0,.687,1.988,3.22821,3.22821,0,0,0,2.48218.908h2.83126V71.93893h.9141V50.34688h6.01472V71.93893h.9141V50.34688h2.83126a3.228,3.228,0,0,0,2.48218-.908A2.80137,2.80137,0,0,0,1584.39626,47.45087Zm-13.84073,1.58694-.00248.40941h-2.83126a2.37088,2.37088,0,0,1-1.79967-.60733,1.92368,1.92368,0,0,1-.457-1.33647l.003-.03-.00078-.02937a2.90076,2.90076,0,0,1,.65754-1.89354,1.96192,1.96192,0,0,1,1.479-.54029,2.70572,2.70572,0,0,1,2.08939.804A4.73766,4.73766,0,0,1,1570.55552,49.03781Zm12.47138-.19792a2.37091,2.37091,0,0,1-1.79967.60733H1578.396l-.00249-.40941a4.73362,4.73362,0,0,1,.86218-3.2236,2.70586,2.70586,0,0,1,2.08953-.804,1.96132,1.96132,0,0,1,1.47881.54029,2.90737,2.90737,0,0,1,.65832,1.89354l-.00108.02937.00248.03A1.92056,1.92056,0,0,1,1583.0269,48.83989Z"/><path class="cls-25" d="M1557.3474,46.963a1.31,1.31,0,0,1-1.038-.581,21.94031,21.94031,0,0,1-2.40995-5.48383,21.641,21.641,0,0,1,.07657-12.93365,15.82362,15.82362,0,0,1,3.87822-6.25118,20.77186,20.77186,0,0,1,5.1654-3.72873,25.06454,25.06454,0,0,1,6.47293-2.32667,1.30476,1.30476,0,0,1,1.51942,1.0339,1.287,1.287,0,0,1-1.04912,1.49511,22.85211,22.85211,0,0,0-5.7887,2.10541c-3.95308,2.07345-6.5478,4.92112-7.71223,8.46345-2.86041,8.70187,1.98521,16.14505,2.03436,16.2191a1.27317,1.27317,0,0,1-.37838,1.77952A1.31817,1.31817,0,0,1,1557.3474,46.963Z"/><path class="cls-26" d="M1405.92285,198.07414a13.20219,13.20219,0,0,0,.5158,1.553,18.2251,18.2251,0,0,0,6.46255,8.36506,12.799,12.799,0,0,0,15.50291.00678,18.24124,18.24124,0,0,0,6.46269-8.37307,13.19027,13.19027,0,0,0,.51556-1.55176Z"/><path class="cls-6" d="M1420.65265,211.72283c-.0276,0-.05535-.001-.08286-.00306a16.76955,16.76955,0,0,1-8.30717-2.80548,19.3677,19.3677,0,0,1-6.87479-8.86974,14.8464,14.8464,0,0,1-.55919-1.67083,1.00809,1.00809,0,0,1,.2081-.905,1.09657,1.09657,0,0,1,.88611-.38135h29.4595a1.09616,1.09616,0,0,1,.88621.38135,1.05037,1.05037,0,0,1,.20817.92629,15.11827,15.11827,0,0,1-.55929,1.66023,19.3588,19.3588,0,0,1-6.87455,8.86447,16.76866,16.76866,0,0,1-8.30717,2.80273C1420.70814,211.7245,1420.68039,211.72283,1420.65265,211.72283Zm-13.17387-12.41846c.00364,0,.00713-.02471.01084-.01564a17.0889,17.0889,0,0,0,6.05021,7.82072,11.69434,11.69434,0,0,0,14.22578-.016,17.05723,17.05723,0,0,0,6.05021-7.80205c.00371-.009.00729.013.0107.013Z"/><path class="cls-2" d="M1428.40411,208.00127h-15.50291a12.8036,12.8036,0,0,0,15.50291,0Z"/><path class="cls-2" d="M1405.92285,198.1106a13.76222,13.76222,0,0,0,.5158,1.53469c.11448.29166.25111.617.41032.96625h27.60751c.159-.34923.29576-.67459.41032-.96625a13.7222,13.7222,0,0,0,.51556-1.53469Z"/><path class="cls-26" d="M1406.849,200.61154a17.86363,17.86363,0,0,0,6.05223,7.38973h15.50291a17.86362,17.86362,0,0,0,6.05237-7.38973Z"/><path class="cls-2" d="M1405.31,153.24384s-5.1817,4.8544-11.57387,4.8544-11.574-4.8544-11.574-4.8544,5.18184-4.85454,11.574-4.85454S1405.31,153.24384,1405.31,153.24384Z"/><path class="cls-2" d="M1460.89073,153.24384s-5.18169,4.8544-11.574,4.8544c-6.39171,0-11.57371-4.8544-11.57371-4.8544s5.182-4.85454,11.57371-4.85454C1455.709,148.3893,1460.89073,153.24384,1460.89073,153.24384Z"/><ellipse class="cls-27" cx="1392.87477" cy="153.47245" rx="4.74122" ry="4.6655"/><ellipse class="cls-2" cx="1393.98437" cy="152.22742" rx="1.59048" ry="1.56516"/><ellipse class="cls-27" cx="1449.19158" cy="153.47245" rx="4.74122" ry="4.6655"/><ellipse class="cls-2" cx="1450.30115" cy="152.22742" rx="1.59049" ry="1.56516"/><polygon class="cls-28" points="1564.315 645.777 1279.581 645.777 1250.634 711.929 1593.261 711.929 1564.315 645.777"/><ellipse class="cls-29" cx="1263.30173" cy="330.11572" rx="27.81346" ry="19.68383"/><path class="cls-29" d="M1260.80777,318.52729a100.89581,100.89581,0,0,1-6.27831-51.94c1.85966-12.31284,11.21625-21.442,27.05778-26.399a88.05448,88.05448,0,0,1,22.95929-3.7687l.04271,4.80176c-.41218.00381-41.4.69062-45.23392,26.0718-4.04027,26.74708,5.81375,49.0682,5.91381,49.29044Z"/><path class="cls-29" d="M1302.28176,240.34873a6.30214,6.30214,0,0,0-.27492-1.83672l.16091,6.30761Z"/><path class="cls-29" d="M1357.51083,220.15051a4.34914,4.34914,0,0,0-4.76022-1.95776l-69.19558,12.861a4.24739,4.24739,0,0,0-3.14765,5.15336l3.41635,13.49316a4.32528,4.32528,0,0,0,5.2368,3.0979l67.23827-20.59284a4.32342,4.32342,0,0,0,.791-.279l3.0899-.94794-.61035-2.69956-.92588-4.08971Z"/><rect class="cls-28" x="1321.11088" y="447.87602" width="201.67368" height="199.22012"/><rect class="cls-30" x="1321.11088" y="354.50836" width="201.67368" height="93.36765"/><rect class="cls-28" x="1219.19033" y="329.96844" width="405.51439" height="96.02776"/><path class="cls-31" d="M1367.87079,724.30107v-2.12l-2.68857,1.55895-.0186-.00367-.03884.03661-.05348.03127-.3156-.25107V695.252l1.42378-.78039-.183-.04119c15.909-8.56519,28.15929-25.74713,33.00685-46.85677a4.16085,4.16085,0,0,0,1.76348.70549c4.22016.6094,8.65981-5.71729,9.91067-14.12948,1.25008-8.41188-1.15708-15.72366-5.37724-16.33152.314-45.11768-25.66-48.69624-25.66-48.69624s-9.353-24.79253-61.78887-11.46174c-43.03928,10.9416-41.77758,54.00427-41.16885,61.93382-1.69288,2.854-2.53117,7.66353-2.00693,13.00268.81962,8.3039,4.62187,14.73538,8.49078,14.36531a4.56928,4.56928,0,0,0,3.24228-2.25468c4.338,22.28328,16.84739,40.54931,33.33028,49.54954v29.26664l-.33816.26755-2.77625-1.6099v2.56417c-12.638,2.64563-56.6223,15.38625-64.9672,65.6103h180.97635C1427.5551,774.132,1410.85273,734.01044,1367.87079,724.30107Z"/><path class="cls-31" d="M1229.31491,784.609c-.42613-1.0391-.88983-2.1299-1.38385-3.25777-.83637-1.91618-1.77047-3.94418-2.80531-6.06294q-.78405-1.60211-1.64172-3.25852c-1.02554-1.97569-2.13564-4.00261-3.33225-6.06249q-.94157-1.62-1.95305-3.259-1.86874-3.02094-3.99029-6.06265-1.14515-1.63506-2.3601-3.25807-2.30844-3.0763-4.88981-6.06371-1.4331-1.65221-2.948-3.25852c-1.98374-2.09848-4.07445-4.12846-6.28528-6.06294-1.27885-1.118-2.58784-2.21121-3.94573-3.25807a75.83172,75.83172,0,0,0-9.17467-6.06341,69.657,69.657,0,0,0-6.58036-3.25807,66.62771,66.62771,0,0,0-7.119-2.63084c-.70684-.21218-1.41021-.42939-2.1248-.62951l.3521-.64768-4.78392-4.70794-.24121.17023V695.05242l1.32294-.72547-.18416-.04119c15.90982-8.56518,28.16131-25.74758,33.0084-46.85921a4.153,4.153,0,0,0,1.76542.70671c4.21977.61061,8.6571-5.71454,9.90756-14.12827,1.20816-8.11351-.99027-15.19831-4.93088-16.23832l.06975-.04622c.03256-.02106.07914-.05187.07914-.05187-.04659-.32018-.10278-.61671-.152-.93215a81.16452,81.16452,0,0,0-8.87505-31.12915c5.00885-21.9753-15.86718-28.09788-37.87922-28.62444-20.34753-.48844-41.66636,3.80461-44.41771,4.7897a37.86647,37.86647,0,0,1-10.50747,1.55223c-3.04874.10114-5.37986-.014-5.37986-.014a24.65037,24.65037,0,0,0,1.09343,2.71473c.50557,1.13015.99029,2.15354.99029,2.15354a8.50317,8.50317,0,0,1-2.93248-.69527,118.47456,118.47456,0,0,1-11.65128-5.45431,28.4629,28.4629,0,0,0,2.28074,14.93229,29.50152,29.50152,0,0,0,3.44814,6.08386c-1.302.25565-4.94794-1.28133-4.94794-1.28133a39.27327,39.27327,0,0,0,2.08294,7.17572c-6.51718,4.68583-8.86846,16.72371-9.55826,27.95755-3.45239,1.1172-5.57727,7.7787-4.81183,15.55451.81737,8.30312,4.62032,14.73613,8.48884,14.3653a4.56952,4.56952,0,0,0,3.243-2.25314c4.34116,22.29289,16.85979,40.565,33.35237,49.55991l.0089,22.80144-4.66341,4.58928.11364.20928c-.57153.133-1.3024.31316-2.17209.54854a85.72,85.72,0,0,0-9.32714,3.15021c-2.23842.89632-4.66689,1.96683-7.22868,3.25807a90.26651,90.26651,0,0,0-10.26735,6.06341c-1.48469,1.01377-2.97365,2.09481-4.46175,3.25807a82.06886,82.06886,0,0,0-6.91541,6.06294c-1.055,1.03712-2.09458,2.12914-3.12012,3.25852q-2.56965,2.82738-4.97049,6.06371-1.16779,1.5781-2.283,3.25807-1.90941,2.88024-3.63817,6.06265-.86019,1.59045-1.66845,3.259c-.93641,1.9409-1.82045,3.9547-2.63549,6.06249-.40946,1.061-.79373,2.1543-1.1694,3.25852-.66538,1.95554-1.28581,3.96661-1.83371,6.06294-.27994,1.0658-.53849,2.15583-.78589,3.25777q-.62467,2.7935-1.10508,5.74658h180.64759C1230.92827,788.67977,1230.1939,786.75368,1229.31491,784.609Z"/><path class="cls-31" d="M1630.81306,784.609c-.42613-1.0391-.88991-2.1299-1.38393-3.25777-.83629-1.91618-1.77039-3.94418-2.80523-6.06294q-.784-1.60211-1.64172-3.25852c-1.02554-1.97569-2.13572-4.00261-3.33225-6.06249q-.94169-1.62-1.953-3.259-1.869-3.02094-3.99028-6.06265-1.14536-1.63506-2.36018-3.25807-2.30844-3.0763-4.88981-6.06371-1.43322-1.65221-2.94814-3.25852c-1.98351-2.09848-4.0743-4.12846-6.28521-6.06294-1.27869-1.118-2.58776-2.21121-3.94565-3.25807a75.8327,75.8327,0,0,0-9.17475-6.06341,69.65688,69.65688,0,0,0-6.58036-3.25807,66.62131,66.62131,0,0,0-7.119-2.63084c-.70684-.21218-1.41013-.42939-2.12472-.62951l.352-.64768-4.78392-4.70794-.24121.17023V695.05242l1.323-.72547-.18416-.04119c15.90982-8.56518,28.16123-25.74758,33.00841-46.85921a4.153,4.153,0,0,0,1.76542.70671c4.21984.61061,8.657-5.71454,9.90748-14.12827,1.20816-8.11351-.99019-15.19831-4.93088-16.23832l.06975-.04622c.03256-.02106.07922-.05187.07922-.05187-.04667-.32018-.10278-.61671-.15206-.93215a81.16369,81.16369,0,0,0-8.875-31.12915c5.00884-21.9753-15.86719-28.09788-37.8793-28.62444-20.34745-.48844-41.6662,3.80461-44.41764,4.7897a37.86736,37.86736,0,0,1-10.50755,1.55223c-3.04874.10114-5.37978-.014-5.37978-.014a24.62071,24.62071,0,0,0,1.09343,2.71473c.50565,1.13015.99021,2.15354.99021,2.15354a8.5028,8.5028,0,0,1-2.93249-.69527,118.47944,118.47944,0,0,1-11.6512-5.45431,28.4623,28.4623,0,0,0,2.28066,14.93229,29.50368,29.50368,0,0,0,3.44822,6.08386c-1.3021.25565-4.94794-1.28133-4.94794-1.28133a39.27741,39.27741,0,0,0,2.08288,7.17572c-6.51712,4.68583-8.86832,16.72371-9.55811,27.95755-3.45254,1.1172-5.57727,7.7787-4.812,15.55451.81737,8.30312,4.6204,14.73613,8.48884,14.3653a4.56964,4.56964,0,0,0,3.24312-2.25314c4.34108,22.29289,16.85973,40.565,33.35237,49.55991l.00882,22.80144-4.66333,4.58928.11363.20928c-.57153.133-1.3024.31316-2.17217.54854a85.72552,85.72552,0,0,0-9.32714,3.15021c-2.23834.89632-4.66673,1.96683-7.2286,3.25807a90.26728,90.26728,0,0,0-10.26743,6.06341c-1.48469,1.01377-2.97357,2.09481-4.46167,3.25807a82.06681,82.06681,0,0,0-6.91547,6.06294c-1.055,1.03712-2.09452,2.12914-3.12006,3.25852q-2.56977,2.82738-4.97057,6.06371-1.16767,1.5781-2.283,3.25807-1.90941,2.88024-3.63809,6.06265-.86031,1.59045-1.66853,3.259c-.93642,1.9409-1.82045,3.9547-2.63549,6.06249-.40938,1.061-.79365,2.1543-1.1694,3.25852-.6653,1.95554-1.28566,3.96661-1.83363,6.06294-.27994,1.0658-.53865,2.15583-.78589,3.25777q-.62479,2.7935-1.10508,5.74658h180.64721C1632.42642,788.67977,1631.692,786.75368,1630.81306,784.609Z"/><path class="cls-31" d="M1769.36888,724.30107v-2.12l-2.6885,1.55895-.0183-.00367-.03875.03661-.05348.03127-.3156-.25107V695.252l1.42377-.78039-.18352-.04119c15.9095-8.56519,28.15982-25.74713,33.00731-46.85677a4.15927,4.15927,0,0,0,1.76309.70549c4.22032.6094,8.65981-5.71729,9.91075-14.12948,1.25-8.41188-1.15669-15.72366-5.37684-16.33152.31359-45.11768-25.66028-48.69624-25.66028-48.69624s-9.35272-24.79253-61.78857-11.46174c-43.03928,10.9416-41.77764,54.00427-41.16893,61.93382-1.69286,2.854-2.53117,7.66353-2.00723,13.00268.8197,8.3039,4.62225,14.73538,8.4907,14.36531a4.569,4.569,0,0,0,3.24236-2.25468c4.33843,22.28328,16.84777,40.54931,33.3302,49.54954v29.26664l-.33778.26755-2.77623-1.6099v2.56417c-12.63832,2.64563-56.62254,15.38625-64.96752,65.6103h180.97675C1829.05318,774.132,1812.35126,734.01044,1769.36888,724.30107Z"/><g class="cls-32"><path class="cls-31" d="M1273.52336,736.59309v-2.12l-2.68856,1.55895-.0186-.00367-.03884.03661-.05348.03127-.3156-.25107V707.544l1.42378-.78039-.183-.04119c15.909-8.56519,28.15929-25.74713,33.00685-46.85677a4.16085,4.16085,0,0,0,1.76348.70549c4.22016.6094,8.65981-5.71729,9.91067-14.12948,1.25008-8.41188-1.15708-15.72366-5.37724-16.33152.314-45.11768-25.66-48.69624-25.66-48.69624s-9.353-24.79253-61.78887-11.46174c-43.03928,10.9416-41.77758,54.00427-41.16885,61.93382-1.69288,2.854-2.53117,7.66353-2.00693,13.00268.81962,8.3039,4.62187,14.73538,8.49078,14.36531a4.56928,4.56928,0,0,0,3.24228-2.25468c4.338,22.28328,16.84739,40.54931,33.33028,49.54954v29.26664l-.33816.26755-2.77625-1.6099v2.56417c-12.638,2.64563-56.6223,15.38625-64.9672,65.6103h180.97635C1333.20768,786.42405,1316.5053,746.30246,1273.52336,736.59309Z"/><path class="cls-31" d="M1134.96748,796.901c-.42613-1.0391-.88983-2.1299-1.38385-3.25777-.83637-1.91618-1.77047-3.94418-2.80531-6.06294q-.78405-1.60211-1.64172-3.25852c-1.02554-1.97569-2.13564-4.00261-3.33225-6.06249q-.94158-1.62-1.95306-3.259-1.86874-3.02094-3.99028-6.06264-1.14515-1.63506-2.3601-3.25807-2.30844-3.0763-4.88981-6.06371-1.4331-1.65221-2.948-3.25852c-1.98374-2.09848-4.07445-4.12846-6.28528-6.06294-1.27885-1.118-2.58784-2.21121-3.94573-3.25807a75.83163,75.83163,0,0,0-9.17467-6.06341,69.65686,69.65686,0,0,0-6.58036-3.25807,66.62764,66.62764,0,0,0-7.119-2.63084c-.70684-.21218-1.41021-.42939-2.1248-.62951l.3521-.64768-4.78392-4.70794-.24121.17023V707.34444l1.32294-.72547-.18416-.04119c15.90982-8.56518,28.16131-25.74758,33.00841-46.85921a4.153,4.153,0,0,0,1.76542.70671c4.21976.61061,8.6571-5.71454,9.90756-14.12827,1.20816-8.11351-.99027-15.19831-4.93088-16.23832l.06975-.04622c.03256-.02106.07914-.05187.07914-.05187-.04659-.32018-.10278-.61671-.152-.93215a81.16452,81.16452,0,0,0-8.87505-31.12915c5.00885-21.9753-15.86718-28.09788-37.87921-28.62444-20.34753-.48844-41.66636,3.80461-44.41771,4.7897a37.86647,37.86647,0,0,1-10.50747,1.55223c-3.04874.10114-5.37986-.014-5.37986-.014a24.65032,24.65032,0,0,0,1.09343,2.71473c.50557,1.13015.99029,2.15354.99029,2.15354a8.50318,8.50318,0,0,1-2.93249-.69527,118.47464,118.47464,0,0,1-11.65128-5.45431,28.46291,28.46291,0,0,0,2.28074,14.93229,29.50149,29.50149,0,0,0,3.44814,6.08386c-1.302.25565-4.94794-1.28133-4.94794-1.28133A39.2733,39.2733,0,0,0,993.951,601.232c-6.51718,4.68583-8.86846,16.72371-9.55826,27.95755-3.45239,1.1172-5.57727,7.7787-4.81183,15.55451.81737,8.30312,4.62032,14.73613,8.48884,14.3653a4.56951,4.56951,0,0,0,3.243-2.25314c4.34116,22.29289,16.85979,40.565,33.35237,49.55991l.0089,22.80144-4.66341,4.58928.11364.20928c-.57153.133-1.3024.31316-2.17209.54854a85.72,85.72,0,0,0-9.32714,3.15021c-2.23842.89632-4.66689,1.96683-7.22868,3.25807a90.26653,90.26653,0,0,0-10.26735,6.06341c-1.48469,1.01377-2.97365,2.09481-4.46175,3.25807a82.06882,82.06882,0,0,0-6.91541,6.06294c-1.055,1.03712-2.09458,2.12914-3.12012,3.25852q-2.56965,2.82738-4.97049,6.06371-1.16779,1.5781-2.283,3.25807-1.90941,2.88024-3.63817,6.06264-.86019,1.59045-1.66845,3.259c-.93642,1.9409-1.82045,3.9547-2.63549,6.06249-.40946,1.061-.79373,2.1543-1.1694,3.25852-.66538,1.95554-1.28581,3.96661-1.83371,6.06294-.27994,1.0658-.53849,2.15583-.78589,3.25777q-.62467,2.7935-1.10508,5.74658h180.64759C1136.58084,800.97179,1135.84647,799.0457,1134.96748,796.901Z"/><path class="cls-31" d="M1536.46563,796.901c-.42613-1.0391-.88991-2.1299-1.38393-3.25777-.83629-1.91618-1.77039-3.94418-2.80523-6.06294q-.78405-1.60211-1.64172-3.25852c-1.02554-1.97569-2.13572-4.00261-3.33225-6.06249q-.94169-1.62-1.953-3.259-1.869-3.02094-3.99028-6.06264-1.14536-1.63506-2.36018-3.25807-2.30844-3.0763-4.88981-6.06371-1.43322-1.65221-2.94814-3.25852c-1.98351-2.09848-4.0743-4.12846-6.28521-6.06294-1.27869-1.118-2.58775-2.21121-3.94565-3.25807a75.83266,75.83266,0,0,0-9.17475-6.06341,69.657,69.657,0,0,0-6.58036-3.25807,66.62131,66.62131,0,0,0-7.119-2.63084c-.70684-.21218-1.41013-.42939-2.12472-.62951l.352-.64768-4.78392-4.70794-.24121.17023V707.34444l1.323-.72547-.18416-.04119c15.90982-8.56518,28.16123-25.74758,33.0084-46.85921a4.153,4.153,0,0,0,1.76542.70671c4.21984.61061,8.657-5.71454,9.90748-14.12827,1.20816-8.11351-.99019-15.19831-4.93088-16.23832l.06975-.04622c.03256-.02106.07922-.05187.07922-.05187-.04667-.32018-.10278-.61671-.15206-.93215a81.1637,81.1637,0,0,0-8.875-31.12915c5.00884-21.9753-15.86718-28.09788-37.87929-28.62444-20.34746-.48844-41.6662,3.80461-44.41764,4.7897a37.86737,37.86737,0,0,1-10.50755,1.55223c-3.04874.10114-5.37978-.014-5.37978-.014a24.62086,24.62086,0,0,0,1.09343,2.71473c.50565,1.13015.99021,2.15354.99021,2.15354a8.50281,8.50281,0,0,1-2.93249-.69527,118.47944,118.47944,0,0,1-11.6512-5.45431,28.46231,28.46231,0,0,0,2.28066,14.93229,29.50373,29.50373,0,0,0,3.44822,6.08386c-1.3021.25565-4.94794-1.28133-4.94794-1.28133a39.27748,39.27748,0,0,0,2.08288,7.17572c-6.51712,4.68583-8.86832,16.72371-9.55811,27.95755-3.45254,1.1172-5.57727,7.7787-4.812,15.55451.81737,8.30312,4.6204,14.73613,8.48884,14.3653a4.56964,4.56964,0,0,0,3.24312-2.25314c4.34108,22.29289,16.85973,40.565,33.35237,49.55991l.00883,22.80144-4.66334,4.58928.11364.20928c-.57153.133-1.3024.31316-2.17217.54854a85.72562,85.72562,0,0,0-9.32714,3.15021c-2.23834.89632-4.66673,1.96683-7.2286,3.25807a90.26718,90.26718,0,0,0-10.26743,6.06341c-1.48469,1.01377-2.97357,2.09481-4.46167,3.25807a82.06685,82.06685,0,0,0-6.91547,6.06294c-1.055,1.03712-2.09452,2.12914-3.12006,3.25852q-2.56977,2.82738-4.97057,6.06371-1.16767,1.5781-2.283,3.25807-1.90941,2.88024-3.63809,6.06264-.86031,1.59045-1.66853,3.259c-.93642,1.9409-1.82045,3.9547-2.63549,6.06249-.40938,1.061-.79365,2.1543-1.1694,3.25852-.6653,1.95554-1.28565,3.96661-1.83362,6.06294-.27994,1.0658-.53865,2.15583-.78589,3.25777q-.62479,2.7935-1.10508,5.74658H1538.6874C1538.079,800.97179,1537.34454,799.0457,1536.46563,796.901Z"/><path class="cls-31" d="M1675.02145,736.59309v-2.12l-2.6885,1.55895-.0183-.00367-.03875.03661-.05348.03127-.3156-.25107V707.544l1.42377-.78039-.18353-.04119c15.9095-8.56519,28.15982-25.74713,33.00731-46.85677a4.15928,4.15928,0,0,0,1.76309.70549c4.22032.6094,8.65981-5.71729,9.91075-14.12948,1.25-8.41188-1.15669-15.72366-5.37685-16.33152.31359-45.11768-25.66028-48.69624-25.66028-48.69624s-9.35272-24.79253-61.78857-11.46174c-43.03928,10.9416-41.77764,54.00427-41.16893,61.93382-1.69286,2.854-2.53117,7.66353-2.00723,13.00268.8197,8.3039,4.62225,14.73538,8.4907,14.36531a4.569,4.569,0,0,0,3.24236-2.25468c4.33843,22.28328,16.84778,40.54931,33.3302,49.54954v29.26664l-.33778.26755-2.77623-1.6099v2.56417c-12.63832,2.64563-56.62254,15.38625-64.96752,65.6103h180.97675C1734.70575,786.42405,1718.00383,746.30246,1675.02145,736.59309Z"/></g></svg>